<?xml version="1.0" encoding="UTF-8"?>
<svg viewBox="0 0 154.08366 500.39828" xmlns="http://www.w3.org/2000/svg">
 <g transform="translate(-296.81 -164.44)">
  <g transform="translate(78.792 -13.132)">
   <g transform="translate(-9.0914,6.0609)">
    <path d="m313.62 669.52c-0.3819-1.2032-0.5472-6.3102-0.3673-11.349s-0.0366-9.7365-0.4811-10.44c-1.0129-1.6025-4.3047-66.215-5.1059-100.22-1.0215-43.355-0.9191-43.225-9.0454-11.439-5.6088 21.939-5.6088 21.939-8.9635 67.258-2.7172 36.706-3.6574 45.653-4.9473 47.079-1.1451 1.2653-1.5925 3.7747-1.5925 8.931 0 10.168-23.195 16.984-31.329 9.2061-2.8596-2.7344-1.9283-9.0813 2.1951-14.96 4.7121-6.7176 4.8262-7.0752 2.2562-7.0752-3.7454 0-4.3062-2.1931-3.2403-12.673 0.5497-5.4048 1.2724-13.427 1.6061-17.827s1.685-19.25 3.0029-33c4.0492-42.245 6.2139-109.28 3.5089-108.66-6.6919 1.5337-7.4144 1.3255-13.411-3.8643-4.2948-3.7171-6.4842-4.9718-8.0083-4.5892-4.522 1.135-10.581-9.1443-10.581-17.951 0-2.9467-0.4896-8.6496-1.0881-12.673-0.9046-6.0824-0.8046-8.5758 0.5934-14.791 0.9248-4.1114 2.0778-11.975 2.5621-17.475s1.2558-14.353 1.7142-19.674c0.7581-8.7981 1.1677-10.177 4.5259-15.235 2.4352-3.6677 3.6924-6.7144 3.6924-8.9483 0-5.4941 4.7325-22.53 7.502-27.006 1.4081-2.2756 4.5711-6.9788 7.029-10.452s4.469-6.8084 4.469-7.4124c0-3.2744 6.2977-10.773 9.0475-10.773 1.7099 0 3.3988-0.7992 4.2465-2.0094 1.5747-2.2482 12.411-6.9906 15.974-6.9906 8.2958 0 12.198-11.02 4.7758-13.486-18.689-6.2075-27.85-65.541-13.718-88.846 3.649-6.0176 18.008-18.312 22.438-19.211 22.993-4.6689 39.675 6.4023 47.117 31.269 2.295 7.6687 5.7631 48.338 4.3336 50.819-0.7504 1.3025-6.282 8.0256-12.25 14.888-8.1039 9.3194-9.4686 11.786-9.3879 16.972 0.0772 4.9596 3.5493 9.5753 7.2135 9.5894 2.0327 8e-3 8.8804 3.7659 14.014 7.6912 2.5827 1.9747 6.5637 4.393 8.8466 5.374 5.0933 2.1887 4.7364-1.7647 6.8055 75.38 1.6105 60.047 1.8049 57.56-4.497 57.56-5.7306 0-6.9593 0.7908-6.9593 4.4792 0 3.5292 6.5284 5.987 9.4538 3.5592 1.6351-1.357 2.5462-0.2972 2.5462 2.9616 0 3.6193-0.6804 4.0485-3.8207 2.4102-4.5768-2.3878-9.1793-1.871-9.1793 1.0308 0 3.1416 1.1541 3.787 7.3892 4.1318 8.6026 0.4758 6.6714 21.805-2.393 26.429-12.229 6.2387-14.68 12.86-16.491 44.547-0.8473 14.823-1.9825 30.246-2.5227 34.273-1.5013 11.192-1.2023 18.755 1.4611 36.969 1.3438 9.1898 2.6632 18.284 2.9319 20.209 0.4968 3.5584 4.1859 20.042 5.2022 23.244 0.4502 1.4185 1.7457 1.7644 6.74 1.7996 29.285 0.2063 27.894 15.276-1.9869 21.528-6.4185 1.3429-6.6911 1.314-11.965-1.2683-4.8209-2.3606-5.5284-2.476-6.6312-1.0817-0.8215 1.0387-3.7433 1.775-8.7345 2.2009-4.125 0.352-9.3681 0.8955-11.651 1.2078-3.6467 0.4987-4.2357 0.3018-4.8456-1.62zm-64.87-222c2.1261-0.0136 3.4246-2.374 2.6205-4.7637-0.9595-2.8518-10.254-0.5327-10.254 2.5586 0 2.5498 1.078 3.407 3.4746 2.763 1.114-0.2993 2.9855-0.5504 4.1588-0.5579zm1.6166-10.688c3.9225-2.3204-0.7801-7.543-6.4261-7.1367-4.4511 0.3203-5.2194 2.1086-3.2862 7.6486 0.4338 1.2432 7.3627 0.878 9.7123-0.5119zm70.5-37.268c0.1375-0.0316 0.25-1.1824 0.25-2.5574s0.3949-2.5 0.8776-2.5c1.1954 0 3.5896 2.9746 2.4949 3.0997-1.2439 0.1421 3.7796 1.6811 5.8776 1.8006 1.4222 0.081 1.75-0.7433 1.75-4.4003 0-2.475 0.45-4.5 1-4.5s1 1.8621 1 4.1381c0 7.4156 15.145 4.6408 15.38-2.8178 0.1203-3.8203 0.1203-3.8203-9.0457-3.8392-7.2693-0.015-9.5618-0.3771-11.079-1.75-2.4024-2.1742-2.9079-2.1675-3.4866 0.0456-0.4207 1.6089-2.2019 1.8009-18.867 2.0335-20.851 0.291-21.902 0.4621-21.902 3.5661 0 4.2089 2.007 5.3571 10.383 5.9406 4.3356 0.302 8.3856 1.0624 9 1.6899 0.8601 0.8784 12.606 0.9148 16.367 0.0508z" fill="#a59a9e"/>
    <path d="m262.3751,669.437c-12.9607-1.2535-14.448-4.7862-6.7551-16.0451 4.5614-6.6758 5.0869-9.5267 1.5491-8.4038-3.7415,1.1875-3.815-1.293-.9622-32.4819 1.5344-16.775 3.445-37.7 4.2458-46.5s1.5034-22.525 1.5613-30.5c.0579-7.975.5923-23.05 1.1876-33.5 1.6929-29.7199 1.5872-30.1945-6.2775-28.1812-2.2725.5817-3.5715-.0851-8.4056-4.3154-4.2977-3.7609-6.5088-5.0035-8.9032-5.0035-3.7439,0-8.1588-6.7475-8.9114-13.6198-.2337-2.1341-1.1358-8.2528-2.0045-13.5971-1.5659-9.6324-.813-18.373 1.9705-22.8768 .4242-.6864 1.1533-6.0086 1.6202-11.8271 2.4454-30.4749 2.2966-29.7341 7.3472-36.5791 1.5225-2.0634 2.3916-5.0317 2.7839-9.5076 .8641-9.8598 5.1819-22.4233 9.2563-26.9332 1.889-2.0909 3.4345-4.2477 3.4345-4.7929s1.35-2.69 3-4.7663 3-4.8061 3-6.0663c0-3.4246 6.5574-10.0459 8.4189-8.501 1.1281.9362 2.1298.8349 4.6548-.4709 2.1112-1.0918 2.8073-1.9173 2.0245-2.4011-1.6682-1.031.1739-2.4089 6.614-4.9473 3.1338-1.2352 5.4459-1.6665 5.8065-1.083 2.4229,3.9203 13.9438-8.7767 12.1664-13.4084-.2984-.7776-2.8309-2.174-5.6278-3.1029-8.8542-2.9409-13.5658-11.8001-17.029-32.0191-6.0237-35.1683-3.865-48.3311 10.2783-62.6721 7.5376-7.643 12.0437-10.8184 15.36-10.8242 1.1917-.002 2.3331-.5032 2.5366-1.1137 .4406-1.3217 17.9015-1.3221 18.7472-.0005 .3022.4723 1.9474,1.7037 3.6559,2.7364 13.4925,8.1554 21.6024,26.2817 23.3564,52.2036 1.7263,25.5128 1.6617,26.2519-2.7127,30.9977-2.0625,2.2376-4.7967,5.4419-6.0761,7.1206s-2.9727,3.0522-3.763,3.0522-2.4012,1.9847-3.5797,4.4105-3.1728,4.8798-4.4317,5.4534c-1.6587.7558-2.2353,1.7887-2.0942,3.7517 .4102,5.709-4.7012,7.0335-15.3527,3.9781-10.6025-3.0413-10.5653-3.0368-8.947-1.0869 .997,1.2014 1,2.4015.0146,5.921-1.4866,5.3097-.8777,6.5722 3.1696,6.5722 2.9522,0 3.0497-.1363 2.5038-3.5-.6698-4.1273-.8909-4.0706 5.3709-1.3769 4.9354,2.1231 4.9354,2.1231 4.9354,8.1225 0,5.2193.195,5.8374 1.5,4.7544 .9098-.7551 1.5-2.9449 1.5-5.5657 0-3.3314.5089-4.6773 2.2225-5.8776 3.1927-2.2363 4.7775-1.9233 4.7775.9433 0,2.9402.7829,3.1677 2.5812.75 1.066-1.4331 1.6291-1.5316 3.1102-.5435 2.252,1.5023 21.6574,12.0916 26.0605,14.2209 4.3482,2.1028 4.004-1.5357 5.73,60.5726 2.1567,77.6025 2.6059,69.8921-4.0322,69.207-5.0526-.5215-5.6245-.3771-6.3781,1.6101-.9511,2.5079-1.1956,18.6734-.3042,20.1156 .3268.5287.5038,3.0102.3934,5.5143-.2449,5.5549.3117,6.4282 5.0892,7.9856 3.6746,1.1979 5.1111,3.0674 2.357,3.0674-1.5216,0-2.9228,2.68-2.0985,4.0138 .2833.4583-.8403,1.7983-2.4968,2.9779s-3.0118,1.6639-3.0118,1.0765-.675-1.0681-1.5-1.0681c-1.7945,0-2.0075,1.6642-.2865,2.2378 .7666.2555-.0925,2.0357-2.3326,4.8333-6.5644,8.1985-8.1351,11.6523-8.5383,18.7739-.2072,3.6602-1.0701,17.6799-1.9177,31.1549s-1.7839,28.55-2.0808,33.5c-.4032,6.7217.1322,13.7742 2.1148,27.8598 1.4601,10.3729 2.4219,19.0925 2.1375,19.377s.0891,1.9684.8302,3.742 1.6611,5.204 2.0445,7.623c2.3655,14.925 3.2359,15.8626 14.744,15.8828 10.6964.0188 24.2459,11.0024 14.5348,11.7824-.6875.0552-6.2,1.9203-12.25,4.1447-13.2251,4.8623-14.133,4.9109-20.3456,1.0883-5.6907-3.5015-6.808-3.6668-7.6144-1.1261-.6079,1.9154-.6723,1.9289-17.7764,3.7461-5.7364.6094-5.7364.6094-5.1914-10.5823 .3463-7.1131.1644-11.6502-.4993-12.4499-1.2468-1.5023-3.6502-45.6806-5.4592-100.3472-1.6762-50.6545-1.3748-50.3461-11.0444-11.3004-6.5775,26.5598-6.5775,26.5598-9.6062,69.5172-2.1705,30.7855-3.4079,43.3945-4.3672,44.5-.7362.8484-1.6501,5.1387-2.0309,9.5341-1.0486,12.1047-1.2056,12.1896-19.3021,10.4393zm-10.013-208.8183c3.3391-1.2907 3.7662-5.636.9017-9.1735-1.4926-1.8433-1.6502-2.8074-.8189-5.0099 .8015-2.1234.6716-3.2734-.5865-5.1935-1.1318-1.7274-1.3003-2.7817-.5625-3.5195 3.5212-3.5212-.5004-8.6833-7.5014-9.6286-8.5026-1.148-9.4089-.4089-6.7325,5.4905 2.4336,5.3641 2.5674,8.7383.4656,11.7391-1.494,2.133-1.4402,2.3757.9429,4.2501 1.7888,1.407 2.7274,3.368 3.2119,6.7104 1.0142,6.9966 2.3701,7.547 10.6797,4.3349zm85.75-61.1219c12.8222-1.6097 13.6708-2.246 12.8281-9.6197-.3281-2.8708-.3281-2.8708-10.1577-2.8708-8.2071,0-10.0411-.2889-11.1103-1.75-1.6842-2.3016-3.718-2.2143-5.8281.25-1.5984,1.8668-2.9499,2-20.288,2-20.6001,0-23.0206.5325-21.9641,4.8322 1.5745,6.4081 2.644,6.9981 11.7226,6.4673 6.6684-.3899 8.6902-.1677 10.2975,1.1316 2.2427,1.813 18.1693,1.6096 34.5-.4406zm-10.4704-79.0385c.3562-.5763.3044-1.8138-.1151-2.75s-.7968-3.0521-.8386-4.7021c-.0634-2.5066-.5282-3.052-2.8259-3.3164-3.5127-.4042-3.8264,2.8217-.5,5.142 1.79,1.2487 1.9093,1.5802.5833,1.622-1.825.0574-2.8003,1.8412-2.079,3.8024 .5571,1.5148 4.8707,1.6658 5.7753.2021zm-5.9863-47.0222c1.3115-2.122 4.9127-2.7208 8.2114-1.3654 3.2371,1.3301 3.2655,1.3162 5.25-2.5738 3.5736-7.0049 2.8858-8.9748-3.0869-8.8403-5.5023.124-7.6167,2.1341-4.5803,4.3544 2.7554,2.0148 1.9884,3.6537-1.5482,3.3085-2.4795-.242-3.3425-.8827-3.7895-2.8134-.4752-2.0527-1.2662-2.5569-4.4211-2.8182-5.0769-.4205-6.0928.7305-4.6101,5.2231 1.6674,5.0523 6.8164,8.3701 8.5747,5.5251z" fill="#bc7983"/>
    <path d="m262.9065,669.4533c-13.5144-1.2017-15.0807-4.6542-7.2865-16.0613 4.5614-6.6758 5.0869-9.5267 1.5491-8.4038-3.9155,1.2427-2.5782-31.1358 2.9523-71.4819 .6408-4.675 1.5657-20.425 2.0553-35 2.4966-74.3287 2.7633-66.2334-2.1735-65.9677-6.2725.3376-6.1914.3659-11.5139-4.0323-3.6574-3.0223-5.7166-4-8.4247-4-4.5363,0-11.4074-11.1302-9.0943-14.7313 3.0761-4.789 9.6621-.4163 10.8915,7.2313 .8037,5 .8037,5 7.277,5.0764 5.7047.0673 13.9669,1.7506 19.2233,3.9165 1.2353.509 1.75.2534 1.75-.8691 0-1.9125-8.8672-6.6238-12.4668-6.6238-2.0041,0-2.5332-.499-2.5332-2.3892 0-1.3141-.8575-3.4481-1.9055-4.7424-1.2508-1.5447-1.6206-2.8855-1.0763-3.9025 5.1383-9.601-.3686-21.1191-9.9233-20.7552-8.6437.3292-8.9721.8757-5.7158,9.5119 2.1241,5.6335-1.6696,13.3202-4.9534,10.0365-1.997-1.997-4.0585-21.1127-2.604-24.146 2.4523-5.114 3.503-9.7627 4.3202-19.1131 2.6831-30.7005 2.5834-30.2008 7.2716-36.4443 1.5846-2.1103 2.5863-4.745 2.5863-6.8026 0-8.5244 5.3612-25.0378 9.822-30.2531 3.8328-4.4812 9.178-13.1608 9.178-14.9035 0-2.1661 5.9071-10.272 6.9954-9.5993 .4492.2777.5658,1.4646.259,2.6377s-.152,1.9388.3439,1.7015c22.3981-10.7163 23.9949-11.6431 26.5935-15.4357 6.3632-9.2866 6.1864-11.45-1.1345-13.8817-8.8542-2.9409-13.5658-11.8001-17.029-32.0191-6.0237-35.1683-3.865-48.3311 10.2783-62.6721 7.5376-7.643 12.0437-10.8184 15.36-10.8242 1.1917-.002 2.3331-.5032 2.5366-1.1137 .4406-1.3217 17.9015-1.3221 18.7472-.0005 .3022.4723 1.9474,1.7037 3.6559,2.7364 13.4925,8.1554 21.6024,26.2817 23.3564,52.2036 1.7263,25.5128 1.6617,26.2519-2.7127,30.9977-2.0625,2.2376-4.7967,5.4419-6.0761,7.1206-3.379,4.4339-6.61,4.1898-5.7425-.4338 .9018-4.8071-.7732-7.7173-3.9787-6.9128-1.4933.3748-3.3947.0116-4.8166-.9201-2.1246-1.3921-2.5036-1.3851-3.9621.0735-1.051,1.051-4.1489,1.8101-8.8934,2.1791-10.8824.8464-9.4984,10.2456 2.2697,15.4134 2.6964,1.1841 4.9132,2.4904 4.9261,2.9029 .0564,1.7933-7.3101.5954-10.7616-1.75-7.2542-4.9293-12.3597,1.3676-7.6176,9.3952 1.4137,2.3932 1.4322,3.1002.1612,6.1543-1.9259,4.6279-1.269,5.9505 2.9558,5.9505 3.4958,0 3.5392-.051 2.9795-3.5-.6602-4.0683-.6101-4.0793 5.3063-1.1663 4.3267,2.1303 4.4877,2.3688 4.1811,6.191-.7468,9.3087-.5422,19.3454.8454,41.4753 2.9349,46.806 4.0411,44.0772-18.208,44.9159-19.4824.7345-22.4122,1.5468-21.3385,5.9162 1.5375,6.2573 2.9363,7.1678 11.0123,7.1678 5.6417,0 8.4321.5139 11.5148,2.1207 3.252,1.695 5.1148,2.0007 9.2808,1.5228l7.6333-.8707c3.9104-.4405 11.1587,21.6273 9.6906,29.5039-1.3789,7.3986-3.4817,42.2535-2.6022,43.133 .9583.9583 1.0034.8699 2.7544-5.4096 .9759-3.5.9759-3.5 1.7117.6121 .4047,2.2617 1.0879,4.6818 1.5182,5.3781 1.2073,1.9534 3.2625.0729 2.5717-2.3531-.3347-1.1754-1.0442-12.6703-1.5766-25.5441-.9627-23.2769-1.5077-26.8905-6.6619-44.1722-.3908-1.3103 1.2334-1.7963 9.5411-2.855 11.0436-1.4074 12.4681-2.2725 13.5321-8.2175 1.0048-5.6144-.717-6.675-10.9582-6.7502-10.5147-.0772-10.7016-.1844-9.8791-5.6693 .6127-4.0858.4758-4.4635-1.952-5.3866-3.4018-1.2934-4.0407-10.0422-.7334-10.0422 2.8777,0 4.6009-2.6334 3.4547-5.2796-.529-1.2212-.8468-5.4813-.7063-9.4669 .2587-7.3374-.9467-9.7709-4.2487-8.5775-1.2525.4527-2.3429-2.7425-2.3637-6.926-.0101-2.0284.479-2.75 1.8639-2.75 3.0995,0 4.6704-2.7101 3.448-5.9485-.6477-1.716-.7041-3.4105-.1467-4.4066 .566-1.0115.494-2.3876-.192-3.6694-.6037-1.1281-.8247-2.911-.4911-3.9621 .3891-1.2258-.1566-2.6743-1.5219-4.0396-1.1707-1.1707-1.8883-2.7543-1.5948-3.5191s.1033-1.6566-.4227-1.9817c-1.9221-1.188-1.0556-7.2901 1.2662-8.9163 3.412-2.3899 5.1091-2.0143 4.3613.9653s1.5779,4.4186 3.9582,2.4431c1.2465-1.0345 1.912-.8941 3.7373.7888 1.2214,1.1261 6.4957,4.1283 11.7207,6.6715 15.2025,7.3998 14.8215,7.1066 15.4042,11.8518 .2853,2.3226.9883,22.4478 1.5624,44.7229 .5741,22.275 1.3309,48.724 1.6817,58.7756 .6379,18.2756.6379,18.2756-4.9788,17.6154-6.4686-.7603-8.018,1.1009-7.564,9.0861 .1258,2.2126-.0956,5.016-.492,6.2296-1.4683,4.495 1.2818,18.5932 4.064,20.8334 2.2177,1.7857 2.3445,2.1969 1.017,3.2986-1.0241.8499-1.7269.9181-2.1645.21-1.2682-2.052-2.4688-.9896-3.5909,3.1774-.8516,3.1625-.8507,4.6859.003,6.0533 .9382,1.5023.6322,2.4848-1.7206,5.524-7.2166,9.3219-7.4816,10.1926-8.3944,27.5788-.9009,17.1593-2.1055,33.2953-3.8098,51.0353-1.0639,11.0734-.9083,13.0687 3.0472,39.0826 .5854,3.85 1.2028,8.8345 1.3719,11.0767s.7629,4.9422 1.3193,6 1.3269,3.9483 1.7121,6.4233c2.3337,14.9962 3.227,15.9644 14.7472,15.9847 10.6964.0188 24.2459,11.0024 14.5348,11.7824-.6875.0552-6.2,1.9203-12.25,4.1447-13.2251,4.8623-14.133,4.9109-20.3456,1.0883-5.686-3.4987-6.8082-3.6662-7.6111-1.1364-.6489,2.0444-6.3437,3.1118-16.6863,3.1277-6.9425.0107-7.1283-.3499-6.2401-12.1147 .453-6.0012.3054-9.2654-.4608-10.1886-1.3394-1.6142-3.6683-43.821-5.5421-100.4474-1.6762-50.6545-1.3748-50.3461-11.0444-11.3004-6.5775,26.5598-6.5775,26.5598-9.6062,69.5172-2.1705,30.7855-3.4079,43.3945-4.3672,44.5-.7362.8484-1.6501,5.1387-2.0309,9.5341-1.0468,12.083-.9671,12.0386-18.7707,10.4555z" fill="#cc2733"/>
    <path d="m262.9065,669.4533c-13.5144-1.2017-15.0807-4.6542-7.2865-16.0613 4.5614-6.6758 5.0869-9.5267 1.5491-8.4038-3.9155,1.2427-2.5782-31.1358 2.9523-71.4819 .6408-4.675 1.5657-20.425 2.0553-35 2.4966-74.3287 2.7633-66.2334-2.1735-65.9677-6.2725.3376-6.1914.3659-11.5139-4.0323-3.6574-3.0223-5.7166-4-8.4247-4-4.5363,0-11.4074-11.1302-9.0943-14.7313 3.0761-4.789 9.6621-.4163 10.8915,7.2313 .8037,5 .8037,5 7.277,5.0764 3.5603.042 9.1733.858 12.4733,1.8133 7.8175,2.2631 8.701,2.3476 9.2187.8814 .5079-1.4384-9.7747-6.2711-13.3431-6.2711-1.8312,0-2.3756-.542-2.3756-2.3651 0-1.3008-.8662-3.4664-1.925-4.8124-1.0985-1.3965-1.5982-2.9759-1.1639-3.6786 5.845-9.4574.2132-22.6955-9.5671-22.4884-4.0392.0855-7.344-.1822-7.344-.595 0-1.3187 3.5293-4.0004 6.7359-5.1183 3.8669-1.348 12.4818-11.9422 9.711-11.9422-.3042,0-2.2152,1.1295-4.2467,2.5099-7.5125,5.1049 1.3354-15.2257 10.898-25.0414 5.7722-5.925 5.9958-6.74 1.6517-6.022-10.726,1.7728-22.303.9045-15.9914-1.1994 5.3943-1.7981 20.2414-16.7295 20.2414-20.3563 0-3.3053-8.3836,1.5635-13.8451,8.0405-6.3294,7.5063-13.8787,8.6066-8.8035,1.2831 2.0825-3.0051 2.6486-5.0004 2.6486-9.3366 0-10.207 4.6222-21.8777 8.6647-21.8777 2.4418,0 7.3353,5.5667 7.3353,8.3444 0,1.1729.8747,1.6556 3,1.6556 2.3029,0 3-.451 3-1.941 0-1.0675.426-2.2043.9468-2.5261 1.979-1.2231 7.0535-9.7289 7.0595-11.833 .007-2.2508 5.0015-6.1256 8.0222-6.223 6.2507-.2016 13.96-17.8217 9.6731-22.1085-.3193-.3193 1.1127-2.7226 3.1822-5.3406 7.7179-9.7639 7.754-12.9908.1735-15.5087-8.8542-2.9409-13.5658-11.8001-17.029-32.0191-6.0237-35.1683-3.865-48.3311 10.2783-62.6721 7.5376-7.643 12.0437-10.8184 15.36-10.8242 1.1917-.002 2.3331-.5032 2.5366-1.1137 .4406-1.3217 17.9015-1.3221 18.7472-.0005 .3022.4723 1.9474,1.7037 3.6559,2.7364 13.4925,8.1554 21.6024,26.2817 23.3564,52.2036 1.7263,25.5128 1.6617,26.2519-2.7127,30.9977-2.0625,2.2376-4.7967,5.4419-6.0761,7.1206-3.379,4.4339-6.61,4.1898-5.7425-.4338 .9018-4.8071-.7732-7.7173-3.9787-6.9128-1.4933.3748-3.3947.0116-4.8166-.9201-2.1246-1.3921-2.5036-1.3851-3.9621.0735-1.051,1.051-4.1489,1.8101-8.8934,2.1791-10.8824.8464-9.4984,10.2456 2.2697,15.4134 2.6964,1.1841 4.9132,2.4904 4.9261,2.9029 .0564,1.7933-7.3101.5954-10.7616-1.75-7.2542-4.9293-12.3597,1.3676-7.6176,9.3952 1.4137,2.3932 1.4322,3.1002.1612,6.1543-1.9259,4.6279-1.269,5.9505 2.9558,5.9505 3.4958,0 3.5392-.051 2.9795-3.5-.6597-4.0656-.614-4.0758 5.3063-1.1836 5.1398,2.5109 6.3286,6.0069 3.507,10.3133-1.8712,2.8558-4.9996,2.6486-11.7713-.7793-3.915-1.9818-5.7357-.4964-5.7357,4.6796 0,.7698-.8449,1.8519-1.8776,2.4046-3.5066,1.8767-3.3263,6.1604.4016,9.542 3.8631,3.5042 6.476,12.3351 6.476,21.8871 0,3.1547.6478,6.9885 1.4396,8.5197 2.6106,5.0484 1.7842,10.9348-2.0593,14.6673-1.9181,1.8627-3.3862,4.292-3.3939,5.6161-.0263,4.4933-1.2419,6.8282-4.6521,8.9358-3.1869,1.9696-3.3224,2.2532-1.852,3.8779 1.4878,1.644 1.2631,1.7958-3.6158,2.443-8.8204,1.1701-12.2129,3.0498-11.4084,6.3215 1.4344,5.8338 2.9245,6.9359 10.3694,7.6695 6.0599.5971 6.8979.9201 6.4848,2.4998-.3152,1.2054.6223,2.6723 2.794,4.3719 4.627,3.6211.9829,7.2239-10.8967,10.773-2.9847.8917-4.199,1.7626-3.9898,2.8614 .5111,2.6845 4.1944,2.3275 13.1203-1.2717 11.178-4.5073 17.9787-5.8057 15.41-2.9421-.9625,1.073-1.75,2.8582-1.75,3.9672 0,3.3988-3.2901,5.55-7.3293,4.7923-3.4473-.6467-9.6707,1.7662-9.6707,3.7496 0,1.2515 6.4781.9063 7.8-.4156 .9333-.9333 1.2-.9333 1.2,0 0,.66-.4197,1.2-.9326,1.2s-1.2023.7875-1.5318,1.75-3.2676,4.6698-6.529,8.2384c-3.7952,4.1528-5.5836,6.8346-4.9681,7.45 1.6576,1.6576 1.0504,4.3051-1.1174,4.872-1.5461.4043-1.9335.1645-1.5115-.9353 .3816-.9944.1621-1.2284-.6698-.7143-.6805.4206-2.0866.7815-3.1245.8019-3.4891.0688-6.2077,4.984-4.3364,7.8399 .8711,1.3295 1.7272,4.1677 1.9025,6.3072 .3041,3.7113.4796,3.8915 3.8187,3.9219 1.925.0175 4.4.5275 5.5,1.1333s7.625,1.6341 14.5,2.2851 14.7494,1.5609 17.4987,2.022c6.1214,1.0266 6.0703,1.0574 6.9682-4.2001 .745-4.3618 2.2628-3.3036 2.4781,1.7278 .17,3.9721 1.2718,4.5175 6.0861,3.0126 13.5839-4.2463 28.0623-1.9846 21.6045,3.3749-.9908.8223-1.665.8739-2.1055.1611-1.2682-2.052-2.4688-.9896-3.5909,3.1774-.8516,3.1625-.8507,4.6859.003,6.0533 .9382,1.5023.6322,2.4848-1.7206,5.524-7.2166,9.3219-7.4816,10.1926-8.3944,27.5788-.9009,17.1593-2.1055,33.2953-3.8098,51.0353-1.0639,11.0734-.9083,13.0687 3.0472,39.0826 .5854,3.85 1.2028,8.8345 1.3719,11.0767s.7629,4.9422 1.3193,6 1.3269,3.9483 1.7121,6.4233c2.3337,14.9962 3.227,15.9644 14.7472,15.9847 10.6964.0188 24.2459,11.0024 14.5348,11.7824-.6875.0552-6.2,1.9203-12.25,4.1447-13.2251,4.8623-14.133,4.9109-20.3456,1.0883-5.686-3.4987-6.8082-3.6662-7.6111-1.1364-.6489,2.0444-6.3437,3.1118-16.6863,3.1277-6.9425.0107-7.1283-.3499-6.2401-12.1147 .453-6.0012.3054-9.2654-.4608-10.1886-1.3394-1.6142-3.6683-43.821-5.5421-100.4474-1.6762-50.6545-1.3748-50.3461-11.0444-11.3004-6.5775,26.5598-6.5775,26.5598-9.6062,69.5172-2.1705,30.7855-3.4079,43.3945-4.3672,44.5-.7362.8484-1.6501,5.1387-2.0309,9.5341-1.0468,12.083-.9671,12.0386-18.7707,10.4555zm-32.1591-227.0202c-.3494-1.7472-.667-5.2581-.7057-7.8018-.0532-3.5034-.2787-4.14-.9297-2.625-.6175,1.437-.8594.4517-.8594-3.5 0-3.39.2828-4.7801.7372-3.6234 1.1824,3.0098 3.9154-11.984 5.1723-28.3766 .6115-7.975 1.1879-15.4 1.2809-16.5 .2636-3.1193 1.9508-2.3516 2.9023,1.3206 .6381,2.4623 1.753,3.6936 4.3136,4.7634 4.41,1.8426 4.3454,2.4874-.7969,7.9548-3.2685,3.4751-4.2929,5.378-4.4358,8.2399-.1022,2.0467-.349,7.1157-.5485,11.2645-.2401,4.994-.9377,8.3642-2.0642,9.9725-2.1201,3.0268-2.1741,7.1697-.1447,11.0941 2.2261,4.3048 1.5692,10.3009-1.1714,10.692-1.6719.2386-2.2477-.3634-2.75-2.875zm122.069-3.4268c-.869-3.85-1.8771-11.5-2.2401-17s-1.2593-12.7-1.9916-16c-1.2181-5.4888-1.1777-6.1704.4744-8 3.7883-4.1954 3.135-12.5-.9832-12.5-2.0876,0-3.1636-4.1217-1.5435-5.9119 2.0501-2.2653 2.0816-11.8404.0479-14.5292-2.0025-2.6475-2.0323-6.2719-.0379-4.6167 1.6906,1.403 3.5608-1.2728 3.5831-5.1264 .0183-3.1672 4.1475-15.8175 6.0364-18.4934 2.5705-3.6415 2.6152,95.8807.0466,103.6777-1.8119,5.5-1.8119,5.5-3.392-1.5zm-27.5044-134.7c-2.0583-2.0583-1.4555-7.5076 1.0225-9.2433 3.2635-2.2859 5.1292-2.0096 4.432.6564-.341,1.3039.0434,2.9006.9355,3.8864 2.4492,2.7063-3.7927,7.2978-6.39,4.7005z" fill="#5d585f"/>
    <path d="m256.8621,667.7777c-2.8469-.2978-3.75-.8397-3.75-2.2501 0-1.0218-.2543-2.5206-.5652-3.3306-.3136-.8171.7024-2.9682 2.2822-4.8318 6.6407-7.8341 7.8642-13.859 2.8144-13.859-3.3997,0-3.2443-3.4284 2.9458-65 5.7179-56.8741 6.2588-108 1.1426-108-2.1927,0-6.4626-3.4906-5.4763-4.4768 .2555-.2555 2.9153-.0749 5.9105.4013 5.2177.8296 8.9459.0737 8.9459-1.8138 0-.9968-11.0452-8.1106-12.5928-8.1106-1.2886,0-5.0908-7.9777-4.5181-9.4796 .214-.5612.5177-3.0454.6747-5.5203 .1571-2.475 1.672-8.9509 3.3664-14.3909 3.2317-10.3754 3.0452-12.6091-1.0527-12.6091-1.5483,0-1.9087.8329-2.0549,4.75l-.3361,9.0028c-.1827,4.8922-1.4866,7.1168-1.4866,2.5363 0-4.6365-2.2237-5.8121-10.656-5.6336-4.0392.0855-7.344-.1822-7.344-.595 0-1.3187 3.5293-4.0004 6.7359-5.1183 3.8669-1.348 12.4818-11.9422 9.711-11.9422-.3042,0-2.2152,1.1295-4.2467,2.5099-7.5125,5.1049 1.3354-15.2257 10.898-25.0414 5.7722-5.925 5.9958-6.74 1.6517-6.022-10.726,1.7728-22.303.9045-15.9914-1.1994 5.3943-1.7981 20.2414-16.7295 20.2414-20.3563 0-3.3053-8.3836,1.5635-13.8451,8.0405-6.3294,7.5063-13.8787,8.6066-8.8035,1.2831 2.0825-3.0051 2.6486-5.0004 2.6486-9.3366 0-10.207 4.6222-21.8777 8.6647-21.8777 2.4418,0 7.3353,5.5667 7.3353,8.3444 0,1.1729.8747,1.6556 3,1.6556 2.3029,0 3-.451 3-1.941 0-1.0675.426-2.2043.9468-2.5261 1.979-1.2231 7.0535-9.7289 7.0595-11.833 .007-2.2508 5.0015-6.1256 8.0222-6.223 6.2982-.2031 13.9513-17.8303 9.6212-22.1605-.7722-.7722 1.2119-3.3164 2.5862-3.3164 .5995,0 .7553,1.877.3943,4.75-.5968,4.75-.5968,4.75.8713.25 .8074-2.475 1.4898-5.175 1.5165-6 .0614-1.9022 3.8258-6.4895 4.6494-5.6658 .3396.3396.0775,1.2681-.5824,2.0633-.9351,1.1267-.9244,1.8869.0484,3.4447 1.094,1.7517.8538,2.3673-1.9426,4.9796-1.755,1.6394-3.1909,3.9517-3.1909,5.1385s-.45,1.8797-1,1.5398c-1.1356-.7018-1.2273.0506-.3878,3.1808 .3909,1.4575 1.0994,1.9834 2.136,1.5856 1.227-.4708 1.423-.0847.9379,1.8482-.4891,1.9487.0495,2.9722 2.6603,5.0554 3.8027,3.0342 6.6536,12.5777 6.6536,22.2728 0,3.1111.6478,6.9093 1.4396,8.4405 2.6106,5.0484 1.7842,10.9348-2.0593,14.6673-1.9181,1.8627-3.3862,4.292-3.3939,5.6161-.0263,4.4933-1.2419,6.8282-4.6521,8.9358-3.1819,1.9665-3.3205,2.2553-1.8579,3.8715 2.7381,3.0256-10.1695,3.4075-19.0034.5623-1.7403-.5605-2.2-.006-3.25,3.9198-1.6834,6.294-1.5494,7.544.8084,7.544 2.1696,0 2.2761.183 3.9827,6.8425 1.0041,3.9184 1.3508,4.2828 3.5494,3.731 2.6282-.6596 3.1619.3013 1.2366,2.2266-.9333.9333-.9208,1.2.0562,1.2 .6909,0 2.1437-2.0064 3.2285-4.4586 2.5338-5.7281 12.6426-8.0386 11.2105-2.5623-.2947,1.1268.7054,2.659 2.811,4.3068 4.627,3.6211.9829,7.2239-10.8967,10.773-2.9847.8917-4.199,1.7626-3.9898,2.8614 .5111,2.6845 4.1944,2.3275 13.1203-1.2717 11.178-4.5073 17.9787-5.8057 15.41-2.9421-.9625,1.073-1.75,2.8582-1.75,3.9672 0,3.3988-3.2901,5.55-7.3293,4.7923-3.4473-.6467-9.6707,1.7662-9.6707,3.7496 0,1.2515 6.4781.9063 7.8-.4156 .9333-.9333 1.2-.9333 1.2,0 0,.66-.4197,1.2-.9326,1.2s-1.2023.7875-1.5318,1.75-3.2676,4.6698-6.529,8.2384c-3.7952,4.1528-5.5836,6.8346-4.9681,7.45 1.6576,1.6576 1.0504,4.3051-1.1174,4.872-1.5461.4043-1.9335.1645-1.5115-.9353 .3816-.9944.1621-1.2284-.6698-.7143-.6805.4206-2.0866.7815-3.1245.8019-3.4891.0688-6.2077,4.984-4.3364,7.8399 .8711,1.3295 1.7272,4.1677 1.9025,6.3072 .3041,3.7113.4796,3.8915 3.8187,3.9219 1.925.0175 4.4.5196 5.5,1.1158s7.175,1.612 13.5,2.2575 13.8625,1.4132 16.75,1.7062 5.25.9503 5.25,1.4607c0,1.5474 3.0208,1.0376 3.6557-.617 .4991-1.3008.8194-1.2217 2.0253.5 1.7094,2.4405 3.1941,2.5982 4.7269.5019 .6322-.8647 3.7586-1.9338 7.1102-2.4314 3.29-.4885 7.4126-1.194 9.1612-1.5677 3.1794-.6794 3.1794-.6794 1.2124,3.2963-1.1701,2.365-2.0858,6.5626-2.2603,10.3609-.2485,5.411-.8462,7.2105-3.918,11.795-4.504,6.722-4.366,5.9271-5.7427,33.0901-.6272,12.375-1.7772,26.4377-2.5556,31.2504-2.5293,15.639-.0356,48.5518 5.0952,67.2496 5.6799,20.6988 5.3541,23.1365-2.4572,18.3862-3.7769-2.2969-5.9193-2.3986-6.7174-.3189-1.0327,2.6912 1.3354,3.7586 7.8731,3.5484 5.2937-.1702 6.8162.1855 9.6033,2.2436 3.5795,2.6432 2.9037,4.1095-1.3966,3.0302-2.036-.511-2.5644-.3389-2.2083.7194 .2575.7651 1.3286,1.439 2.3804,1.4974s2.716.4504 3.6984.8708 4.2575.5596 7.2782.3091c3.7401-.3102 5.3238-.1095 4.9646.6292-.2902.5965-.7972,1.841-1.1268,2.7655-1.8784,5.2693-15.2348,6.942-23.2249,2.9086-6.2014-3.1305-6.2014-3.1305-7.2857-.7508-.9963,2.1866-1.8611,2.4343-10.659,3.0527-11.5171.8096-11.2616,1.0618-10.5198-10.3879 .3544-5.4705.1532-9.3855-.55-10.6994-1.2518-2.3391-4.7488-68.1647-5.6474-106.3041-1.1658-49.4828-2.0234-49.8867-12.9814-6.1142-7.0289,28.0775-6.4376,23.2727-11.0882,90.1012-1.2592,18.0953-1.8921,22.8486-3.2404,24.3385-1.1765,1.3-1.7799,4.1333-2.0261,9.513-.4793,10.4753-3.1575,11.5536-23.4293,9.4331zm14.4728-4.2715c-.1525-1.375-.2646-3.5784-.2491-4.8964 .0896-7.6295-8.3895-7.1034-11.5176.7147-2.0086,5.0199-1.4633,5.8915 4.0439,6.4637 7.1261.7403 8.0283.4737 7.7228-2.2819zm12.7421-227.9343c2.3464-4.3842 1.302-13.0657-1.5718-13.0657-1.7571,0-2.4408.4332-2.0971,1.3287 .5227,1.3622-.6187,8.7901-1.8318,11.9213-.9937,2.5647 4.1213,2.3933 5.5008-.1843zm16.1814-114.1484c-1.1771-.9531-3.0828-1.461-4.4801-1.1939-2.7602.5276-4.6186-1.4208-2.2295-2.3375 .8599-.33 1.5634-1.2442 1.5634-2.0316 0-.8208-1.7068.2581-4,2.5286-3.5465,3.5113-5.5427,7.1886-3.074,5.6628 .5093-.3148 2.8718.0706 5.25.8562 7.0817,2.3396 8.2867,2.362 8.6714.1613 .1967-1.1252-.5412-2.7068-1.7011-3.646zm-65.7748,136.7675c-2.9754-6.0668-2.6762-9.0099.8647-8.505 2.6608.3794 4.472,3.8015 4.9259,9.3073 .5281,6.4053-2.4585,5.9915-5.7906-.8024zm-3.7361-15.758c-.3494-1.7472-.667-5.2581-.7057-7.8018-.0532-3.5034-.2787-4.14-.9297-2.625-.6175,1.437-.8594.4517-.8594-3.5 0-3.39.2828-4.7801.7372-3.6234 1.1824,3.0098 3.9154-11.984 5.1723-28.3766 .6115-7.975 1.1879-15.4 1.2809-16.5 .2636-3.1193 1.9508-2.3516 2.9023,1.3206 .6381,2.4623 1.753,3.6936 4.3136,4.7634 4.41,1.8426 4.3454,2.4874-.7969,7.9548-3.2685,3.4751-4.2929,5.378-4.4358,8.2399-.1022,2.0467-.349,7.1157-.5485,11.2645-.2401,4.994-.9377,8.3642-2.0642,9.9725-2.1201,3.0268-2.1741,7.1697-.1447,11.0941 2.2261,4.3048 1.5692,10.3009-1.1714,10.692-1.6719.2386-2.2477-.3634-2.75-2.875zm122.0772-3.4268c-.8646-3.85-1.8584-11.275-2.2085-16.5-.5886-8.7839-2.0587-18.6758-3.2285-21.7243-.2692-.7016.2178-1.2757 1.0823-1.2757 4.2504,0 5.1019-13.2217.89-13.8198-3.2695-.4643-4.8462-3.8615-2.8275-6.0921 2.0501-2.2653 2.0816-11.8404.0479-14.5292-2.0025-2.6475-2.0323-6.2719-.0379-4.6167 1.6906,1.403 3.5608-1.2728 3.5831-5.1264 .0183-3.1672 4.1475-15.8175 6.0364-18.4934 2.5705-3.6415 2.6152,95.8807.0466,103.6777-1.8119,5.5-1.8119,5.5-3.3838-1.5zm-52.1921-131.6249c1.4473-6.6522 2.3632-8.1388 4.646-7.5418 4.2632,1.1148 8.0579-.3787 7.5614-2.9761-.5242-2.7423.2974-2.9125 4.2333-.8772 2.9215,1.5107 3.203,4.1627.7718,7.27-.6623.8465-.5967,1.25.2034,1.25 .6498,0 .8871.4764.5273,1.0586-.8247,1.3344-5.7207.3267-10.7281-2.2082-3.9093-1.979-5.7357-.4965-5.7357,4.6557 0,.7567-.4981,1.6837-1.1069,2.06-.7768.4801-.8879-.3226-.3726-2.691zm-6.0205-28.7558c-7.188-3.3008-11.2948-10.8127-14.0061-25.6193-.9064-4.95-2.0365-11.025-2.5114-13.5-1.2231-6.3747-1.2095-31.7418.0174-32.5 .55-.3399 1-1.7994 1-3.2433 0-7.2966 14.5386-24.5815 21.6872-25.7838 2.097-.3527 5.3877-1.1386 7.3128-1.7465 22.4929-7.1024 38.9905,13.5773 42.5002,53.2736 2.1241,24.0251 2.1069,24.2956-1.793,28.2019-1.811,1.814-4.1174,4.6059-5.1253,6.2042-1.8325,2.906-1.8325,2.906-3.0863-.7409-2.116-6.155-4.2508-8.6651-7.3695-8.6651-1.5553,0-4.3286-.5232-6.163-1.1627-2.9911-1.0427-3.4804-.944-4.7422.9564-1.0688,1.6097-2.0766,1.9851-4.1927,1.5619-1.6038-.3207-3.0871-.0695-3.496.5922-1.3486,2.1821-3.5017-.8506-2.8648-4.035 .706-3.5303-1.1829-3.9796-2.0588-.4897-.3345,1.3327-2.1833,4.4866-4.1084,7.0087s-3.5003,5.0842-3.5003,5.6936c0,.6155-.8886.8756-1.999.5852-2.7959-.7311-3.404.8253-1.1641,2.9799 2.4702,2.3762 3.4062,6.5401 2.1895,9.7402-1.1565,3.0418-1.3562,3.0628-6.5264.6887z" fill="#ac1c28"/>
    <path d="m256.8621,667.7777c-2.8469-.2978-3.75-.8397-3.75-2.2501 0-1.0218-.2543-2.5206-.5652-3.3306-.3136-.8171.7024-2.9682 2.2822-4.8318 6.6407-7.8341 7.8642-13.859 2.8144-13.859-3.3997,0-3.2443-3.4284 2.9458-65 5.7179-56.8741 6.2588-108 1.1426-108-2.0959,0-5.6198-2.7023-5.6198-4.3096 0-1.2471 9.5194.5791 12.576,2.4126 7.9573,4.7731 60.6158,10.1667 62.0772,6.3584 .4401-1.1469.8782-1.0342 2.1982.5658 1.5979,1.9368 1.9097,1.9517 10.1486.4869 11.9416-2.1232 12.1726-2.0981 10.9246,1.1844-.5643,1.4841-1.152,5.4216-1.3061,8.75-.233,5.0328-.8904,6.9623-3.905,11.4614-4.504,6.722-4.366,5.9271-5.7427,33.0901-.6272,12.375-1.7772,26.4377-2.5556,31.2504-2.5293,15.639-.0356,48.5518 5.0952,67.2496 5.6799,20.6988 5.3541,23.1365-2.4572,18.3862-3.7769-2.2969-5.9193-2.3986-6.7174-.3189-1.0327,2.6912 1.3354,3.7586 7.8731,3.5484 5.2937-.1702 6.8162.1855 9.6033,2.2436 3.5795,2.6432 2.9037,4.1095-1.3966,3.0302-2.036-.511-2.5644-.3389-2.2083.7194 .2575.7651 1.3286,1.439 2.3804,1.4974s2.716.4504 3.6984.8708 4.2575.5596 7.2782.3091c3.7401-.3102 5.3238-.1095 4.9646.6292-.2902.5965-.7972,1.841-1.1268,2.7655-1.8784,5.2693-15.2348,6.942-23.2249,2.9086-6.2014-3.1305-6.2014-3.1305-7.2857-.7508-.9963,2.1866-1.8611,2.4343-10.659,3.0527-11.5171.8096-11.2616,1.0618-10.5198-10.3879 .3544-5.4705.1532-9.3855-.55-10.6994-1.2518-2.3391-4.7488-68.1647-5.6474-106.3041-1.1658-49.4828-2.0234-49.8867-12.9814-6.1142-7.0289,28.0775-6.4376,23.2727-11.0882,90.1012-1.2592,18.0953-1.8921,22.8486-3.2404,24.3385-1.1765,1.3-1.7799,4.1333-2.0261,9.513-.4793,10.4753-3.1575,11.5536-23.4293,9.4331zm14.4728-4.2715c-.1525-1.375-.2646-3.5784-.2491-4.8964 .0896-7.6295-8.3895-7.1034-11.5176.7147-2.0086,5.0199-1.4633,5.8915 4.0439,6.4637 7.1261.7403 8.0283.4737 7.7228-2.2819zm-36.8513-205.3152c-2.9754-6.0668-2.6762-9.0099.8647-8.505 2.6608.3794 4.472,3.8015 4.9259,9.3073 .5281,6.4053-2.4585,5.9915-5.7906-.8024zm26.4178-.5915c-3.6377-1.5619-7.8658-8.0406-6.9001-10.5729 .214-.5612.5177-3.0454.6747-5.5203 .1571-2.475 1.672-8.9509 3.3664-14.3909 3.2557-10.4525 3.0534-12.6091-1.1827-12.6091-1.8363,0-1.942-.4054-1.2388-4.75 .4228-2.6125.8956-8.0468 1.0506-12.0763 .2735-7.1079 9.1214-20.4995 12.796-19.3671 1.7175.5293 3.6447-2.1265 3.6447-5.0226 0-2.1302-.5661-3.1192-2-3.4942-2.7104-.7088-2.5212-3.3445.6874-9.573 1.4781-2.8692 3.6374-8.3668 4.7986-12.2168 2.0015-6.6361 7.7492-18.8719 10.719-22.8186 1.2816-1.7032 1.6516-1.72 5.8317-.2646 2.4548.8547 5.3087,1.5606 6.3421,1.5686 4.1719.0323-4.8513,38.7073-11.6359,49.8738-1.1226,1.8476-2.0028,4.7059-1.956,6.3519 .0892,3.1391-1.8443,3.4495-8.3139,1.3348-1.7427-.5696-2.1985-.0212-3.25,3.9101-1.6834,6.294-1.5494,7.544.8084,7.544 2.1696,0 2.2761.183 3.9827,6.8425 1.0041,3.9184 1.3508,4.2828 3.5494,3.731 1.3401-.3363 2.4366-.243 2.4366.2075 0,1.5422-2.3993,3.2191-4.606,3.2191-4.0521,0-6.0284,8.3558-2.6119,11.0433 5.2336,4.1167 2.7495,15.6295-3.4833,16.1435-4.3268.3568-6.3458,4.5258-7.7805,16.0651-.8463,6.8072-.949,6.8939-5.7291,4.8415zm49.4294-155.4057c-2.4988-1.4146-1.9946-2.6876 1.0646-2.6876 1.5407,0 1.8496-.5247 1.472-2.5-.5517-2.8862.2317-3.0752 4.2124-1.0167 2.4716,1.2781 2.7668,1.8659 2.1344,4.25-.851,3.2082-5.0405,4.1299-8.8834,1.9543zm-15.7186-23.5683c-7.188-3.3008-11.2948-10.8127-14.0061-25.6193-.9064-4.95-2.0365-11.025-2.5114-13.5-1.2231-6.3747-1.2095-31.7418.0174-32.5 .55-.3399 1-1.7994 1-3.2433 0-7.2966 14.5386-24.5815 21.6872-25.7838 2.097-.3527 5.3877-1.1386 7.3128-1.7465 22.4929-7.1024 38.9905,13.5773 42.5002,53.2736 2.1241,24.0251 2.1069,24.2956-1.793,28.2019-1.811,1.814-4.1174,4.6059-5.1253,6.2042-1.8325,2.906-1.8325,2.906-3.0863-.7409-2.116-6.155-4.2508-8.6651-7.3695-8.6651-1.5553,0-4.3286-.5232-6.163-1.1627-2.9911-1.0427-3.4804-.944-4.7422.9564-1.0688,1.6097-2.0766,1.9851-4.1927,1.5619-1.6038-.3207-3.0871-.0695-3.496.5922-1.3486,2.1821-3.5017-.8506-2.8648-4.035 .706-3.5303-1.1829-3.9796-2.0588-.4897-.3345,1.3327-2.1833,4.4866-4.1084,7.0087s-3.5003,5.0842-3.5003,5.6936c0,.6155-.8886.8756-1.999.5852-2.7959-.7311-3.404.8253-1.1641,2.9799 2.4702,2.3762 3.4062,6.5401 2.1895,9.7402-1.1565,3.0418-1.3562,3.0628-6.5264.6887z" fill="#191c21"/>
   </g>
  </g>
 </g>
</svg>
