<?xml version="1.0" encoding="UTF-8"?>
<svg version="1.1" viewBox="0 0 137.13303 128.0097" xmlns="http://www.w3.org/2000/svg" xmlns:xlink="http://www.w3.org/1999/xlink">
 <defs>
  <filter id="w">
   <feGaussianBlur stdDeviation="2.4615"/>
  </filter>
  <filter id="x" x="-.15187" y="-.16036" width="1.3037" height="1.3207">
   <feGaussianBlur stdDeviation="1.283"/>
  </filter>
  <linearGradient id="b">
   <stop stop-color="#a5a5a5" offset="0"/>
   <stop offset="1"/>
  </linearGradient>
  <linearGradient id="ae" x1="104.81" x2="108.95" gradientUnits="userSpaceOnUse">
   <stop stop-color="#ffb142" offset="0"/>
   <stop stop-color="#c87600" offset="1"/>
  </linearGradient>
  <radialGradient id="an" cx="414.68" cy="-8.8805" r="123.55" gradientTransform="matrix(-1.8232e-6 .27968 -.60927 0 102.54 -41.049)" gradientUnits="userSpaceOnUse">
   <stop stop-color="#ffb142" offset="0"/>
   <stop stop-color="#ffb141" offset=".8868"/>
   <stop stop-color="#c87600" offset="1"/>
  </radialGradient>
  <radialGradient id="af" cx="488.95" cy="582.85" r="167.56" gradientTransform="matrix(0 -.46285 .41458 -1.2039e-6 -147.94 242.41)" gradientUnits="userSpaceOnUse" xlink:href="#b"/>
  <radialGradient id="ah" cx="441.42" cy="734.65" r="59.255" gradientTransform="matrix(-1.6166 1.6104 -3.9228 -3.938 4772.7 2356.6)" gradientUnits="userSpaceOnUse" xlink:href="#b"/>
  <radialGradient id="ag" cx="296.64" cy="689.45" r="59.255" gradientTransform="matrix(1.4619 -1.752 -4.0043 -3.3413 3754.9 3020.1)" gradientUnits="userSpaceOnUse" xlink:href="#b"/>
  <radialGradient id="ai" cx="505.31" cy="340.96" r="17.922" gradientTransform="matrix(4.678,-1.2535,1.066,3.9785,-2624.1,-578.83)" gradientUnits="userSpaceOnUse" xlink:href="#a"/>
  <linearGradient id="a">
   <stop stop-opacity="0" offset="0"/>
   <stop stop-opacity="0" offset=".6"/>
   <stop offset="1"/>
  </linearGradient>
  <radialGradient id="aj" cx="499.62" cy="357.75" r="13.047" gradientTransform="matrix(7.0129 -.55582 1.711 21.589 -4040.8 -7234.9)" gradientUnits="userSpaceOnUse" xlink:href="#a"/>
  <radialGradient id="ak" cx="507.58" cy="332.63" r="17.922" gradientTransform="matrix(5.7514,-1.5411,1.066,3.9785,-3169,-432.83)" gradientUnits="userSpaceOnUse" xlink:href="#a"/>
  <radialGradient id="al" cx="504.93" cy="332.63" r="17.922" gradientTransform="matrix(-3.5987e-6,-5.9543,3.7887,0,-1155.4,3130.6)" gradientUnits="userSpaceOnUse" xlink:href="#a"/>
  <radialGradient id="am" cx="508.93" cy="327.4" r="17.922" gradientTransform="matrix(2.153,-4.4202,4.8799,2.3769,-2608.7,1574)" gradientUnits="userSpaceOnUse" xlink:href="#a"/>
  <linearGradient id="y" x1="433.47" x2="611.57" y1="377.49" y2="377.49" gradientTransform="matrix(2.5273,0,0,2.6518,-1369.9,-752.89)" gradientUnits="userSpaceOnUse">
   <stop stop-color="#fff" offset="0"/>
   <stop stop-color="#fff" stop-opacity="0" offset="1"/>
  </linearGradient>
  <linearGradient id="z" x1="573.28" x2="573.28" y1="-2.6484" y2="541.65" gradientTransform="matrix(2.5273,0,0,2.6518,-1369.9,-752.89)" gradientUnits="userSpaceOnUse">
   <stop stop-color="#fff" offset="0"/>
   <stop stop-color="#fff" stop-opacity="0" offset="1"/>
  </linearGradient>
  <radialGradient id="ao" cx="506.72" cy="326.56" r="17.922" gradientTransform="matrix(0,-2.6268,3.5592,2.0394e-6,-1051.6,1462.1)" gradientUnits="userSpaceOnUse" xlink:href="#a"/>
  <linearGradient id="aa" x1="502.02" x2="504.57" y1="353.45" y2="323.71" gradientTransform="matrix(2.6518,0,0,2.6518,-1236,-752.89)" gradientUnits="userSpaceOnUse">
   <stop stop-opacity=".67843" offset="0"/>
   <stop stop-opacity=".32941" offset=".57"/>
   <stop stop-opacity="0" offset="1"/>
  </linearGradient>
  <radialGradient id="ap" cx="521.02" cy="324.51" r="17.922" gradientTransform="matrix(0,-2.5516,3.4575,1.9811e-6,-1017,1426)" gradientUnits="userSpaceOnUse" xlink:href="#a"/>
  <linearGradient id="ab" x1="150.68" x2="89.969" y1="86.085" y2="86.085" gradientUnits="userSpaceOnUse" spreadMethod="reflect">
   <stop stop-color="#fff" offset="0"/>
   <stop stop-color="#bf9e15" offset="0"/>
   <stop stop-color="#fae79f" offset="1"/>
  </linearGradient>
  <linearGradient id="ac" x1="145.78" x2="92.919" y1="30.622" y2="64.319" gradientTransform="translate(0 .063134)" gradientUnits="userSpaceOnUse">
   <stop stop-color="#bf9e15" stop-opacity=".66372" offset="0"/>
   <stop stop-color="#fae79f" stop-opacity=".87611" offset="1"/>
  </linearGradient>
  <linearGradient id="ad" x1="659.43" x2="575.84" y1="530.43" y2="444.69" gradientTransform="matrix(2.6518,0,0,2.6518,-1444.2,-743.24)" gradientUnits="userSpaceOnUse">
   <stop stop-color="#fff" offset="0"/>
   <stop stop-color="#fff" stop-opacity="0" offset="1"/>
  </linearGradient>
 </defs>
 <g transform="translate(-27.87 -29.448)">
  <path d="m97.071 137.76c-15.039 1.5482-32.289 13.718-25.433 16.372s26.755 3.761 30.515 0.66464c1.932-1.5911 5.3888-5.5758 5.7961-9.3149 0.40794 3.7387 3.8545 7.7239 5.7864 9.3149 3.7598 3.0963 23.669 1.9894 30.525-0.66464s-10.393-14.824-25.433-16.372c-7.7443 0.74644-10.53 3.3485-10.879 6.3337-0.34898-2.9852-3.1345-5.5873-10.879-6.3337z" fill="url(#an)" fill-rule="evenodd" stroke="#000" stroke-width="1.5639"/>
  <path d="m97.073 137.77c-7.3817 0.75987-15.289 4.0786-20.624 7.575 8.0798 3.7367 17.959 6.0395 28.668 6.3044 1.3722-1.8055 2.6015-4.0192 2.8345-6.1578 0.23115 2.1185 1.4316 4.3126 2.7857 6.1089 10.533-0.44597 20.207-2.8606 28.081-6.666-5.3157-3.3439-12.893-6.4342-19.988-7.1645-7.7443 0.74644-10.53 3.3485-10.879 6.3337-0.34898-2.9852-3.1345-5.5873-10.879-6.3337z" fill-opacity=".3137" fill-rule="evenodd"/>
  <g transform="translate(.81325 -1.7883)" stroke="#000" stroke-linecap="round" stroke-width="1.5639">
   <path d="m158.17 96.049a51.785 51.785 0 0 1 -103.57 0 51.785 51.785 0 1 1 103.57 0z" fill="url(#af)"/>
   <path d="m131.98 121.94a25.105 25.105 0 1 1 -50.209 0 25.105 25.105 0 1 1 50.209 0z" fill="#fff"/>
   <path d="m95.749 61.59c-7.1734 0-13 6.7041-13 14.964s5.8263 14.964 13 14.964c4.2156 0 7.9566-2.3178 10.331-5.9036 2.3746 3.5884 6.1237 5.9036 10.341 5.9036 7.1734 0 13-6.7041 13-14.964s-5.8263-14.964-13-14.964c-4.2169 0-7.9665 2.3159-10.341 5.9036-2.3749-3.585-6.1163-5.9036-10.331-5.9036z" fill="#fff"/>
   <path d="m103.81 79.191a3.2488 3.2488 0 1 1 -6.4977 0 3.2488 3.2488 0 1 1 6.4977 0z"/>
   <path d="m115.44 79.191a3.2488 3.2488 0 0 1 -6.4977 0 3.2488 3.2488 0 1 1 6.4977 0z"/>
  </g>
  <g transform="translate(.81325 -1.7883)" fill-rule="evenodd">
   <path d="m106.7 87.4c-4.5287 0-9.4512 4.1243-9.2543 6.7292s8.0729 13.458 9.845 13.458 8.6636-10.636 8.4667-13.675-6.1039-6.7292-9.0574-6.5121z" fill-opacity=".3137"/>
   <path d="m105.99 84.791c-4.5287 0-9.4512 3.7411-9.2543 6.1039s8.0729 12.208 9.845 12.208 8.6636-9.6481 8.4667-12.405-6.1039-6.1039-9.0574-5.907z" fill="url(#ae)" stroke="#000" stroke-width="1.5639"/>
  </g>
  <path d="m65.065 108.79c-0.26219 0.0504-0.4365 0.10861-0.47536 0.17621-0.13224 0.22778 1.9869 0.41319 3.3607 0.65561 0.70056 0.12361 1.4362 0.238 2.1879 0.34345 0.09955-0.42519 0.19992-0.8438 0.30551-1.2564l-2.4912-0.10598c-0.57968-0.024-2.1 0.0407-2.8876 0.18712zm-1.6265 7.8288c-0.05447 0.0104-0.08005 0.029-0.07311 0.0612 0.06416 0.30558 2.3487 1.1685 3.0937 1.3765l2.2421 0.62537c0.04226-0.42411 0.08773-0.83673 0.13659-1.2522-0.70667-0.12337-1.3967-0.24544-2.0644-0.33888-1.2089-0.16908-2.9546-0.55087-3.3348-0.47195z" fill-opacity=".3137"/>
  <g transform="matrix(.41878 -.083 .09666 .3596 94.547 -125.53)">
   <path transform="translate(429.74 389.47)" d="m-483.31 115.64c-20.027-0.0411-87.175-27.39-83.085-73.893-1.6652-17.201 74.523-21.082 101.71-2.7237 36.752 18.541 53.978 54.489 50.319 68.485-19.501 36.187-41.984 17.458-68.943 8.1317z" fill="#a40" stroke="#321605" stroke-width="3.9"/>
   <path transform="matrix(.88847 0 0 .88847 -3.1569 49.647)" d="m-32.942 429.21c-12.03 5.8239-8.3825 13.244-3.8492 17.469 6.4942 3.7437 11.863 1.4866 15.989-7.4023-0.63992-3.5781 0.42628-9.9881-12.14-10.067z" fill="#6f2d00" filter="url(#x)"/>
   <path d="m-37.726 425.65c-12.03 5.8239-8.3825 13.244-3.8492 17.469 6.4942 3.7437 11.863 1.4866 15.989-7.4023-0.63992-3.5781 0.42627-9.9881-12.14-10.067z" fill="#a40" stroke="#4a2108" stroke-width="3.9"/>
   <path transform="translate(429.74 389.47)" d="m-557.2 63.667c26.245 17.416 50.875 32.958 76.368 29.345 30.96 22.33 44.141 11.413 61.165 1.0607-1.6706 13.052 1.1464 43.137-57.983 21.213-69.138-20.589-66.451-35.477-79.55-51.619z" fill="#833400" filter="url(#w)"/>
  </g>
 </g>
 <g transform="matrix(.12051 -.027293 .027293 .12051 86.364 46.154)">
  <path d="m104.95 226.39c-42.321 0-77.931 32.181-76.693 71.831l7.5072 240.4c0.59536 19.065 31.036 34.55 69.186 34.55s68.505-15.485 69.101-34.55l7.5072-240.4c1.2382-39.65-34.287-71.831-76.608-71.831z" fill="#008080"/>
  <g transform="matrix(1.0957,0,0,1.0558,-61.096,75.468)">
   <path d="m114.55 45.628c22.231 24.955 61.68 21.227 72.125-1.4142l15.556-77.782-101.58-1.3766 13.898 80.573z" fill-rule="evenodd"/>
   <path d="m151.54-62.324c28.146-4.5e-5 50.978 11.663 50.978 26.126 4e-5 14.463-22.832 26.266-50.978 26.266-28.146 4.48e-5 -50.978-11.803-50.978-26.266s22.832-26.126 50.978-26.126z"/>
  </g>
  <path transform="matrix(4.0626,0,0,4.0118,-2227.1,-1366.2)" d="m573.91 361.69c-3.6006-1e-5 -6.8833 0.70238-9.4707 1.9961s-4.8125 3.4069-4.8125 6.3496v5c1e-5 2.5148 1.6301 4.3884 3.7363 5.7051-0.304 4.6602-0.51758 9.633-0.51758 14.982 0 0.84474 0.0229 1.6156 0.041 2.4043-6.3177 3.5371-10.773 9.923-10.539 17.42l1.875 60.094c0.11364 3.64 2.9009 6.3981 6.4473 8.1777 3.5463 1.7796 8.1481 2.7812 13.24 2.7812 5.0921 0 9.6939-1.0016 13.24-2.7812 3.5463-1.7796 6.3336-4.5377 6.4473-8.1777l1.875-60.094c0.2342-7.499-4.2241-13.884-10.539-17.42 0.0181-0.78854 0.041-1.5594 0.041-2.4043 3e-5 -5.4097-0.21444-10.449-0.52343-15.15 2.0429-1.307 3.7422-3.0668 3.7422-5.5371v-5c-1e-5 -2.9427-2.2251-5.0559-4.8125-6.3496s-5.8702-1.9961-9.4707-1.9961z"/>
  <path d="m104.95 92.625c-26.201 0-47.567 10.683-47.567 23.784v20.054c-4.2e-5 6.8503 5.8448 12.995 15.165 17.32-1.4447 19.905-2.2375 42.007-2.2375 65.383 0 5.0058 0.09319 9.9488 0.16574 14.834-25.444 11.79-43.058 36.101-42.18 64.223l7.4582 240.4c0.59531 19.066 31.046 34.556 69.195 34.556 38.15 0 68.517-15.491 69.113-34.556l7.4582-240.4c0.8785-28.13-16.751-52.437-42.18-64.223 0.0721-4.8848 0.16578-9.8278 0.16578-14.834 0-23.375-0.80161-45.479-2.2375-65.383 0.40715-0.18941 0.84945-0.38381 1.243-0.58012 8.5959-4.2875 13.922-10.189 13.922-16.74v-20.054c-5e-5 -13.101-21.283-23.784-47.484-23.784z" fill="#32a3a3"/>
  <path d="m104.95 226.39c-42.321 0-77.931 32.181-76.693 71.831l7.5072 240.4c0.59536 19.065 31.036 34.55 69.186 34.55s68.505-15.485 69.101-34.55l7.5072-240.4c1.2382-39.65-34.287-71.831-76.608-71.831z" fill="#008080"/>
  <path d="m29.17 348.65 5.6139 186.7c0.40576 13.446 10.326 23.666 22.989 30.24s29.144 10.254 47.325 10.254c18.182-5e-5 34.635-3.6795 47.297-10.254 12.663-6.574 22.583-16.793 22.989-30.24l5.5578-183.6c-7.1905 14.118-38.21 24.756-75.311 24.756-39.771 0-72.524-12.221-76.462-27.854z" fill="#88232d"/>
  <ellipse transform="matrix(.91474 0 0 .67222 -354.6 86.065)" cx="502.05" cy="390.99" rx="83.439" ry="54.447" fill="#8a4e49"/>
  <path d="m104.95 92.624c-26.201 0-47.566 10.686-47.566 23.786v20.054c-6e-5 13.101 21.366 23.7 47.567 23.7s47.484-10.6 47.484-23.7v-20.054c-5e-5 -13.1-21.283-23.783-47.484-23.783zm0 3.8948c17.157-5.9e-5 31.076 6.9178 31.076 15.496 3e-5 8.5787-13.918 15.579-31.076 15.579-17.157 0-31.076-7.0006-31.076-15.579 0-8.5788 13.918-15.496 31.076-15.496z" fill="url(#ai)"/>
  <path d="m72.549 153.7c-1.4484 19.926-2.2375 42.059-2.2375 65.466 0 5.0057 0.09322 9.9488 0.16575 14.833 10.429-4.8324 22.17-7.6239 34.473-7.6239 12.295 0 23.977 2.7975 34.391 7.6239 0.072-4.8847 0.16574-9.8278 0.16574-14.833-2e-5 -23.375-0.80158-45.479-2.2374-65.383-8.4723 3.9351-19.823 6.3809-32.319 6.3809-12.532 0-23.897-2.5081-32.402-6.4638z" fill="url(#aj)"/>
  <path d="m104.95 92.624c-26.201 0-47.566 10.686-47.566 23.786v20.054c-6e-5 13.101 21.366 23.7 47.567 23.7s47.484-10.6 47.484-23.7v-20.054c-5e-5 -13.1-21.283-23.783-47.484-23.783zm0 3.8948c17.157-5.9e-5 31.076 6.9178 31.076 15.496 3e-5 8.5787-13.918 15.579-31.076 15.579-17.157 0-31.076-7.0006-31.076-15.579 0-8.5788 13.918-15.496 31.076-15.496z" fill="url(#ak)"/>
  <path d="m104.95 92.624c-26.201 0-47.566 10.686-47.566 23.786v20.054c-6e-5 13.101 21.366 23.7 47.567 23.7s47.484-10.6 47.484-23.7v-20.054c-5e-5 -13.1-21.283-23.783-47.484-23.783zm0 3.8948c17.157-5.9e-5 31.076 6.9178 31.076 15.496 3e-5 8.5787-13.918 15.579-31.076 15.579-17.157 0-31.076-7.0006-31.076-15.579 0-8.5788 13.918-15.496 31.076-15.496z" fill="url(#al)"/>
  <path d="m104.95 92.624c-26.201 0-47.566 10.686-47.566 23.786v20.054c-6e-5 13.101 21.366 23.7 47.567 23.7s47.484-10.6 47.484-23.7v-20.054c-5e-5 -13.1-21.283-23.783-47.484-23.783zm0 3.8948c17.157-5.9e-5 31.076 6.9178 31.076 15.496 3e-5 8.5787-13.918 15.579-31.076 15.579-17.157 0-31.076-7.0006-31.076-15.579 0-8.5788 13.918-15.496 31.076-15.496z" fill="url(#am)"/>
  <path d="m57.881 113.26c-0.13822 0.57922-0.24721 1.1554-0.33148 1.7422-0.08786 0.61168-0.16573 1.2681-0.16573 1.8938v17.573c-6e-5 11.975 21.366 21.664 47.567 21.664 26.201 5e-5 47.484-9.689 47.484-21.664v-17.573c0-0.62563-0.0778-1.2821-0.16573-1.8938-0.0844-0.58674-0.19374-1.1629-0.33148-1.7422-3.2234 13.115-23.029 23.179-46.987 23.179-23.967 0-43.845-10.07-47.079-23.18z" fill="#008080"/>
  <path d="m72.549 153.7c-1.4484 19.926-2.2375 42.059-2.2375 65.466 0 5.0057 0.09322 9.9488 0.16575 14.833 10.429-4.8324 22.17-7.6239 34.473-7.6239 12.295 0 23.977 2.7975 34.391 7.6239 0.072-4.8847 0.16574-9.8278 0.16574-14.833-2e-5 -23.375-0.80158-45.479-2.2374-65.383-8.4723 3.9351-19.823 6.3809-32.319 6.3809-12.532 0-23.897-2.5081-32.402-6.4638z" fill="#008080"/>
  <path d="m89.087 157.43c-1.3886 18.963-2.1325 39.753-2.1325 61.737 2.6e-5 5.0057 2.21e-4 9.9488 0.07897 14.833-27.632 11.79-46.761 36.1-45.808 64.223l7.0291 193.17c12.261 5.8672 29.448 10.318 49.441 12.43l-6.081-205.6c-0.624-22.72 9.436-43.02 25.116-56.18l-2.2904-81.957c-1.3697 0.0655-2.7838 0.0829-4.1859 0.0829-7.6488 0-14.835-0.97835-21.166-2.7346z" fill="url(#y)"/>
  <path d="m85.928 156.43c-0.98918 19.223-1.5006 40.369-1.5006 62.732 3.4e-5 5.0057 0.02491 9.9488 0.07898 14.833-18.977 11.79-32.089 36.1-31.433 64.223l4.8177 246.2c8.4208 5.8672 20.23 10.318 33.961 12.43l-4.187-258.63c-0.428-22.72 6.452-43.02 17.215-56.18l-1.5796-82.206c-6.3046-0.51036-12.204-1.673-17.375-3.3976z" fill="url(#z)"/>
  <path d="m104.95 96.519c17.157-5.9e-5 31.076 6.9178 31.076 15.496 3e-5 8.5787-13.918 15.579-31.076 15.579-17.157 0-31.076-7.0006-31.076-15.579 0-8.5788 13.918-15.496 31.076-15.496z" fill="url(#ao)"/>
  <path d="m104.95 96.519c17.157-5.9e-5 31.076 6.9178 31.076 15.496 3e-5 8.5787-13.918 15.579-31.076 15.579-17.157 0-31.076-7.0006-31.076-15.579 0-8.5788 13.918-15.496 31.076-15.496z" fill="url(#aa)"/>
  <path d="m104.95 96.519c17.157-5.9e-5 31.076 6.9178 31.076 15.496 3e-5 8.5787-13.918 15.579-31.076 15.579-17.157 0-31.076-7.0006-31.076-15.579 0-8.5788 13.918-15.496 31.076-15.496z" fill="url(#ap)"/>
  <path d="m73.76 113.06c13.3 21.893 59.075 19.863 63.276-1.2407l13.64-68.238-89.238-0.723 12.318 70.201z" fill="url(#ab)" fill-rule="evenodd"/>
  <path d="m106.21 18.355c24.693-4e-5 44.723 10.232 44.723 22.921 3e-5 12.689-20.031 23.043-44.723 23.043-24.693 3.9e-5 -44.723-10.355-44.723-23.043 0-12.689 20.031-22.921 44.723-22.921z" fill="#654100"/>
  <path d="m106.21 18.418c24.693-4e-5 44.723 10.232 44.723 22.921 3e-5 12.689-20.031 23.043-44.723 23.043-24.693 3.9e-5 -44.723-10.355-44.723-23.043 0-12.689 20.031-22.921 44.723-22.921z" fill="url(#ac)"/>
  <g display="none">
   <path d="m108.85 236.02c-9.2303 0-18.156 1.5867-26.435 4.3921 0.0163 1.0495-0.0155 2.1017 0 3.149 0.0451 3.1591-1.7732 6.0488-4.6406 7.3754-22.915 10.618-38.392 32.039-37.622 56.682l7.4582 240.4c0.16699 5.3478 5.1522 12.04 16.159 17.568 11.007 5.5283 27.089 9.1984 45.081 9.1984s34.096-3.6723 45.081-9.1984c10.984-5.5262 15.909-12.209 16.077-17.568l7.4582-240.4c0.76982-24.649-14.72-46.067-37.622-56.682-2.8675-1.3265-4.6858-4.2163-4.6407-7.3754 0.0154-1.0475-0.0162-2.0994 0-3.149-8.2522-2.7895-17.149-4.3921-26.352-4.3921z" fill="url(#ad)"/>
  </g>
 </g>
 <g transform="matrix(.7931 0 0 .7931 -39.749 -277.07)" stroke="#000">
  <path d="m80.766 502.39c-10.642 4.6991-20.343-0.89654-23.306-6.9714-4.5778-9.3905-0.09043-17.606 5.8731-22.761l54.508-39.278c8.3162-6.129 16.571-4.6837 22.058 0.24732 7.7829 7.0023 5.6266 21.78-1.1284 26.548l-58.005 42.215z" fill="#fc0" fill-rule="evenodd" stroke-width="4.6373"/>
  <path d="m62.596 474.58c5.8677-6.3624 23.671-2.1409 24.399 6.7488" fill="none" stroke-linecap="round" stroke-width="2.3186"/>
  <path d="m76.872 463.42c5.8654-6.3608 23.673-2.1409 24.399 6.7473" fill="none" stroke-linecap="round" stroke-width="2.3186"/>
  <path d="m89.848 454.08c5.8739-6.3608 23.673-2.1409 24.4 6.7473" fill="none" stroke-linecap="round" stroke-width="2.3186"/>
  <path d="m102.57 444.73c5.8662-6.3608 23.673-2.1409 24.4 6.7472" fill="none" stroke-linecap="round" stroke-width="2.3186"/>
 </g>
 <g transform="matrix(.30494 0 0 .30494 -365.52 -52.13)" fill-rule="evenodd" stroke="#000" stroke-width="5">
  <path d="m1592.6 353.74c-48.111 17.3 14.163 94.143-37.819 161.19-9.6084 12.393 57.868 2.0908 81.723-66.585 23.198-66.786 1.1324-107.54-43.904-94.607z" fill="#fff"/>
  <path d="m1592.6 353.74c-48.111 17.3 42.588 102.12-37.819 161.19-22.626 16.622 57.868 2.0908 81.723-66.585 23.198-66.786 1.1324-107.54-43.904-94.607z" fill="url(#ag)"/>
 </g>
 <g fill-rule="evenodd" stroke="#000" stroke-width="5">
  <path transform="matrix(.28434 -.04406 .0467 .30135 -363.31 8.4353)" d="m1344.6 353.74c48.111 17.3-14.164 94.143 37.819 161.19 9.6084 12.393-57.868 2.0908-81.723-66.585-23.198-66.786-1.1323-107.54 43.904-94.607z" fill="#fff"/>
  <path transform="matrix(.28434 -.04406 .0467 .30135 -363.31 8.4353)" d="m1344.6 353.74c48.111 17.3-42.588 102.12 37.819 161.19 22.626 16.622-57.868 2.0908-81.723-66.585-23.198-66.786-1.1323-107.54 43.904-94.607z" fill="url(#ah)"/>
 </g>
</svg>
