<?xml version="1.0" encoding="UTF-8"?>
<svg enable-background="new 0 0 1920 1265.882" version="1.1" viewBox="0 0 1920 1265.882" xmlns="http://www.w3.org/2000/svg">
 <path d="m0 1089.9c13.048-4.069 26.369-3.565 39.557-1.497 29.504 4.628 59.165 6.887 89 7.574 11.98 0.276 23.95 1.292 35.906 2.219 17.449 1.354 34.939 1.803 52.411 2.596 31.123 1.414 62.257 2.571 93.388 3.811 19.811 0.789 39.625 1.508 59.436 2.306 21.142 0.852 42.282 1.77 63.423 2.644 15.98 0.661 31.963 1.219 47.931 2.188 10.989 0.667 21.82 2.532 32.742 3.681 14.152 1.489 28.268 1.131 42.274-1.417 5.771-1.05 7.219-3.035 6.284-8.608-0.755-4.504 0.133-8.608 1.896-12.613 1.74-3.954 3.704-7.81 5.526-11.729 2.428-5.222 2.323-10.358 0.665-15.959-4.762-16.081-10.265-31.935-14.599-48.147-4.682-17.513-9.255-35.05-11.514-53.074-2.16-17.233-2.826-34.514-0.594-51.805 2.32-17.977 5.149-35.901 6.922-53.931 1.498-15.238 2.017-30.585 1.371-45.931-0.302-7.161-2.801-9.302-9.985-7.981-7.212 1.326-14.455 2.342-21.773 2.829-4.023 0.268-7.968-0.156-11.878-1.096-4.651-1.118-7.531-3.805-8.404-8.675-1.179-6.579-1.773-13.212-1.928-19.869-0.627-26.847 0.975-53.621 2.664-80.399 0.933-14.795 1.997-29.578 3.375-44.332 1.423-15.241 3.496-30.414 5.955-45.525 2.804-17.228 5.868-34.406 9.858-51.412 1.772-7.553 4.658-14.537 9.106-20.883 0.478-0.681 0.851-1.445 1.385-2.076 6.395-7.54 6.562-15.082 1.733-23.85-4.26-7.734-5.091-16.779-6.073-25.553-1.101-9.838 0.709-19.561 1.371-29.315 0.936-13.784 2.347-27.536 3.593-41.299 1.516-16.747 3.085-33.49 4.604-50.237 1.143-12.603 2.25-25.209 3.353-37.816 0.07-0.802 0.104-1.645-0.423-2.359-0.727-0.109-1.204 0.384-1.787 0.684-3.06 1.574-3.809 1.302-4.327-1.911-0.665-4.132-0.405-8.302-0.201-12.47 0.661-13.475 3.99-26.211 9.964-38.328 7.204-14.613 13.186-30.137 23.214-42.91 13.974-17.799 22.176-38.02 29.649-58.873 5.994-16.726 11.839-33.526 18.981-49.808 5.271-12.017 13.474-21.792 24.582-28.848 8.632-5.484 18.269-6.195 27.953-3.858 17.109 4.13 33.322 10.189 46.662 22.428 10.933 10.031 16.056 22.083 14.947 36.916-0.485 6.486-1.348 12.906-2.298 19.325-0.69 4.656-2.129 9.099-4.673 13.059-3.939 6.132-3.945 12.503-1.711 19.144 0.953 2.832 1.884 5.677 2.676 8.556 1.041 3.785 0.218 6.03-3.323 6.175-7.907 0.325-10.901 5.779-14.042 11.605-3.763 6.98-4.233 13.779-0.313 20.88 4.248 7.695 5.418 16.074 4.177 24.685-2.767 19.213-1.252 38.177 2.66 57.071 2.224 10.743 4.195 21.538 6.261 32.313 0.186 0.971 0.709 2.376 0.27 2.886-2.638 3.064 0.03 4.573 1.625 6.443 2.498 2.928 5.424 5.408 8.278 7.965 0.865 0.775 1.755 1.529 2.554 2.369 0.612 0.644 0.823 1.436 0.173 2.224-0.769 0.932-1.507 0.283-2.172-0.126-3.541-2.182-7.073-4.377-10.583-6.609-4.774-3.036-9.506-6.138-14.299-9.143-0.906-0.568-1.862-1.848-3.047-0.974-0.968 0.714-0.961 2.153-0.863 3.257 0.25 2.818 0.945 5.55 2.004 8.203 1.291 3.236 2.463 6.523 3.589 9.821 0.395 1.157 1.45 2.408-0.036 3.615s-2.426-0.172-3.542-0.699c-0.445-0.21-0.849-0.507-1.271-0.765-0.209-1.054-0.52-2.022-1.852-2.221-0.426 1.398 0.586 1.984 1.305 2.714 5.637 11.675 12.06 22.932 18.292 34.29 6.957 12.678 13.916 25.352 21.623 37.607 2.221 3.531 5.182 5.701 9.044 6.449 5.714 1.107 10.517 3.95 15.321 6.975 23.651 14.891 47.042 30.197 71.237 44.216 15.229 8.824 31.855 14.097 48.464 19.451 8.543 2.754 17.109 5.371 25.875 7.398 9.444 2.184 12.219 6.77 10.765 16.322-0.25 1.644-0.367 3.313-0.448 4.976-0.03 0.621 0.218 1.255 0.334 1.858 2.345 0.489 3.473-1.172 4.805-2.33 2.389-2.076 4.639-4.315 7.083-6.321 2.993-2.457 5.392-2.404 7.745 0.503 3.336 4.121 5.219 9.212 8.564 13.378 0.939 1.169 0.824 2.93 0.556 4.378-1.068 5.76-1.105 11.601-1.344 17.408-0.179 4.349-2.143 7.961-3.754 11.744-2.656 6.235-4.116 13.038-8.714 18.368-1.537 1.782-1.318 3.616 0.233 5.376 1.1 1.248 2.047 2.631 3.141 3.885 11.629 13.332 24.166 25.763 37.473 37.408 8.385 7.338 18.021 12.445 28.733 15.563 3.691 1.074 7.145 1.36 10.37-1.238 2.902-2.337 6.542-2.417 9.969-2.758 4.794-0.477 8.066-2.731 10.07-7.028 0.491-1.052 1.107-2.045 1.643-3.077 1.492-2.87 3.816-4.207 6.981-3.342 2.971 0.811 5.155-0.166 7.152-2.269 3.224-3.396 7.077-6.067 10.673-9.032 2.498-2.06 3.975-4.254 2.506-7.762-0.811-1.936-0.907-4.219-1.079-6.365-0.449-5.604 1.213-10.061 6.671-12.732 4.44-2.173 8.677-4.763 13.685-7.547-4.28-2.061-5.623-5.468-6.493-9.245-1.612-6.997-5.527-12.782-10.053-18.169-6.861-8.166-13.945-16.109-21.997-23.175-3.612-3.17-6.65-6.994-9.945-10.525-2.38-2.551-2.512-5.213-0.639-8.168 1.51-2.382 2.809-4.902 4.135-7.396 1.744-3.28 3.182-6.505 0.376-10.085-1.455-1.856-0.156-2.995 1.721-3.616 2.676-0.886 5.548-0.403 8.416-0.94-0.484-2.915-2.639-4.454-3.888-6.526-1.157-1.919-1.237-3.327 1.219-4.246 2.017-0.755 3.996-1.658 5.885-2.691 1.853-1.013 2.612-2.482 1.238-4.529-0.737-1.097-1.366-2.288-1.893-3.501-1.836-4.227-1.009-6.347 3.335-8.134 2.608-1.073 5.329-1.873 7.999-2.795 2.898-1.001 5.616-2.375 7.006-5.246 4.946-10.22 13.946-16.313 22.754-22.614 2.437-1.743 4.918-3.425 7.385-5.126 6.57-4.532 12.184-9.828 14.441-17.856 0.222-0.791 0.615-1.554 1.042-2.263 1.582-2.63 3.007-2.681 4.854-0.173 0.389 0.528 0.688 1.149 0.907 1.77 0.924 2.619 2.547 2.479 4.731 1.514 3.492-1.542 7.056-2.945 10.662-4.198 4.734-1.645 9.365-1.458 14.088 0.583 13.023 5.628 25.226 12.743 37.301 20.101 8.387 5.111 16.692 10.345 24.247 16.687 7.161 6.012 10.525 13.909 11.842 22.909 2.103 14.374-1.886 27.307-9.24 39.473-3.703 6.127-7.626 12.096-11.891 17.854-3.339 4.507-7.42 8.063-12.309 10.745-0.438 0.24-0.875 0.481-1.302 0.739-6.936 4.214-7.369 6.29-2.951 13.076 2.83 4.347 6.074 8.332 9.716 12.021 12.206 12.365 23.12 25.777 32.304 40.542 7.243 11.644 11.945 24.46 16.605 37.26 7.844 21.543 15.328 43.21 20.402 65.617 3.531 15.592 5.608 31.425 7.569 47.269 1.127 9.105 2.735 17.998 6.724 26.429 3.3 6.976 4.527 14.382 3.813 22.305-1.449 16.078-2.621 32.204-3.119 48.334-0.212 6.875 1.013 13.88 3.132 20.609 1.647 5.23 2.912 10.58 4.379 15.868 1.474 5.313-0.048 9.822-3.653 13.766-1.121 1.227-2.19 2.593-3.549 3.494-4.683 3.105-6.079 7.394-4.519 12.561 1.214 4.022 0.28 7.697-1.573 11.033-2.655 4.779-3.811 9.9-4.563 15.175-0.866 6.072-3.081 11.466-7.064 16.213-7.071 8.426-14.406 16.615-21.779 24.773-0.767 0.849-1.454 1.771-2.613 3.193 3.781 0.477 6.139 2.171 7.394 5.352 0.74 1.876 2.66 2.41 4.447 2.84 2.097 0.505 4.244 0.806 6.341 1.31 6.217 1.491 10.349 6.887 9.758 13.213-0.835 8.953-2.12 17.92-5.012 26.414-2.975 8.736-7.497 16.781-16.014 21.53-4.302 2.398-4.548 6.42-4.332 10.382 0.352 6.474 1.149 12.929 1.912 19.375 0.475 4.017 1.402 4.743 5.48 4.835 9.844 0.222 19.63-0.962 29.457-1.241 12.156-0.346 24.298-1.387 36.452-1.508 19.544-0.194 38.855-2.394 58.102-5.516 16.935-2.747 33.818-2.399 50.675 0.803 8.818 1.675 17.717 2.929 26.522 4.663 10.279 2.025 20.339 0.802 30.04-2.399 12.8-4.223 25.943-5.961 39.251-6.562 43.448-1.962 86.911-3.766 130.42-2.87 40.161 0.827 80.32 0.791 120.48 0.335 44.157-0.501 88.29 0.714 132.43 1.621 5.914 0.122 11.895 1.406 17.597-1.281v151h-1920v-176zm987.24 28.566c-2.072-0.959-3.591-0.908-5.078-1.03-9.464-0.776-18.989-0.317-28.437-1.513-8.908-1.128-17.918-1.802-26.115-5.93-16.536-8.329-28.282-21.42-36.488-37.735-5.568-11.07-4.898-21.742 3.279-31.644 3.918-4.744 7.441-9.814 11.475-14.481 4.9-5.671 9.747-11.389 14.548-17.144 2.762-3.311 4.453-6.692 2.604-11.368-8.917-22.552-18.061-45.007-28.147-67.061-5.816-12.717-13.872-24.219-20.424-36.547-4.288-8.068-7.292-16.454-6.319-25.759 1.536-14.678 6.951-28.006 14.719-40.406 4.217-6.731 10.759-9.285 18.43-8.532 8.936 0.878 17.805 2.463 26.746 3.238 5.252 0.455 10.503 2.17 15.861 0.658 3.122-0.881 3.855-1.997 2.713-5.016-0.938-2.482-2.087-4.925-3.799-6.982-10.826-13.004-18.627-27.918-26.893-42.532-5.646-9.982-11.269-19.978-16.174-30.36-2.569-5.439-3.797-11.076-2.316-16.967 2.3-9.151 3.041-18.356 1.986-27.737-0.334-2.973-0.454-5.994-0.37-8.985 0.326-11.71-2.472-22.723-7.169-33.338-0.665-1.503-1.201-3.002-3.004-3.745-3.17-1.306-5.288-3.959-7.51-6.447-6.468-7.242-11.012-15.838-16.683-23.614-4.863-6.668-4.64-12.836-0.837-19.415 1.124-1.944 1.548-3.467 0.225-5.464-1.8-2.717-1.64-5.628-0.234-8.525 0.934-1.925 3.52-1.652 4.652-3.249-2.823-4.38-2.869-4.406-0.052-9.332 0.738-1.291 1.029-2.579 0.332-3.775-4.122-7.071-8.122-14.111-17.238-16.08-10.574-2.285-21.283-3.728-31.902-5.714-17.339-3.243-34.646-6.606-50.879-13.837-14.003-6.238-27.074-14.193-40.136-22.16-5.953-3.631-11.799-7.455-18.211-10.307-3.478-1.547-6.603-1.208-9.215 1.364-7.372 7.259-14.972 14.153-24.207 19.08-3.062 1.634-4.066 4.707-3.279 8.166 0.848 3.725 1.622 7.475 2.668 11.146 6.51 22.847 14.364 45.268 21.669 67.862 14.872 45.998 27.998 92.522 42.066 138.76 4.151 13.645 7.178 27.682 13.663 40.555 0.732 1.454 1.076 3.142 1.387 4.763 1.022 5.338-1.218 8.202-6.691 8.594-3.667 0.263-7.32 0.023-10.969-0.425-9.589-1.176-12.111 1.213-11.533 10.837 0.75 12.478 2.642 24.833 4.676 37.132 2.099 12.692 0.052 23.672-8.241 34.056-7.654 9.584-13.853 20.34-20.589 30.647-9.829 15.039-19.452 30.227-26.859 46.638-16.75 37.107-31.683 74.969-46.716 112.79-1.669 4.198-1.668 8.093 0.085 11.507 4.622 9.002 9.299 18.088 17.521 24.606 9.208 7.301 20.009 11.118 31.139 14.009 8.192 2.128 16.577 3.507 24.849 5.34 2.21 0.49 4.961 0.748 5.552 3.53 0.769 3.622 3.133 3.992 6.224 4.148 12.184 0.616 24.307-0.935 36.471-0.825 10.186 0.092 20.317-0.875 30.359-2.341 19.749-2.884 39.453-2.877 59.227-0.422 23.632 2.934 47.269 5.384 71.189 4.001 12.971-0.75 25.905-1.446 38.794-3.206 13.332-1.822 25.354-6.991 37.605-13.481zm97.307-263.53c-1.289-3.519-3.215-5.615-4.964-7.8-4.987-6.232-9.865-12.562-15.462-18.274-3.49-3.561-5.128-7.605-4.18-12.664 0.727-3.877-0.158-7.524-1.963-11.07-1.437-2.822-2.927-3.705-6.248-2.656-20.242 6.398-40.607 12.404-60.717 19.223-1.023 0.347-2.436 0.184-2.502 1.901 3.874 0.861 7.854 1.298 11.625 2.637 15.32 5.441 30.612 10.963 45.968 16.299 12.491 4.341 24.886 9.002 38.443 12.404zm-442.68-36.835c-3.289 5.218-4.966 10.024-5.888 15.135-2.158 11.958-4.558 23.823-11.062 34.408-2.781 4.526-5.289 9.223-7.834 13.889-5.578 10.229-4.908 20.762-1.363 31.397 0.253 0.76 0.567 1.593 1.775 1.797 2.495-1.583 3.993-4.205 5.476-6.759 7.264-12.507 14.173-25.235 23.836-36.171 1.302-1.473 2.245-3.302 3.163-5.066 1.869-3.591 3.179-7.491 2.703-11.499-1.497-12.608-5.74-24.453-10.806-37.131zm509.64 316.8c8.154 0.569 16.298 1.719 24.452 1.029 4.42-0.374 6.028-3.005 4.526-7.202-1.202-3.36-2.917-4.9-6.724-4.715-11.011 0.534-20.548-3.154-29.233-9.556-1.125-0.829-2.167-1.114-3.639-0.988-7.307 0.623-14.53 1.705-21.661 3.401-8.337 1.984-8.519 3.108-3.695 10.346 3.711 5.569 8.323 8.093 15.011 7.762 6.972-0.345 13.974-0.077 20.963-0.077z"/>
</svg>
