<svg width="943.7375px" height="129.182421875px" xmlns="http://www.w3.org/2000/svg" viewBox="-221.86874999999998 10.408789062500006 943.7375 129.182421875" style="background: rgba(0, 0, 0, 0);" preserveAspectRatio="xMidYMid"><defs><linearGradient id="editing-sticker-gradient" x1="0.5" y1="0.2" x2="0.5" y2="0.8"><stop offset="0" stop-color="#fd9"></stop><stop offset="1" stop-color="#9df"></stop></linearGradient><filter id="editing-sticker" x="-100%" y="-100%" width="300%" height="300%"><feMorphology operator="erode" radius="1" in="SourceAlpha" result="alpha-erode"></feMorphology><feConvolveMatrix order="3,3" divisor="1" kernelMatrix="0 1 0 1 1 1 0 1 0" in="alpha-erode" result="alpha-round"></feConvolveMatrix><feMorphology operator="dilate" radius="3.5" in="alpha-round" result="dilate-shadow"></feMorphology><feGaussianBlur in="dilate-shadow" stdDeviation="1.5" result="shadow"></feGaussianBlur><feFlood flood-color="#fff" result="flood-sticker"></feFlood><feComposite operator="in" in="flood-sticker" in2="alpha-round" result="comp-sticker"></feComposite><feMorphology operator="dilate" radius="3" in="comp-sticker" result="morph-sticker"></feMorphology><feConvolveMatrix order="3,3" divisor="1" kernelMatrix="0 1 0 1 1 1 0 1 0" in="morph-sticker" result="sticker"></feConvolveMatrix><feMerge><feMergeNode in="shadow"></feMergeNode><feMergeNode in="sticker"></feMergeNode><feMergeNode in="SourceGraphic"></feMergeNode></feMerge></filter></defs><g filter="url(#editing-sticker)"><g transform="translate(-87.4218579530716, 106.18312454223633)"><path d="M5.89 5.82L5.89 5.82L5.89 5.82Q0.83 5.82 0.83 2.24L0.83 2.24L0.83 2.24Q0.83-0.06 2.66-3.17L2.66-3.17L2.66-3.17Q4.48-6.27 6.21-8.93L6.21-8.93L6.21-8.93Q7.94-11.58 10.37-15.20L10.37-15.20L10.37-15.20Q12.80-18.82 13.82-20.35L13.82-20.35L13.82-20.35Q20.67-30.14 22.34-33.47L22.34-33.47L22.34-33.47Q20.86-33.60 18.69-33.60L18.69-33.60L18.69-33.60Q11.07-33.60 6.02-30.59L6.02-30.59L6.02-30.59Q2.88-28.74 2.88-25.98L2.88-25.98L2.88-25.98Q2.88-25.09 3.39-24.32L3.39-24.32L3.39-24.32Q3.90-23.55 4.42-23.23L4.42-23.23L4.42-23.23Q5.44-22.59 6.72-21.95L6.72-21.95L6.72-21.95Q7.49-21.38 6.98-21.25L6.98-21.25L6.98-21.25Q6.78-21.25 6.53-21.31L6.53-21.31L6.53-21.31Q5.06-21.63 3.33-23.17L3.33-23.17L3.33-23.17Q1.60-24.70 1.54-26.69L1.54-26.69L1.54-26.69Q1.28-27.33 1.28-27.78L1.28-27.78L1.28-27.78Q1.28-30.53 3.42-32.54L3.42-32.54L3.42-32.54Q5.57-34.56 8.96-35.33L8.96-35.33L8.96-35.33Q13.57-36.35 17.18-36.35L17.18-36.35L17.18-36.35Q20.80-36.35 23.30-35.78L23.30-35.78L23.30-35.78Q23.49-36.74 23.23-37.31L23.23-37.31L23.23-37.31Q22.98-37.89 23.68-38.02L23.68-38.02L23.68-38.02Q23.81-38.08 23.87-38.08L23.87-38.08L23.87-38.08Q24.58-38.08 24.96-37.06L24.96-37.06L24.96-37.06Q25.09-36.35 24.90-35.39L24.90-35.39L24.90-35.39Q26.05-35.07 27.23-34.59L27.23-34.59L27.23-34.59Q28.42-34.11 28.99-33.18L28.99-33.18L28.99-33.18Q29.57-32.26 28.61-32.32L28.61-32.32L28.61-32.32Q28.03-32.32 26.78-32.74L26.78-32.74L26.78-32.74Q25.54-33.15 24.26-33.28L24.26-33.28L24.26-33.28Q22.27-27.52 16.90-19.52L16.90-19.52L16.90-19.52Q5.31-2.43 5.31 2.30L5.31 2.30L5.31 2.30Q5.31 4.42 7.36 4.42L7.36 4.42L7.36 4.42Q10.56 4.42 17.66-0.32L17.66-0.32L17.66-0.32Q28.61-7.94 36.22-18.69L36.22-18.69L36.22-18.69Q36.16-20.48 36.16-23.04L36.16-23.04L36.16-23.04Q36.16-25.60 36.54-28.10L36.54-28.10L36.54-28.10Q36.74-29.44 37.98-30.59L37.98-30.59L37.98-30.59Q39.23-31.74 39.87-31.74L39.87-31.74L39.87-31.74Q40.70-31.74 40.96-30.27L40.96-30.27L41.09-29.12L41.09-29.12Q41.09-28.54 41.09-27.97L41.09-27.97L41.09-27.97Q41.09-23.04 39.17-19.07L39.17-19.07L39.17-19.07Q39.17-18.82 39.17-18.50L39.17-18.50L39.17-18.50Q39.17-11.33 42.34-5.57L42.34-5.57L42.34-5.57Q45.50 0.19 49.66 0.19L49.66 0.19L49.66 0.19Q53.25 0.19 56-3.52L56-3.52L56-3.52Q60.54-9.73 60.54-18.69L60.54-18.69L60.54-18.69Q60.54-26.82 56.96-30.66L56.96-30.66L56.96-30.66Q54.85-32.90 51.90-32.90L51.90-32.90L51.90-32.90Q49.47-32.90 47.74-31.62L47.74-31.62L47.74-31.62Q47.04-31.17 46.72-31.68L46.72-31.68L46.72-31.68Q46.40-32.19 46.78-32.51L46.78-32.51L46.78-32.51Q50.18-35.01 53.25-35.01L53.25-35.01L53.25-35.01Q56.32-35.01 58.30-33.60L58.30-33.60L58.30-33.60Q63.23-30.40 63.23-20.99L63.23-20.99L63.23-20.99Q63.23-16.96 62.08-12.80L62.08-12.80L62.08-12.80Q60.42-6.72 56.51-2.05L56.51-2.05L56.51-2.05Q52.61 2.62 47.94 2.62L47.94 2.62L47.94 2.62Q47.87 2.62 47.81 2.62L47.81 2.62L47.81 2.62Q42.75 2.62 39.39-2.43L39.39-2.43L39.39-2.43Q36.03-7.49 36.03-13.76L36.03-13.76L36.03-13.76Q36.03-14.53 36.10-15.36L36.10-15.36L36.10-15.36Q32.96-11.39 28.19-6.88L28.19-6.88L28.19-6.88Q23.42-2.37 19.26 0.51L19.26 0.51L19.26 0.51Q12.10 5.82 5.89 5.82ZM81.98-18.62L81.98-18.62L81.98-18.62Q85.44-18.62 85.44-15.30L85.44-15.30L85.44-15.30Q85.44-13.57 84.48-12.48L84.48-12.48L84.48-12.48Q82.88-10.11 79.30-8.35L79.30-8.35L79.30-8.35Q75.71-6.59 73.22-6.40L73.22-6.40L73.22-6.40Q72.32-6.34 72.26-6.91L72.26-6.91L72.26-6.91Q72.19-7.17 72.42-7.23L72.42-7.23L72.42-7.23Q72.64-7.30 72.77-7.30L72.77-7.30L72.77-7.30Q74.24-7.42 76.54-8.70L76.54-8.70L76.54-8.70Q80.83-11.01 82.82-13.44L82.82-13.44L82.82-13.44Q83.65-14.59 83.65-15.65L83.65-15.65L83.65-15.65Q83.65-16.70 82.62-16.70L82.62-16.70L82.62-16.70Q81.79-16.70 80.38-16L80.38-16L80.38-16Q77.38-14.59 74.05-11.10L74.05-11.10L74.05-11.10Q70.72-7.62 69.70-4.29L69.70-4.29L69.70-4.29Q69.38-3.26 69.38-2.27L69.38-2.27L69.38-2.27Q69.38-1.28 70.21-0.38L70.21-0.38L70.21-0.38Q71.04 0.51 72.77 0.51L72.77 0.51L72.77 0.51Q74.69 0.51 77.18-0.51L77.18-0.51L77.18-0.51Q84.42-3.46 88.32-9.41L88.32-9.41L88.32-9.41Q88.70-9.92 89.02-9.60L89.02-9.60L89.02-9.60Q89.28-9.47 89.28-9.28L89.28-9.28L89.28-9.28Q89.28-9.09 89.09-8.83L89.09-8.83L89.09-8.83Q87.17-5.63 84.22-3.14L84.22-3.14L84.22-3.14Q78.53 1.73 73.15 1.73L73.15 1.73L73.15 1.73Q68.54 1.73 66.69-1.02L66.69-1.02L66.69-1.02Q65.98-2.11 65.98-3.65L65.98-3.65L65.98-3.65Q65.98-5.18 66.82-7.30L66.82-7.30L66.82-7.30Q68.42-10.94 73.66-14.78L73.66-14.78L73.66-14.78Q78.91-18.62 81.98-18.62ZM109.82-32.64L109.82-32.64L109.82-32.64Q110.59-34.05 110.59-34.82L110.59-34.82L110.59-34.82Q110.59-36.16 109.50-36.16L109.50-36.16L109.50-36.16Q108.61-36.16 107.26-35.14L107.26-35.14L107.26-35.14Q102.14-31.17 97.34-22.59L97.34-22.59L97.34-22.59Q93.50-15.68 91.71-10.75L91.71-10.75L91.71-10.75Q96.13-13.76 101.60-20.54L101.60-20.54L101.60-20.54Q107.07-27.33 109.82-32.64ZM90.75-8.19L90.75-8.19L90.75-8.19Q89.98-6.02 89.92-5.28L89.92-5.28L89.92-5.28Q89.86-4.54 89.86-3.30L89.86-3.30L89.86-3.30Q89.86-2.05 90.50-1.02L90.50-1.02L90.50-1.02Q91.58 0.70 94.14-0.77L94.14-0.77L94.14-0.77Q96.06-1.79 99.01-4.51L99.01-4.51L99.01-4.51Q101.95-7.23 103.55-9.47L103.55-9.47L103.55-9.47Q103.68-9.66 103.94-9.66L103.94-9.66L103.94-9.66Q104.51-9.66 104.26-8.83L104.26-8.83L104.26-8.83Q103.30-7.10 100.70-4.42L100.70-4.42L100.70-4.42Q98.11-1.73 96-0.16L96-0.16L96-0.16Q93.89 1.41 91.78 1.41L91.78 1.41L91.78 1.41Q86.91 1.41 86.91-3.33L86.91-3.33L86.91-3.33Q86.91-3.52 86.91-3.71L86.91-3.71L86.91-3.71Q87.17-8.19 91.46-17.25L91.46-17.25L91.46-17.25Q95.74-26.30 99.20-30.91L99.20-30.91L101.18-33.41L101.18-33.41Q101.89-34.24 103.23-35.46L103.23-35.46L103.23-35.46Q105.79-37.89 108.51-37.89L108.51-37.89L108.51-37.89Q111.23-37.89 112.19-36.22L112.19-36.22L112.19-36.22Q112.51-35.65 112.51-34.56L112.51-34.56L112.51-34.56Q112.51-33.47 111.55-31.49L111.55-31.49L111.55-31.49Q104.96-20.03 90.75-8.19ZM118.72-14.08L118.72-14.08L119.04-15.36L119.04-15.36Q119.04-16.64 118.08-16.64L118.08-16.64L118.08-16.64Q115.46-16.64 110.91-12.54L110.91-12.54L110.91-12.54Q106.37-8.45 105.15-4.29L105.15-4.29L105.15-4.29Q104.83-3.20 104.83-2.34L104.83-2.34L104.83-2.34Q104.83-1.47 105.22-0.90L105.22-0.90L105.22-0.90Q105.98 0.26 107.58 0.26L107.58 0.26L107.58 0.26Q109.18 0.26 111.04-0.19L111.04-0.19L111.04-0.19Q115.14-1.34 117.86-3.49L117.86-3.49L117.86-3.49Q120.58-5.63 123.58-9.47L123.58-9.47L123.58-9.47Q123.84-9.79 124.19-9.66L124.19-9.66L124.19-9.66Q124.54-9.54 124.54-9.31L124.54-9.31L124.54-9.31Q124.54-9.09 124.35-8.64L124.35-8.64L124.35-8.64Q121.28-4.48 117.92-1.89L117.92-1.89L117.92-1.89Q114.56 0.70 110.14 1.47L110.14 1.47L110.14 1.47Q108.86 1.66 107.78 1.66L107.78 1.66L107.78 1.66Q104.64 1.66 103.01 0.13L103.01 0.13L103.01 0.13Q101.38-1.41 101.38-3.26L101.38-3.26L101.38-3.26Q101.38-5.12 102.27-7.30L102.27-7.30L102.27-7.30Q103.87-10.94 109.12-14.78L109.12-14.78L109.12-14.78Q114.37-18.62 117.44-18.62L117.44-18.62L117.44-18.62Q118.21-18.62 118.91-18.43L118.91-18.43L118.91-18.43Q120.70-17.79 120.70-16.38L120.70-16.38L120.70-16.38Q120.70-15.42 120-14.21L120-14.21L120-14.21Q119.30-12.99 118.94-13.34L118.94-13.34L118.94-13.34Q118.59-13.70 118.72-14.08ZM136.06-7.04L136.06-7.04L136.06-7.04Q137.22-9.41 137.22-10.69L137.22-10.69L137.22-10.69Q137.22-11.97 136.93-12.70L136.93-12.70L136.93-12.70Q136.64-13.44 137.18-13.95L137.18-13.95L137.18-13.95Q137.73-14.46 138.56-14.34L138.56-14.34L138.56-14.34Q139.84-14.02 139.84-11.46L139.84-11.46L139.84-11.46Q139.84-8.90 136.83-4.74L136.83-4.74L136.83-4.74Q136.90-3.01 138.62-3.01L138.62-3.01L138.62-3.01Q140.35-3.01 143.87-6.72L143.87-6.72L143.87-6.72Q145.54-8.64 145.95-9.22L145.95-9.22L145.95-9.22Q146.37-9.79 146.69-9.63L146.69-9.63L146.69-9.63Q147.01-9.47 147.01-9.34L147.01-9.34L147.01-9.34Q147.01-8.70 144.70-6.02L144.70-6.02L144.70-6.02Q141.06-1.54 138.24-1.54L138.24-1.54L138.24-1.54Q136.38-1.54 135.62-3.14L135.62-3.14L135.62-3.14Q134.34-1.79 133.12-0.64L133.12-0.64L133.12-0.64Q130.62 1.47 127.55 1.47L127.55 1.47L127.55 1.47Q125.82 1.47 124.67 0.64L124.67 0.64L124.67 0.64Q122.43-0.70 122.43-4.16L122.43-4.16L122.43-4.16Q122.43-7.94 124.99-11.84L124.99-11.84L124.99-11.84Q126.46-14.14 128.45-15.87L128.45-15.87L128.45-15.87Q131.58-18.62 134.40-18.62L134.40-18.62L134.40-18.62Q135.10-18.62 135.74-18.43L135.74-18.43L135.74-18.43Q137.66-17.79 137.66-16L137.66-16L137.66-16Q137.66-14.53 136.90-14.53L136.90-14.53L136.90-14.53Q136.58-14.66 136.58-15.49L136.58-15.49L136.58-15.49Q136.58-16.64 135.30-16.64L135.30-16.64L135.30-16.64Q133.06-16.64 129.54-12.54L129.54-12.54L129.54-12.54Q126.02-8.45 125.31-4.29L125.31-4.29L125.31-4.29Q125.18-3.58 125.18-2.72L125.18-2.72L125.18-2.72Q125.18-1.86 125.76-0.74L125.76-0.74L125.76-0.74Q126.34 0.38 127.90 0.38L127.90 0.38L127.90 0.38Q129.47 0.38 131.33-1.02L131.33-1.02L131.33-1.02Q133.18-2.43 134.66-4.61L134.66-4.61L134.46-4.99L134.46-4.99Q134.21-6.02 134.72-6.66L134.72-6.66L134.72-6.66Q135.23-7.30 136.06-7.04ZM153.66-16.64L153.66-16.64L153.66-16.64Q153.66-16.19 152.96-14.69L152.96-14.69L152.96-14.69Q152.26-13.18 148.93-4.35L148.93-4.35L148.93-4.35Q151.23-7.17 154.75-10.88L154.75-10.88L154.75-10.88Q161.86-18.30 164.54-18.30L164.54-18.30L164.54-18.30Q165.12-18.30 165.66-17.98L165.66-17.98L165.66-17.98Q166.21-17.66 166.21-16.54L166.21-16.54L166.21-16.54Q166.21-15.42 165.50-14.05L165.50-14.05L165.50-14.05Q164.80-12.67 163.90-10.69L163.90-10.69L163.90-10.69Q163.01-8.70 162.69-8.19L162.69-8.19L162.69-8.19Q168.06-13.06 170.82-14.11L170.82-14.11L170.82-14.11Q173.57-15.17 174.46-15.17L174.46-15.17L174.46-15.17Q175.36-15.17 175.36-14.53L175.36-14.53L175.36-14.53Q175.36-14.14 174.40-12.67L174.40-12.67L174.40-12.67Q173.44-11.20 172.29-8.32L172.29-8.32L172.29-8.32Q171.14-5.44 171.01-4.29L171.01-4.29L171.01-4.29Q170.88-3.14 170.88-2.24L170.88-2.24L170.88-2.24Q170.88-1.34 171.39-0.77L171.39-0.77L171.39-0.77Q172.35 0.26 174.02-0.64L174.02-0.64L174.02-0.64Q175.68-1.54 178.66-4.22L178.66-4.22L178.66-4.22Q181.63-6.91 183.42-9.47L183.42-9.47L183.42-9.47Q183.68-9.79 184.03-9.63L184.03-9.63L184.03-9.63Q184.38-9.47 184.38-9.31L184.38-9.31L184.38-9.31Q184.38-9.15 184.26-8.96L184.26-8.96L184.26-8.96Q183.30-7.23 180.80-4.54L180.80-4.54L180.80-4.54Q176.70-0.13 173.95 0.90L173.95 0.90L173.95 0.90Q170.94 1.92 169.60 1.15L169.60 1.15L169.60 1.15Q168.26 0.38 167.94-0.58L167.94-0.58L167.94-0.58Q167.62-1.54 167.62-2.50L167.62-2.50L167.62-2.50Q167.62-5.50 168.80-8.51L168.80-8.51L168.80-8.51Q169.98-11.52 170.69-12.61L170.69-12.61L170.69-12.61Q168.26-11.58 166.53-10.05L166.53-10.05L166.53-10.05Q163.90-7.74 162.30-6.02L162.30-6.02L161.02-4.61L161.02-4.61Q160.45-3.20 159.01-3.01L159.01-3.01L159.01-3.01Q157.57-2.82 157.63-3.97L157.63-3.97L157.63-3.97Q157.76-5.18 160-9.41L160-9.41L160-9.41Q162.24-13.63 162.24-14.11L162.24-14.11L162.24-14.11Q162.24-14.59 161.73-14.59L161.73-14.59L161.73-14.59Q160.58-14.59 157.57-11.97L157.57-11.97L157.57-11.97Q155.58-10.11 151.71-4.96L151.71-4.96L151.71-4.96Q147.84 0.19 147.33 0.51L147.33 0.51L147.33 0.51Q145.02 1.66 144.45 1.66L144.45 1.66L144.45 1.66Q143.87 1.66 143.87 1.47L143.87 1.47L143.87 1.47Q143.87 1.28 144.06 0.90L144.06 0.90L144.06 0.90Q144.26 0.51 147.97-10.24L147.97-10.24L147.97-10.24Q146.56-8.06 145.41-6.91L145.41-6.91L145.41-6.91Q144.90-6.34 144.90-7.14L144.90-7.14L144.90-7.14Q144.90-7.94 145.34-8.51L145.34-8.51L145.34-8.51Q148.22-12.29 149.57-14.91L149.57-14.91L149.57-14.91Q149.95-17.15 151.10-17.54L151.10-17.54L151.10-17.54Q151.81-17.79 152.74-17.54L152.74-17.54L152.74-17.54Q153.66-17.28 153.66-16.64ZM197.44-18.62L197.44-18.62L197.44-18.62Q200.90-18.62 200.90-15.30L200.90-15.30L200.90-15.30Q200.90-13.57 199.94-12.48L199.94-12.48L199.94-12.48Q198.34-10.11 194.75-8.35L194.75-8.35L194.75-8.35Q191.17-6.59 188.67-6.40L188.67-6.40L188.67-6.40Q187.78-6.34 187.71-6.91L187.71-6.91L187.71-6.91Q187.65-7.17 187.87-7.23L187.87-7.23L187.87-7.23Q188.10-7.30 188.22-7.30L188.22-7.30L188.22-7.30Q189.70-7.42 192-8.70L192-8.70L192-8.70Q196.29-11.01 198.27-13.44L198.27-13.44L198.27-13.44Q199.10-14.59 199.10-15.65L199.10-15.65L199.10-15.65Q199.10-16.70 198.08-16.70L198.08-16.70L198.08-16.70Q197.25-16.70 195.84-16L195.84-16L195.84-16Q192.83-14.59 189.50-11.10L189.50-11.10L189.50-11.10Q186.18-7.62 185.15-4.29L185.15-4.29L185.15-4.29Q184.83-3.26 184.83-2.27L184.83-2.27L184.83-2.27Q184.83-1.28 185.66-0.38L185.66-0.38L185.66-0.38Q186.50 0.51 188.22 0.51L188.22 0.51L188.22 0.51Q190.14 0.51 192.64-0.51L192.64-0.51L192.64-0.51Q199.87-3.46 203.78-9.41L203.78-9.41L203.78-9.41Q204.16-9.92 204.48-9.60L204.48-9.60L204.48-9.60Q204.74-9.47 204.74-9.28L204.74-9.28L204.74-9.28Q204.74-9.09 204.54-8.83L204.54-8.83L204.54-8.83Q202.62-5.63 199.68-3.14L199.68-3.14L199.68-3.14Q193.98 1.73 188.61 1.73L188.61 1.73L188.61 1.73Q184 1.73 182.14-1.02L182.14-1.02L182.14-1.02Q181.44-2.11 181.44-3.65L181.44-3.65L181.44-3.65Q181.44-5.18 182.27-7.30L182.27-7.30L182.27-7.30Q183.87-10.94 189.12-14.78L189.12-14.78L189.12-14.78Q194.37-18.62 197.44-18.62ZM226.50-17.86L227.33-17.92L227.33-17.92Q232.26-18.37 233.31-18.37L233.31-18.37L233.31-18.37Q234.37-18.37 234.37-18.05L234.37-18.05L234.37-18.05Q234.37-17.66 232.86-17.25L232.86-17.25L232.86-17.25Q231.36-16.83 225.54-16.19L225.54-16.19L225.54-16.19Q225.22-15.62 224.77-14.85L224.77-14.85L224.77-14.85Q223.81-13.31 223.74-12.99L223.74-12.99L223.74-12.99Q220.10-5.70 219.90-3.71L219.90-3.71L219.90-3.71Q219.84-3.14 219.84-2.24L219.84-2.24L219.84-2.24Q219.84-1.34 220.35-0.77L220.35-0.77L220.35-0.77Q221.25 0.26 222.91-0.64L222.91-0.64L222.91-0.64Q224.58-1.54 227.55-4.22L227.55-4.22L227.55-4.22Q230.53-6.91 232.38-9.47L232.38-9.47L232.38-9.47Q232.64-9.79 233.02-9.60L233.02-9.60L233.02-9.60Q233.98-9.15 229.70-4.54L229.70-4.54L229.70-4.54Q225.60-0.13 222.85 0.90L222.85 0.90L222.85 0.90Q221.25 1.47 220.16 1.47L220.16 1.47L220.16 1.47Q217.60 1.47 216.77-0.96L216.77-0.96L216.77-0.96Q216.64-1.41 216.64-2.05L216.64-2.05L216.64-2.05Q216.64-4.29 218.69-8.83L218.69-8.83L218.69-8.83Q218.37-8.13 216.19-5.63L216.19-5.63L216.19-5.63Q215.62-4.99 215.30-5.63L215.30-5.63L215.30-5.63Q215.23-5.76 215.23-5.98L215.23-5.98L215.23-5.98Q215.23-6.21 215.49-6.53L215.49-6.53L215.49-6.53Q218.62-10.43 220.42-13.12L220.42-13.12L220.42-13.12Q220.42-13.18 221.82-15.81L221.82-15.81L221.82-15.81Q221.18-15.68 220.51-15.68L220.51-15.68L220.51-15.68Q219.84-15.68 219.52-16.10L219.52-16.10L219.52-16.10Q219.20-16.51 219.46-17.09L219.46-17.09L219.46-17.09Q219.90-18.11 222.85-18.24L222.85-18.24L222.85-18.24Q222.91-18.37 223.10-18.37L223.10-18.37L226.30-24.32L226.30-24.32Q226.56-24.83 226.88-25.38L226.88-25.38L226.88-25.38Q227.20-25.92 227.36-26.21L227.36-26.21L227.36-26.21Q227.52-26.50 227.71-26.82L227.71-26.82L227.71-26.82Q227.90-27.14 228.03-27.26L228.03-27.26L228.03-27.26Q228.16-27.39 228.29-27.52L228.29-27.52L228.29-27.52Q228.54-27.90 229.79-27.90L229.79-27.90L229.79-27.90Q231.04-27.90 231.49-27.20L231.49-27.20L231.49-27.20Q231.68-26.94 231.68-26.34L231.68-26.34L231.68-26.34Q231.68-25.73 231.23-24.99L231.23-24.99L231.23-24.99Q230.78-24.26 230.27-23.94L230.27-23.94L230.27-23.94Q229.76-23.62 229.57-23.23L229.57-23.23L226.50-17.86ZM244.80-7.04L244.80-7.04L244.80-7.04Q245.95-9.41 245.95-10.69L245.95-10.69L245.95-10.69Q245.95-11.97 245.66-12.70L245.66-12.70L245.66-12.70Q245.38-13.44 245.92-13.95L245.92-13.95L245.92-13.95Q246.46-14.46 247.30-14.34L247.30-14.34L247.30-14.34Q248.58-14.02 248.58-11.46L248.58-11.46L248.58-11.46Q248.58-8.90 245.57-4.74L245.57-4.74L245.57-4.74Q245.63-3.01 247.36-3.01L247.36-3.01L247.36-3.01Q249.09-3.01 252.61-6.72L252.61-6.72L252.61-6.72Q254.27-8.64 254.69-9.22L254.69-9.22L254.69-9.22Q255.10-9.79 255.42-9.63L255.42-9.63L255.42-9.63Q255.74-9.47 255.74-9.34L255.74-9.34L255.74-9.34Q255.74-8.70 253.44-6.02L253.44-6.02L253.44-6.02Q249.79-1.54 246.98-1.54L246.98-1.54L246.98-1.54Q245.12-1.54 244.35-3.14L244.35-3.14L244.35-3.14Q243.07-1.79 241.86-0.64L241.86-0.64L241.86-0.64Q239.36 1.47 236.29 1.47L236.29 1.47L236.29 1.47Q234.56 1.47 233.41 0.64L233.41 0.64L233.41 0.64Q231.17-0.70 231.17-4.16L231.17-4.16L231.17-4.16Q231.17-7.94 233.73-11.84L233.73-11.84L233.73-11.84Q235.20-14.14 237.18-15.87L237.18-15.87L237.18-15.87Q240.32-18.62 243.14-18.62L243.14-18.62L243.14-18.62Q243.84-18.62 244.48-18.43L244.48-18.43L244.48-18.43Q246.40-17.79 246.40-16L246.40-16L246.40-16Q246.40-14.53 245.63-14.53L245.63-14.53L245.63-14.53Q245.31-14.66 245.31-15.49L245.31-15.49L245.31-15.49Q245.31-16.64 244.03-16.64L244.03-16.64L244.03-16.64Q241.79-16.64 238.27-12.54L238.27-12.54L238.27-12.54Q234.75-8.45 234.05-4.29L234.05-4.29L234.05-4.29Q233.92-3.58 233.92-2.72L233.92-2.72L233.92-2.72Q233.92-1.86 234.50-0.74L234.50-0.74L234.50-0.74Q235.07 0.38 236.64 0.38L236.64 0.38L236.64 0.38Q238.21 0.38 240.06-1.02L240.06-1.02L240.06-1.02Q241.92-2.43 243.39-4.61L243.39-4.61L243.20-4.99L243.20-4.99Q242.94-6.02 243.46-6.66L243.46-6.66L243.46-6.66Q243.97-7.30 244.80-7.04ZM267.65-23.87L267.65-23.87L267.65-23.87Q267.52-24.70 267.52-24.90L267.52-24.90L267.52-24.90Q268.42-29.70 276.93-34.05L276.93-34.05L276.93-34.05Q283.65-37.18 292.80-37.18L292.80-37.18L292.80-37.18Q298.43-37.18 303.94-35.65L303.94-35.65L303.94-35.65Q307.65-34.37 309.57-32L309.57-32L309.57-32Q311.49-29.63 311.49-27.20L311.49-27.20L311.49-27.20Q311.49-23.49 308.54-20.64L308.54-20.64L308.54-20.64Q305.60-17.79 301.95-16.26L301.95-16.26L301.95-16.26Q293.82-12.74 283.39-12.35L283.39-12.35L283.39-12.35Q284.22-11.33 286.08-8.99L286.08-8.99L286.08-8.99Q287.94-6.66 288.90-5.50L288.90-5.50L288.90-5.50Q289.86-4.35 291.68-2.27L291.68-2.27L291.68-2.27Q293.50-0.19 294.75 0.93L294.75 0.93L294.75 0.93Q296 2.05 297.92 3.62L297.92 3.62L297.92 3.62Q299.84 5.18 301.57 6.08L301.57 6.08L301.57 6.08Q307.58 9.28 312.06 9.28L312.06 9.28L314.24 9.09L314.24 9.09Q316.42 8.70 317.70 7.33L317.70 7.33L317.70 7.33Q318.98 5.95 318.98 4.29L318.98 4.29L318.98 4.29Q318.98 3.65 318.82 2.91L318.82 2.91L318.82 2.91Q318.66 2.18 319.23 2.18L319.23 2.18L319.23 2.18Q319.87 2.24 320.10 3.10L320.10 3.10L320.10 3.10Q320.32 3.97 320.32 5.25L320.32 5.25L320.32 5.25Q320.32 6.53 319.68 8.19L319.68 8.19L319.68 8.19Q318.98 10.50 315.78 11.71L315.78 11.71L315.78 11.71Q313.73 12.48 311.94 12.48L311.94 12.48L311.94 12.48Q306.56 12.48 301.06 9.47L301.06 9.47L301.06 9.47Q297.41 7.42 294.50 4.38L294.50 4.38L294.50 4.38Q291.58 1.34 289.63-1.09L289.63-1.09L289.63-1.09Q287.68-3.52 285.28-7.14L285.28-7.14L285.28-7.14Q282.88-10.75 281.92-11.97L281.92-11.97L281.47-12.03L281.47-12.03Q276.61-3.07 276.61-1.22L276.61-1.22L276.61-1.22Q276.61-0.26 277.44-0.26L277.44-0.26L277.44-0.26Q278.27-0.26 279.68-2.02L279.68-2.02L279.68-2.02Q281.09-3.78 281.60-3.71L281.60-3.71L281.60-3.71Q281.98-3.33 280.77-2.05L280.77-2.05L280.77-2.05Q280.64-1.92 280.32-1.38L280.32-1.38L280.32-1.38Q280-0.83 279.78-0.51L279.78-0.51L279.78-0.51Q279.55-0.19 279.17 0.32L279.17 0.32L279.17 0.32Q278.78 0.83 278.46 1.15L278.46 1.15L278.46 1.15Q278.14 1.47 277.76 1.79L277.76 1.79L277.76 1.79Q276.99 2.43 276.42 2.43L276.42 2.43L276.42 2.43Q275.84 2.43 274.82 2.21L274.82 2.21L274.82 2.21Q273.79 1.98 273.79 1.34L273.79 1.34L273.79 1.34Q273.79-1.54 279.04-12.03L279.04-12.03L279.04-12.03Q276.93-12.22 276.93-13.57L276.93-13.57L276.93-13.57Q276.93-13.82 276.99-14.21L276.99-14.21L276.99-14.21Q277.44-15.30 278.62-15.30L278.62-15.30L278.62-15.30Q279.81-15.30 280.51-14.72L280.51-14.72L280.51-14.72Q281.02-15.74 281.73-17.02L281.73-17.02L281.73-17.02Q284.22-21.50 284.22-22.72L284.22-22.72L284.22-22.72Q284.22-23.04 284.16-23.36L284.16-23.36L284.16-23.36Q284.42-25.15 287.26-28.06L287.26-28.06L287.26-28.06Q290.11-30.98 292.42-30.98L292.42-30.98L292.42-30.98Q293.18-30.98 294.46-30.40L294.46-30.40L294.46-30.40Q295.74-29.82 296-28.80L296-28.80L296-28.80Q296.06-28.35 296.03-28.26L296.03-28.26L296.03-28.26Q296-28.16 295.68-28.29L295.68-28.29L295.68-28.29Q295.36-28.42 295.30-28.42L295.30-28.42L295.30-28.42Q290.82-28.42 282.50-13.89L282.50-13.89L282.50-13.89Q283.26-13.57 284-13.57L284-13.57L284-13.57Q284.74-13.57 285.25-13.63L285.25-13.63L285.25-13.63Q291.78-14.34 298.02-16.70L298.02-16.70L298.02-16.70Q304.26-19.07 307.71-22.66L307.71-22.66L307.71-22.66Q309.95-24.83 309.95-27.26L309.95-27.26L309.95-27.26Q309.95-34.43 295.30-34.43L295.30-34.43L295.30-34.43Q286.91-34.43 279.30-31.87L279.30-31.87L279.30-31.87Q275.33-30.46 272.54-28.10L272.54-28.10L272.54-28.10Q269.76-25.73 269.25-22.72L269.25-22.72L269.25-22.72Q269.18-22.40 269.18-21.89L269.18-21.89L269.18-21.89Q269.18-21.38 269.60-20.64L269.60-20.64L269.60-20.64Q270.02-19.90 270.59-19.52L270.59-19.52L270.59-19.52Q271.17-19.14 272.22-18.62L272.22-18.62L272.22-18.62Q273.28-18.11 273.63-17.86L273.63-17.86L273.63-17.86Q273.98-17.60 273.79-17.31L273.79-17.31L273.79-17.31Q273.60-17.02 272.96-17.15L272.96-17.15L272.96-17.15Q270.98-17.47 269.25-19.14L269.25-19.14L269.25-19.14Q267.52-20.80 267.52-22.72L267.52-22.72L267.52-22.72Q267.52-23.30 267.65-23.87ZM315.78-7.04L315.78-7.04L315.78-7.04Q316.93-9.41 316.93-10.69L316.93-10.69L316.93-10.69Q316.93-11.97 316.64-12.70L316.64-12.70L316.64-12.70Q316.35-13.44 316.90-13.95L316.90-13.95L316.90-13.95Q317.44-14.46 318.27-14.34L318.27-14.34L318.27-14.34Q319.55-14.02 319.55-11.46L319.55-11.46L319.55-11.46Q319.55-8.90 316.54-4.74L316.54-4.74L316.54-4.74Q316.61-3.01 318.34-3.01L318.34-3.01L318.34-3.01Q320.06-3.01 323.58-6.72L323.58-6.72L323.58-6.72Q325.25-8.64 325.66-9.22L325.66-9.22L325.66-9.22Q326.08-9.79 326.40-9.63L326.40-9.63L326.40-9.63Q326.72-9.47 326.72-9.34L326.72-9.34L326.72-9.34Q326.72-8.70 324.42-6.02L324.42-6.02L324.42-6.02Q320.77-1.54 317.95-1.54L317.95-1.54L317.95-1.54Q316.10-1.54 315.33-3.14L315.33-3.14L315.33-3.14Q314.05-1.79 312.83-0.64L312.83-0.64L312.83-0.64Q310.34 1.47 307.26 1.47L307.26 1.47L307.26 1.47Q305.54 1.47 304.38 0.64L304.38 0.64L304.38 0.64Q302.14-0.70 302.14-4.16L302.14-4.16L302.14-4.16Q302.14-7.94 304.70-11.84L304.70-11.84L304.70-11.84Q306.18-14.14 308.16-15.87L308.16-15.87L308.16-15.87Q311.30-18.62 314.11-18.62L314.11-18.62L314.11-18.62Q314.82-18.62 315.46-18.43L315.46-18.43L315.46-18.43Q317.38-17.79 317.38-16L317.38-16L317.38-16Q317.38-14.53 316.61-14.53L316.61-14.53L316.61-14.53Q316.29-14.66 316.29-15.49L316.29-15.49L316.29-15.49Q316.29-16.64 315.01-16.64L315.01-16.64L315.01-16.64Q312.77-16.64 309.25-12.54L309.25-12.54L309.25-12.54Q305.73-8.45 305.02-4.29L305.02-4.29L305.02-4.29Q304.90-3.58 304.90-2.72L304.90-2.72L304.90-2.72Q304.90-1.86 305.47-0.74L305.47-0.74L305.47-0.74Q306.05 0.38 307.62 0.38L307.62 0.38L307.62 0.38Q309.18 0.38 311.04-1.02L311.04-1.02L311.04-1.02Q312.90-2.43 314.37-4.61L314.37-4.61L314.18-4.99L314.18-4.99Q313.92-6.02 314.43-6.66L314.43-6.66L314.43-6.66Q314.94-7.30 315.78-7.04ZM325.63 0.64L325.63 0.64L325.63 0.64Q324.80 1.60 325.28 2.18L325.28 2.18L325.28 2.18Q325.76 2.75 326.37 2.75L326.37 2.75L326.37 2.75Q326.98 2.75 327.62 2.56L327.62 2.56L327.62 2.56Q330.37 1.73 332.96-0.74L332.96-0.74L332.96-0.74Q335.55-3.20 335.55-5.76L335.55-5.76L335.55-5.76Q335.55-7.17 332.42-8.83L332.42-8.83L332.42-8.83Q330.94-9.60 330.75-9.73L330.75-9.73L330.75-9.73Q329.02-10.88 328.58-12.03L328.58-12.03L328.58-12.03Q327.68-10.50 325.70-7.62L325.70-7.62L325.70-7.62Q325.25-7.10 324.86-7.39L324.86-7.39L324.86-7.39Q324.48-7.68 324.80-8.19L324.80-8.19L324.80-8.19Q327.42-11.78 328.26-14.21L328.26-14.21L328.26-14.21Q328.70-17.73 333.38-20.54L333.38-20.54L333.38-20.54Q338.05-23.36 341.89-23.36L341.89-23.36L341.89-23.36Q344.32-23.36 345.31-22.50L345.31-22.50L345.31-22.50Q346.30-21.63 346.30-20.80L346.30-20.80L346.30-20.80Q346.30-19.97 345.82-18.88L345.82-18.88L345.82-18.88Q345.34-17.79 343.87-16.83L343.87-16.83L343.87-16.83Q343.49-16.58 343.23-16.96L343.23-16.96L343.23-16.96Q343.10-17.34 343.78-18.02L343.78-18.02L343.78-18.02Q344.45-18.69 344.64-19.84L344.64-19.84L344.64-19.84Q344.83-20.99 343.62-21.25L343.62-21.25L343.62-21.25Q343.42-21.25 343.23-21.25L343.23-21.25L343.23-21.25Q340.74-21.25 336.99-19.39L336.99-19.39L336.99-19.39Q333.25-17.54 331.14-14.59L331.14-14.59L331.14-14.59Q330.30-13.50 330.30-12.38L330.30-12.38L330.30-12.38Q330.30-11.26 331.84-10.37L331.84-10.37L331.84-10.37Q332.48-9.98 334.02-9.15L334.02-9.15L334.02-9.15Q335.55-8.32 336.19-7.94L336.19-7.94L336.19-7.94Q336.83-7.55 337.73-6.72L337.73-6.72L337.73-6.72Q338.62-5.89 338.69-5.18L338.69-5.18L338.69-5.18Q339.01-3.26 336.90-0.96L336.90-0.96L336.90-0.96Q333.89 2.37 327.94 3.71L327.94 3.71L327.94 3.71Q326.59 4.03 325.22 4.03L325.22 4.03L325.22 4.03Q323.84 4.03 323.33 3.01L323.33 3.01L323.33 3.01Q323.14 2.75 323.14 2.21L323.14 2.21L323.14 2.21Q323.14 1.66 324.16 0.45L324.16 0.45L324.16 0.45Q325.12-0.51 327.23-1.41L327.23-1.41L327.23-1.41Q327.42-1.47 327.55-1.34L327.55-1.34L327.55-1.34Q327.68-1.22 327.62-1.02L327.62-1.02L327.62-1.02Q327.55-0.83 326.94-0.58L326.94-0.58L326.94-0.58Q326.34-0.32 325.63 0.64ZM357.18-7.04L357.18-7.04L357.18-7.04Q358.34-9.41 358.34-10.69L358.34-10.69L358.34-10.69Q358.34-11.97 358.05-12.70L358.05-12.70L358.05-12.70Q357.76-13.44 358.30-13.95L358.30-13.95L358.30-13.95Q358.85-14.46 359.68-14.34L359.68-14.34L359.68-14.34Q360.96-14.02 360.96-11.46L360.96-11.46L360.96-11.46Q360.96-8.90 357.95-4.74L357.95-4.74L357.95-4.74Q358.02-3.01 359.74-3.01L359.74-3.01L359.74-3.01Q361.47-3.01 364.99-6.72L364.99-6.72L364.99-6.72Q366.66-8.64 367.07-9.22L367.07-9.22L367.07-9.22Q367.49-9.79 367.81-9.63L367.81-9.63L367.81-9.63Q368.13-9.47 368.13-9.34L368.13-9.34L368.13-9.34Q368.13-8.70 365.82-6.02L365.82-6.02L365.82-6.02Q362.18-1.54 359.36-1.54L359.36-1.54L359.36-1.54Q357.50-1.54 356.74-3.14L356.74-3.14L356.74-3.14Q355.46-1.79 354.24-0.64L354.24-0.64L354.24-0.64Q351.74 1.47 348.67 1.47L348.67 1.47L348.67 1.47Q346.94 1.47 345.79 0.64L345.79 0.64L345.79 0.64Q343.55-0.70 343.55-4.16L343.55-4.16L343.55-4.16Q343.55-7.94 346.11-11.84L346.11-11.84L346.11-11.84Q347.58-14.14 349.57-15.87L349.57-15.87L349.57-15.87Q352.70-18.62 355.52-18.62L355.52-18.62L355.52-18.62Q356.22-18.62 356.86-18.43L356.86-18.43L356.86-18.43Q358.78-17.79 358.78-16L358.78-16L358.78-16Q358.78-14.53 358.02-14.53L358.02-14.53L358.02-14.53Q357.70-14.66 357.70-15.49L357.70-15.49L357.70-15.49Q357.70-16.64 356.42-16.64L356.42-16.64L356.42-16.64Q354.18-16.64 350.66-12.54L350.66-12.54L350.66-12.54Q347.14-8.45 346.43-4.29L346.43-4.29L346.43-4.29Q346.30-3.58 346.30-2.72L346.30-2.72L346.30-2.72Q346.30-1.86 346.88-0.74L346.88-0.74L346.88-0.74Q347.46 0.38 349.02 0.38L349.02 0.38L349.02 0.38Q350.59 0.38 352.45-1.02L352.45-1.02L352.45-1.02Q354.30-2.43 355.78-4.61L355.78-4.61L355.58-4.99L355.58-4.99Q355.33-6.02 355.84-6.66L355.84-6.66L355.84-6.66Q356.35-7.30 357.18-7.04ZM388.61-32.64L388.61-32.64L388.61-32.64Q389.38-34.05 389.38-34.82L389.38-34.82L389.38-34.82Q389.38-36.16 388.29-36.16L388.29-36.16L388.29-36.16Q387.39-36.16 386.05-35.14L386.05-35.14L386.05-35.14Q380.93-31.17 376.13-22.59L376.13-22.59L376.13-22.59Q372.29-15.68 370.50-10.75L370.50-10.75L370.50-10.75Q374.91-13.76 380.38-20.54L380.38-20.54L380.38-20.54Q385.86-27.33 388.61-32.64ZM369.54-8.19L369.54-8.19L369.54-8.19Q368.77-6.02 368.70-5.28L368.70-5.28L368.70-5.28Q368.64-4.54 368.64-3.30L368.64-3.30L368.64-3.30Q368.64-2.05 369.28-1.02L369.28-1.02L369.28-1.02Q370.37 0.70 372.93-0.77L372.93-0.77L372.93-0.77Q374.85-1.79 377.79-4.51L377.79-4.51L377.79-4.51Q380.74-7.23 382.34-9.47L382.34-9.47L382.34-9.47Q382.46-9.66 382.72-9.66L382.72-9.66L382.72-9.66Q383.30-9.66 383.04-8.83L383.04-8.83L383.04-8.83Q382.08-7.10 379.49-4.42L379.49-4.42L379.49-4.42Q376.90-1.73 374.78-0.16L374.78-0.16L374.78-0.16Q372.67 1.41 370.56 1.41L370.56 1.41L370.56 1.41Q365.70 1.41 365.70-3.33L365.70-3.33L365.70-3.33Q365.70-3.52 365.70-3.71L365.70-3.71L365.70-3.71Q365.95-8.19 370.24-17.25L370.24-17.25L370.24-17.25Q374.53-26.30 377.98-30.91L377.98-30.91L379.97-33.41L379.97-33.41Q380.67-34.24 382.02-35.46L382.02-35.46L382.02-35.46Q384.58-37.89 387.30-37.89L387.30-37.89L387.30-37.89Q390.02-37.89 390.98-36.22L390.98-36.22L390.98-36.22Q391.30-35.65 391.30-34.56L391.30-34.56L391.30-34.56Q391.30-33.47 390.34-31.49L390.34-31.49L390.34-31.49Q383.74-20.03 369.54-8.19ZM379.71 24.38L379.71 24.38L379.71 24.38Q379.20 24.38 378.43 24.19L378.43 24.19L378.43 24.19Q375.17 23.36 375.17 20.77L375.17 20.77L375.17 20.77Q375.17 18.18 378.53 14.27L378.53 14.27L378.53 14.27Q381.89 10.37 392.70 3.20L392.70 3.20L392.70 3.20Q398.72-9.09 400.32-14.02L400.32-14.02L400.32-14.02Q399.55-13.12 397.31-10.14L397.31-10.14L397.31-10.14Q395.07-7.17 393.34-5.09L393.34-5.09L393.34-5.09Q391.62-3.01 389.18-1.15L389.18-1.15L389.18-1.15Q386.75 0.70 384.70 0.70L384.70 0.70L384.70 0.70Q382.66 0.70 381.54-0.22L381.54-0.22L381.54-0.22Q380.42-1.15 380.29-2.18L380.29-2.18L380.29-2.18Q380.16-3.20 380.16-3.90L380.16-3.90L380.16-3.90Q380.16-6.27 381.44-8.64L381.44-8.64L381.44-8.64Q383.36-12.54 386.62-15.36L386.62-15.36L386.62-15.36Q387.84-16.51 388.77-16.51L388.77-16.51L388.77-16.51Q389.70-16.51 390.46-15.94L390.46-15.94L390.46-15.94Q391.30-15.04 390.98-14.40L390.98-14.40L390.98-14.40Q388.54-12.99 385.41-8.96L385.41-8.96L385.41-8.96Q383.74-6.78 383.10-3.46L383.10-3.46L383.10-3.46Q383.04-3.01 383.04-2.34L383.04-2.34L383.04-2.34Q383.04-1.66 383.58-1.25L383.58-1.25L383.58-1.25Q384.13-0.83 384.70-0.83L384.70-0.83L384.70-0.83Q386.69-0.83 388.86-2.94L388.86-2.94L388.86-2.94Q391.04-5.06 393.02-7.39L393.02-7.39L393.02-7.39Q395.01-9.73 397.54-12.99L397.54-12.99L397.54-12.99Q400.06-16.26 400.86-17.28L400.86-17.28L400.86-17.28Q401.66-18.30 402.50-18.30L402.50-18.30L402.50-18.30Q403.52-18.30 404.61-17.73L404.61-17.73L404.61-17.73Q405.70-17.15 405.54-16.83L405.54-16.83L405.54-16.83Q405.38-16.51 402.27-9.57L402.27-9.57L402.27-9.57Q399.17-2.62 397.76 0.38L397.76 0.38L397.76 0.38Q399.30-0.45 402.98-3.55L402.98-3.55L402.98-3.55Q406.66-6.66 409.22-9.86L409.22-9.86L409.22-9.86Q409.86-10.62 410.05-9.98L410.05-9.98L410.05-9.98Q410.11-9.86 410.11-9.57L410.11-9.57L410.11-9.57Q410.11-9.28 409.73-8.77L409.73-8.77L409.73-8.77Q407.74-6.14 403.39-2.18L403.39-2.18L403.39-2.18Q399.04 1.79 396.48 3.20L396.48 3.20L396.48 3.20Q391.04 14.40 389.18 17.28L389.18 17.28L389.18 17.28Q384.38 24.38 379.71 24.38ZM391.49 5.63L391.49 5.63L391.49 5.63Q383.81 11.39 380.51 14.72L380.51 14.72L380.51 14.72Q377.22 18.05 377.22 20.45L377.22 20.45L377.22 20.45Q377.22 22.85 378.88 22.85L378.88 22.85L378.88 22.85Q380.16 22.85 381.82 21.54L381.82 21.54L381.82 21.54Q383.49 20.22 385.02 18.05L385.02 18.05L385.02 18.05Q386.56 15.87 387.36 14.30L387.36 14.30L387.36 14.30Q388.16 12.74 389.57 9.70L389.57 9.70L389.57 9.70Q390.98 6.66 391.49 5.63ZM425.86-18.18L425.86-18.18L425.86-18.18Q427.33-18.18 427.33-16.61L427.33-16.61L427.33-16.61Q427.33-15.04 425.86-12.29L425.86-12.29L425.86-12.29Q424.38-9.54 423.68-7.81L423.68-7.81L423.68-7.81Q422.46-4.86 422.46-3.10L422.46-3.10L422.46-3.10Q422.46-1.34 422.98-0.77L422.98-0.77L422.98-0.77Q423.94 0.26 425.60-0.67L425.60-0.67L425.60-0.67Q427.26-1.60 430.24-4.26L430.24-4.26L430.24-4.26Q433.22-6.91 435.01-9.47L435.01-9.47L435.01-9.47Q435.26-9.79 435.62-9.63L435.62-9.63L435.62-9.63Q435.97-9.47 435.97-9.31L435.97-9.31L435.97-9.31Q435.97-9.15 435.84-8.96L435.84-8.96L435.84-8.96Q434.88-7.23 432.38-4.54L432.38-4.54L432.38-4.54Q429.89-1.86 427.58-0.22L427.58-0.22L427.58-0.22Q425.28 1.41 423.04 1.41L423.04 1.41L423.04 1.41Q420.86 1.34 419.97 0.42L419.97 0.42L419.97 0.42Q419.07-0.51 419.07-1.92L419.07-1.92L419.07-1.92Q419.07-3.33 419.33-4.64L419.33-4.64L419.33-4.64Q419.58-5.95 420.29-7.68L420.29-7.68L420.29-7.68Q421.44-10.43 422.30-11.97L422.30-11.97L422.30-11.97Q423.17-13.50 423.17-13.98L423.17-13.98L423.17-13.98Q423.17-14.46 422.66-14.46L422.66-14.46L422.66-14.46Q421.63-14.46 418.75-11.97L418.75-11.97L418.75-11.97Q416.77-10.11 412.90-4.96L412.90-4.96L412.90-4.96Q409.02 0.19 408.51 0.51L408.51 0.51L408.51 0.51Q406.21 1.66 405.63 1.66L405.63 1.66L405.63 1.66Q405.06 1.66 405.06 1.47L405.06 1.47L405.06 1.47Q405.06 1.28 405.18 0.93L405.18 0.93L405.18 0.93Q405.31 0.58 406.43-2.56L406.43-2.56L406.43-2.56Q407.55-5.70 408.86-9.44L408.86-9.44L408.86-9.44Q410.18-13.18 410.46-13.95L410.46-13.95L410.46-13.95Q410.75-14.72 410.85-15.26L410.85-15.26L410.85-15.26Q410.94-15.81 411.07-16.19L411.07-16.19L411.07-16.19Q411.20-16.58 411.55-17.06L411.55-17.06L411.55-17.06Q411.90-17.54 412.48-17.57L412.48-17.57L412.48-17.57Q413.06-17.60 413.95-17.44L413.95-17.44L413.95-17.44Q414.85-17.28 414.85-16.64L414.85-16.64L414.85-16.64Q414.85-16.19 414.14-14.69L414.14-14.69L414.14-14.69Q413.44-13.18 410.11-4.35L410.11-4.35L410.11-4.35Q412.42-7.17 415.94-10.85L415.94-10.85L415.94-10.85Q419.46-14.53 421.89-16.45L421.89-16.45L421.89-16.45Q424.32-18.18 425.86-18.18ZM436.80-28.45L436.80-28.45L436.80-28.45Q436.86-28.80 437.31-29.12L437.31-29.12L437.31-29.12Q437.76-29.44 438.98-29.44L438.98-29.44L438.98-29.44Q440.19-29.44 440.19-28.35L440.19-28.35L440.19-28.35Q440.19-27.58 439.87-26.56L439.87-26.56L439.87-26.56Q439.55-25.54 439.42-25.06L439.42-25.06L439.42-25.06Q439.30-24.58 438.69-22.62L438.69-22.62L438.69-22.62Q438.08-20.67 437.82-19.71L437.82-19.71L437.82-19.71Q437.57-18.62 437.09-18.62L437.09-18.62L437.09-18.62Q436.61-18.62 436.61-19.39L436.61-19.39L436.86-25.79L436.86-25.79Q436.86-26.24 436.80-27.17L436.80-27.17L436.80-27.17Q436.74-28.10 436.80-28.45ZM444.16 0.64L444.16 0.64L444.16 0.64Q443.33 1.60 443.81 2.18L443.81 2.18L443.81 2.18Q444.29 2.75 444.90 2.75L444.90 2.75L444.90 2.75Q445.50 2.75 446.14 2.56L446.14 2.56L446.14 2.56Q448.90 1.73 451.49-0.74L451.49-0.74L451.49-0.74Q454.08-3.20 454.08-5.76L454.08-5.76L454.08-5.76Q454.08-7.17 450.94-8.83L450.94-8.83L450.94-8.83Q449.47-9.60 449.28-9.73L449.28-9.73L449.28-9.73Q447.55-10.88 447.10-12.03L447.10-12.03L447.10-12.03Q446.21-10.50 444.22-7.62L444.22-7.62L444.22-7.62Q443.78-7.10 443.39-7.39L443.39-7.39L443.39-7.39Q443.01-7.68 443.33-8.19L443.33-8.19L443.33-8.19Q445.95-11.78 446.78-14.21L446.78-14.21L446.78-14.21Q447.23-17.73 451.90-20.54L451.90-20.54L451.90-20.54Q456.58-23.36 460.42-23.36L460.42-23.36L460.42-23.36Q462.85-23.36 463.84-22.50L463.84-22.50L463.84-22.50Q464.83-21.63 464.83-20.80L464.83-20.80L464.83-20.80Q464.83-19.97 464.35-18.88L464.35-18.88L464.35-18.88Q463.87-17.79 462.40-16.83L462.40-16.83L462.40-16.83Q462.02-16.58 461.76-16.96L461.76-16.96L461.76-16.96Q461.63-17.34 462.30-18.02L462.30-18.02L462.30-18.02Q462.98-18.69 463.17-19.84L463.17-19.84L463.17-19.84Q463.36-20.99 462.14-21.25L462.14-21.25L462.14-21.25Q461.95-21.25 461.76-21.25L461.76-21.25L461.76-21.25Q459.26-21.25 455.52-19.39L455.52-19.39L455.52-19.39Q451.78-17.54 449.66-14.59L449.66-14.59L449.66-14.59Q448.83-13.50 448.83-12.38L448.83-12.38L448.83-12.38Q448.83-11.26 450.37-10.37L450.37-10.37L450.37-10.37Q451.01-9.98 452.54-9.15L452.54-9.15L452.54-9.15Q454.08-8.32 454.72-7.94L454.72-7.94L454.72-7.94Q455.36-7.55 456.26-6.72L456.26-6.72L456.26-6.72Q457.15-5.89 457.22-5.18L457.22-5.18L457.22-5.18Q457.54-3.26 455.42-0.96L455.42-0.96L455.42-0.96Q452.42 2.37 446.46 3.71L446.46 3.71L446.46 3.71Q445.12 4.03 443.74 4.03L443.74 4.03L443.74 4.03Q442.37 4.03 441.86 3.01L441.86 3.01L441.86 3.01Q441.66 2.75 441.66 2.21L441.66 2.21L441.66 2.21Q441.66 1.66 442.69 0.45L442.69 0.45L442.69 0.45Q443.65-0.51 445.76-1.41L445.76-1.41L445.76-1.41Q445.95-1.47 446.08-1.34L446.08-1.34L446.08-1.34Q446.21-1.22 446.14-1.02L446.14-1.02L446.14-1.02Q446.08-0.83 445.47-0.58L445.47-0.58L445.47-0.58Q444.86-0.32 444.16 0.64ZM479.81 5.82L479.81 5.82L479.81 5.82Q474.75 5.82 474.75 2.24L474.75 2.24L474.75 2.24Q474.75-0.06 476.58-3.17L476.58-3.17L476.58-3.17Q478.40-6.27 480.13-8.93L480.13-8.93L480.13-8.93Q481.86-11.58 484.29-15.20L484.29-15.20L484.29-15.20Q486.72-18.82 487.74-20.35L487.74-20.35L487.74-20.35Q494.59-30.14 496.26-33.47L496.26-33.47L496.26-33.47Q494.78-33.60 492.61-33.60L492.61-33.60L492.61-33.60Q484.99-33.60 479.94-30.59L479.94-30.59L479.94-30.59Q476.80-28.74 476.80-25.98L476.80-25.98L476.80-25.98Q476.80-25.09 477.31-24.32L477.31-24.32L477.31-24.32Q477.82-23.55 478.34-23.23L478.34-23.23L478.34-23.23Q479.36-22.59 480.64-21.95L480.64-21.95L480.64-21.95Q481.41-21.38 480.90-21.25L480.90-21.25L480.90-21.25Q480.70-21.25 480.45-21.31L480.45-21.31L480.45-21.31Q478.98-21.63 477.25-23.17L477.25-23.17L477.25-23.17Q475.52-24.70 475.46-26.69L475.46-26.69L475.46-26.69Q475.20-27.33 475.20-27.78L475.20-27.78L475.20-27.78Q475.20-30.53 477.34-32.54L477.34-32.54L477.34-32.54Q479.49-34.56 482.88-35.33L482.88-35.33L482.88-35.33Q487.49-36.35 491.10-36.35L491.10-36.35L491.10-36.35Q494.72-36.35 497.22-35.78L497.22-35.78L497.22-35.78Q497.41-36.74 497.15-37.31L497.15-37.31L497.15-37.31Q496.90-37.89 497.60-38.02L497.60-38.02L497.60-38.02Q497.73-38.08 497.79-38.08L497.79-38.08L497.79-38.08Q498.50-38.08 498.88-37.06L498.88-37.06L498.88-37.06Q499.01-36.35 498.82-35.39L498.82-35.39L498.82-35.39Q499.97-35.07 501.15-34.59L501.15-34.59L501.15-34.59Q502.34-34.11 502.91-33.18L502.91-33.18L502.91-33.18Q503.49-32.26 502.53-32.32L502.53-32.32L502.53-32.32Q501.95-32.32 500.70-32.74L500.70-32.74L500.70-32.74Q499.46-33.15 498.18-33.28L498.18-33.28L498.18-33.28Q496.19-27.52 490.82-19.52L490.82-19.52L490.82-19.52Q479.23-2.43 479.23 2.30L479.23 2.30L479.23 2.30Q479.23 4.42 481.28 4.42L481.28 4.42L481.28 4.42Q484.48 4.42 491.58-0.32L491.58-0.32L491.58-0.32Q502.53-7.94 510.14-18.69L510.14-18.69L510.14-18.69Q510.08-20.48 510.08-23.04L510.08-23.04L510.08-23.04Q510.08-25.60 510.46-28.10L510.46-28.10L510.46-28.10Q510.66-29.44 511.90-30.59L511.90-30.59L511.90-30.59Q513.15-31.74 513.79-31.74L513.79-31.74L513.79-31.74Q514.62-31.74 514.88-30.27L514.88-30.27L515.01-29.12L515.01-29.12Q515.01-28.54 515.01-27.97L515.01-27.97L515.01-27.97Q515.01-23.04 513.09-19.07L513.09-19.07L513.09-19.07Q513.09-18.82 513.09-18.50L513.09-18.50L513.09-18.50Q513.09-11.33 516.26-5.57L516.26-5.57L516.26-5.57Q519.42 0.19 523.58 0.19L523.58 0.19L523.58 0.19Q527.17 0.19 529.92-3.52L529.92-3.52L529.92-3.52Q534.46-9.73 534.46-18.69L534.46-18.69L534.46-18.69Q534.46-26.82 530.88-30.66L530.88-30.66L530.88-30.66Q528.77-32.90 525.82-32.90L525.82-32.90L525.82-32.90Q523.39-32.90 521.66-31.62L521.66-31.62L521.66-31.62Q520.96-31.17 520.64-31.68L520.64-31.68L520.64-31.68Q520.32-32.19 520.70-32.51L520.70-32.51L520.70-32.51Q524.10-35.01 527.17-35.01L527.17-35.01L527.17-35.01Q530.24-35.01 532.22-33.60L532.22-33.60L532.22-33.60Q537.15-30.40 537.15-20.99L537.15-20.99L537.15-20.99Q537.15-16.96 536-12.80L536-12.80L536-12.80Q534.34-6.72 530.43-2.05L530.43-2.05L530.43-2.05Q526.53 2.62 521.86 2.62L521.86 2.62L521.86 2.62Q521.79 2.62 521.73 2.62L521.73 2.62L521.73 2.62Q516.67 2.62 513.31-2.43L513.31-2.43L513.31-2.43Q509.95-7.49 509.95-13.76L509.95-13.76L509.95-13.76Q509.95-14.53 510.02-15.36L510.02-15.36L510.02-15.36Q506.88-11.39 502.11-6.88L502.11-6.88L502.11-6.88Q497.34-2.37 493.18 0.51L493.18 0.51L493.18 0.51Q486.02 5.82 479.81 5.82ZM555.90-18.62L555.90-18.62L555.90-18.62Q559.36-18.62 559.36-15.30L559.36-15.30L559.36-15.30Q559.36-13.57 558.40-12.48L558.40-12.48L558.40-12.48Q556.80-10.11 553.22-8.35L553.22-8.35L553.22-8.35Q549.63-6.59 547.14-6.40L547.14-6.40L547.14-6.40Q546.24-6.34 546.18-6.91L546.18-6.91L546.18-6.91Q546.11-7.17 546.34-7.23L546.34-7.23L546.34-7.23Q546.56-7.30 546.69-7.30L546.69-7.30L546.69-7.30Q548.16-7.42 550.46-8.70L550.46-8.70L550.46-8.70Q554.75-11.01 556.74-13.44L556.74-13.44L556.74-13.44Q557.57-14.59 557.57-15.65L557.57-15.65L557.57-15.65Q557.57-16.70 556.54-16.70L556.54-16.70L556.54-16.70Q555.71-16.70 554.30-16L554.30-16L554.30-16Q551.30-14.59 547.97-11.10L547.97-11.10L547.97-11.10Q544.64-7.62 543.62-4.29L543.62-4.29L543.62-4.29Q543.30-3.26 543.30-2.27L543.30-2.27L543.30-2.27Q543.30-1.28 544.13-0.38L544.13-0.38L544.13-0.38Q544.96 0.51 546.69 0.51L546.69 0.51L546.69 0.51Q548.61 0.51 551.10-0.51L551.10-0.51L551.10-0.51Q558.34-3.46 562.24-9.41L562.24-9.41L562.24-9.41Q562.62-9.92 562.94-9.60L562.94-9.60L562.94-9.60Q563.20-9.47 563.20-9.28L563.20-9.28L563.20-9.28Q563.20-9.09 563.01-8.83L563.01-8.83L563.01-8.83Q561.09-5.63 558.14-3.14L558.14-3.14L558.14-3.14Q552.45 1.73 547.07 1.73L547.07 1.73L547.07 1.73Q542.46 1.73 540.61-1.02L540.61-1.02L540.61-1.02Q539.90-2.11 539.90-3.65L539.90-3.65L539.90-3.65Q539.90-5.18 540.74-7.30L540.74-7.30L540.74-7.30Q542.34-10.94 547.58-14.78L547.58-14.78L547.58-14.78Q552.83-18.62 555.90-18.62ZM564.38-11.68L564.38-11.68L564.38-11.68Q567.23-14.21 570.30-16L570.30-16L570.30-16Q573.38-17.79 575.17-18.24L575.17-18.24L575.17-18.24Q576.96-18.69 578.69-18.69L578.69-18.69L578.69-18.69Q580.42-18.69 581.95-17.54L581.95-17.54L581.95-17.54Q590.72-37.89 598.72-37.89L598.72-37.89L598.72-37.89Q601.41-37.89 602.37-36.35L602.37-36.35L602.37-36.35Q602.82-35.58 602.82-35.01L602.82-35.01L602.82-35.01Q602.82-33.41 601.44-30.94L601.44-30.94L601.44-30.94Q600.06-28.48 597.18-25.54L597.18-25.54L597.18-25.54Q594.30-22.59 588.93-18.27L588.93-18.27L588.93-18.27Q583.55-13.95 582.98-13.44L582.98-13.44L582.98-13.44Q580.93-8.70 579.78-4.29L579.78-4.29L579.78-4.29Q578.62 0.13 578.62 2.30L578.62 2.30L578.62 2.30Q578.62 4.48 579.39 5.76L579.39 5.76L579.39 5.76Q579.78 6.59 580.54 6.75L580.54 6.75L580.54 6.75Q581.31 6.91 581.86 6.56L581.86 6.56L581.86 6.56Q582.40 6.21 582.69 5.95L582.69 5.95L582.69 5.95Q582.98 5.70 583.39 5.47L583.39 5.47L583.39 5.47Q583.81 5.25 584.00 5.38L584.00 5.38L584.00 5.38Q584.19 5.50 583.94 6.08L583.94 6.08L583.94 6.08Q583.42 6.72 582.98 7.17L582.98 7.17L582.98 7.17Q581.95 7.87 580.58 7.87L580.58 7.87L580.58 7.87Q579.20 7.87 578.75 7.81L578.75 7.81L578.75 7.81Q575.68 7.30 575.68 3.33L575.68 3.33L575.68 3.33Q575.68-0.51 576.70-3.78L576.70-3.78L576.70-3.78Q578.11-8.26 579.26-11.20L579.26-11.20L579.26-11.20Q569.02 0.70 564.74 0.70L564.74 0.70L564.74 0.70Q563.71 0.70 562.53 0.10L562.53 0.10L562.53 0.10Q561.34-0.51 560.51-1.63L560.51-1.63L560.51-1.63Q559.68-2.75 559.68-4.03L559.68-4.03L559.68-4.03Q559.68-5.31 560.26-6.46L560.26-6.46L560.26-6.46Q561.54-9.15 564.38-11.68ZM580.54-14.34L581.44-16.51L581.44-16.51Q580.67-16.90 578.75-16.90L578.75-16.90L578.75-16.90Q576.83-16.90 573.79-15.33L573.79-15.33L573.79-15.33Q570.75-13.76 568.06-11.39L568.06-11.39L568.06-11.39Q565.82-9.28 564.13-6.62L564.13-6.62L564.13-6.62Q562.43-3.97 562.43-2.75L562.43-2.75L562.43-2.75Q562.43-0.38 563.78-0.38L563.78-0.38L563.78-0.38Q565.12-0.38 567.87-2.56L567.87-2.56L567.87-2.56Q574.98-8.38 580.54-14.34L580.54-14.34ZM600.19-32.64L600.19-32.64L600.19-32.64Q601.02-34.18 601.02-35.23L601.02-35.23L601.02-35.23Q601.02-36.29 600.10-36.29L600.10-36.29L600.10-36.29Q599.17-36.29 597.63-35.14L597.63-35.14L597.63-35.14Q590.59-29.76 584.90-17.15L584.90-17.15L584.90-17.15Q589.06-19.84 593.60-24.32L593.60-24.32L593.60-24.32Q598.14-28.80 600.19-32.64ZM588.38-11.68L588.38-11.68L588.38-11.68Q591.23-14.21 594.30-16L594.30-16L594.30-16Q597.38-17.79 599.17-18.24L599.17-18.24L599.17-18.24Q600.96-18.69 602.69-18.69L602.69-18.69L602.69-18.69Q604.42-18.69 605.95-17.54L605.95-17.54L605.95-17.54Q614.72-37.89 622.72-37.89L622.72-37.89L622.72-37.89Q625.41-37.89 626.37-36.35L626.37-36.35L626.37-36.35Q626.82-35.58 626.82-35.01L626.82-35.01L626.82-35.01Q626.82-33.41 625.44-30.94L625.44-30.94L625.44-30.94Q624.06-28.48 621.18-25.54L621.18-25.54L621.18-25.54Q618.30-22.59 612.93-18.27L612.93-18.27L612.93-18.27Q607.55-13.95 606.98-13.44L606.98-13.44L606.98-13.44Q604.93-8.70 603.78-4.29L603.78-4.29L603.78-4.29Q602.62 0.13 602.62 2.30L602.62 2.30L602.62 2.30Q602.62 4.48 603.39 5.76L603.39 5.76L603.39 5.76Q603.78 6.59 604.54 6.75L604.54 6.75L604.54 6.75Q605.31 6.91 605.86 6.56L605.86 6.56L605.86 6.56Q606.40 6.21 606.69 5.95L606.69 5.95L606.69 5.95Q606.98 5.70 607.39 5.47L607.39 5.47L607.39 5.47Q607.81 5.25 608.00 5.38L608.00 5.38L608.00 5.38Q608.19 5.50 607.94 6.08L607.94 6.08L607.94 6.08Q607.42 6.72 606.98 7.17L606.98 7.17L606.98 7.17Q605.95 7.87 604.58 7.87L604.58 7.87L604.58 7.87Q603.20 7.87 602.75 7.81L602.75 7.81L602.75 7.81Q599.68 7.30 599.68 3.33L599.68 3.33L599.68 3.33Q599.68-0.51 600.70-3.78L600.70-3.78L600.70-3.78Q602.11-8.26 603.26-11.20L603.26-11.20L603.26-11.20Q593.02 0.70 588.74 0.70L588.74 0.70L588.74 0.70Q587.71 0.70 586.53 0.10L586.53 0.10L586.53 0.10Q585.34-0.51 584.51-1.63L584.51-1.63L584.51-1.63Q583.68-2.75 583.68-4.03L583.68-4.03L583.68-4.03Q583.68-5.31 584.26-6.46L584.26-6.46L584.26-6.46Q585.54-9.15 588.38-11.68ZM604.54-14.34L605.44-16.51L605.44-16.51Q604.67-16.90 602.75-16.90L602.75-16.90L602.75-16.90Q600.83-16.90 597.79-15.33L597.79-15.33L597.79-15.33Q594.75-13.76 592.06-11.39L592.06-11.39L592.06-11.39Q589.82-9.28 588.13-6.62L588.13-6.62L588.13-6.62Q586.43-3.97 586.43-2.75L586.43-2.75L586.43-2.75Q586.43-0.38 587.78-0.38L587.78-0.38L587.78-0.38Q589.12-0.38 591.87-2.56L591.87-2.56L591.87-2.56Q598.98-8.38 604.54-14.34L604.54-14.34ZM624.19-32.64L624.19-32.64L624.19-32.64Q625.02-34.18 625.02-35.23L625.02-35.23L625.02-35.23Q625.02-36.29 624.10-36.29L624.10-36.29L624.10-36.29Q623.17-36.29 621.63-35.14L621.63-35.14L621.63-35.14Q614.59-29.76 608.90-17.15L608.90-17.15L608.90-17.15Q613.06-19.84 617.60-24.32L617.60-24.32L617.60-24.32Q622.14-28.80 624.19-32.64ZM615.68-17.73L615.68-17.73L615.68-17.73Q617.28-17.73 617.60-16.70L617.60-16.70L617.60-16.70Q617.73-16.13 617.44-15.58L617.44-15.58L617.44-15.58Q617.15-15.04 617.02-14.72L617.02-14.72L617.02-14.72Q616.90-14.40 616.83-14.21L616.83-14.21L616.83-14.21Q616.51-13.57 616.19-12.99L616.19-12.99L616.19-12.99Q612.54-5.70 612.35-3.71L612.35-3.71L612.35-3.71Q612.29-3.14 612.29-2.24L612.29-2.24L612.29-2.24Q612.29-1.34 612.80-0.77L612.80-0.77L612.80-0.77Q613.70 0.26 615.36-0.64L615.36-0.64L615.36-0.64Q617.02-1.54 620.00-4.22L620.00-4.22L620.00-4.22Q622.98-6.91 624.83-9.47L624.83-9.47L624.83-9.47Q625.09-9.79 625.41-9.63L625.41-9.63L625.41-9.63Q625.73-9.47 625.73-9.31L625.73-9.31L625.73-9.31Q625.73-9.15 625.60-8.96L625.60-8.96L625.60-8.96Q624.64-7.23 622.14-4.54L622.14-4.54L622.14-4.54Q618.05-0.13 615.30 0.90L615.30 0.90L615.30 0.90Q613.70 1.47 612.61 1.47L612.61 1.47L612.61 1.47Q610.05 1.47 609.22-0.96L609.22-0.96L609.22-0.96Q609.09-1.41 609.09-2.05L609.09-2.05L609.09-2.05Q609.09-4.29 611.14-8.83L611.14-8.83L611.14-8.83Q610.82-8.13 608.64-5.63L608.64-5.63L608.64-5.63Q608.06-4.99 607.74-5.63L607.74-5.63L607.74-5.63Q607.68-5.76 607.68-5.98L607.68-5.98L607.68-5.98Q607.68-6.21 607.94-6.53L607.94-6.53L607.94-6.53Q611.07-10.43 612.86-13.12L612.86-13.12L612.86-13.12Q612.74-13.44 612.99-13.95L612.99-13.95L612.99-13.95Q614.27-17.54 615.23-17.73L615.23-17.73L615.23-17.73Q615.42-17.73 615.68-17.73ZM620.74-26.24L620.74-26.24L620.22-24.19L620.22-24.19Q620.22-23.62 619.39-22.34L619.39-22.34L619.39-22.34Q618.56-21.06 618.11-21.06L618.11-21.06L618.11-21.06Q615.36-21.06 615.36-22.40L615.36-22.40L615.36-22.40Q615.36-22.66 618.11-24.77L618.11-24.77L619.20-25.60L619.20-25.60Q620.22-26.50 620.48-26.50L620.48-26.50L620.48-26.50Q620.74-26.50 620.74-26.24ZM641.79-18.18L641.79-18.18L641.79-18.18Q643.26-18.18 643.26-16.61L643.26-16.61L643.26-16.61Q643.26-15.04 641.79-12.29L641.79-12.29L641.79-12.29Q640.32-9.54 639.62-7.81L639.62-7.81L639.62-7.81Q638.40-4.86 638.40-3.10L638.40-3.10L638.40-3.10Q638.40-1.34 638.91-0.77L638.91-0.77L638.91-0.77Q639.87 0.26 641.54-0.67L641.54-0.67L641.54-0.67Q643.20-1.60 646.18-4.26L646.18-4.26L646.18-4.26Q649.15-6.91 650.94-9.47L650.94-9.47L650.94-9.47Q651.20-9.79 651.55-9.63L651.55-9.63L651.55-9.63Q651.90-9.47 651.90-9.31L651.90-9.31L651.90-9.31Q651.90-9.15 651.78-8.96L651.78-8.96L651.78-8.96Q650.82-7.23 648.32-4.54L648.32-4.54L648.32-4.54Q645.82-1.86 643.52-0.22L643.52-0.22L643.52-0.22Q641.22 1.41 638.98 1.41L638.98 1.41L638.98 1.41Q636.80 1.34 635.90 0.42L635.90 0.42L635.90 0.42Q635.01-0.51 635.01-1.92L635.01-1.92L635.01-1.92Q635.01-3.33 635.26-4.64L635.26-4.64L635.26-4.64Q635.52-5.95 636.22-7.68L636.22-7.68L636.22-7.68Q637.38-10.43 638.24-11.97L638.24-11.97L638.24-11.97Q639.10-13.50 639.10-13.98L639.10-13.98L639.10-13.98Q639.10-14.46 638.59-14.46L638.59-14.46L638.59-14.46Q637.57-14.46 634.69-11.97L634.69-11.97L634.69-11.97Q632.70-10.11 628.83-4.96L628.83-4.96L628.83-4.96Q624.96 0.19 624.45 0.51L624.45 0.51L624.45 0.51Q622.14 1.66 621.57 1.66L621.57 1.66L621.57 1.66Q620.99 1.66 620.99 1.47L620.99 1.47L620.99 1.47Q620.99 1.28 621.12 0.93L621.12 0.93L621.12 0.93Q621.25 0.58 622.37-2.56L622.37-2.56L622.37-2.56Q623.49-5.70 624.80-9.44L624.80-9.44L624.80-9.44Q626.11-13.18 626.40-13.95L626.40-13.95L626.40-13.95Q626.69-14.72 626.78-15.26L626.78-15.26L626.78-15.26Q626.88-15.81 627.01-16.19L627.01-16.19L627.01-16.19Q627.14-16.58 627.49-17.06L627.49-17.06L627.49-17.06Q627.84-17.54 628.42-17.57L628.42-17.57L628.42-17.57Q628.99-17.60 629.89-17.44L629.89-17.44L629.89-17.44Q630.78-17.28 630.78-16.64L630.78-16.64L630.78-16.64Q630.78-16.19 630.08-14.69L630.08-14.69L630.08-14.69Q629.38-13.18 626.05-4.35L626.05-4.35L626.05-4.35Q628.35-7.17 631.87-10.85L631.87-10.85L631.87-10.85Q635.39-14.53 637.82-16.45L637.82-16.45L637.82-16.45Q640.26-18.18 641.79-18.18ZM648.45 24.38L648.45 24.38L648.45 24.38Q647.94 24.38 647.17 24.19L647.17 24.19L647.17 24.19Q643.90 23.36 643.90 20.77L643.90 20.77L643.90 20.77Q643.90 18.18 647.26 14.27L647.26 14.27L647.26 14.27Q650.62 10.37 661.44 3.20L661.44 3.20L661.44 3.20Q666.05-6.21 667.84-11.71L667.84-11.71L667.84-11.71Q664.26-7.36 662.72-5.70L662.72-5.70L662.72-5.70Q656.96 0.70 653.44 0.70L653.44 0.70L653.44 0.70Q652.42 0.70 651.23 0.10L651.23 0.10L651.23 0.10Q650.05-0.51 649.22-1.63L649.22-1.63L649.22-1.63Q648.38-2.75 648.38-4.03L648.38-4.03L648.38-4.03Q648.38-7.42 653.12-11.65L653.12-11.65L653.12-11.65Q655.94-14.21 659.01-16L659.01-16L659.01-16Q662.08-17.79 663.87-18.24L663.87-18.24L663.87-18.24Q665.66-18.69 667.33-18.69L667.33-18.69L667.33-18.69Q668.99-18.69 670.27-17.79L670.27-17.79L670.27-17.79Q671.55-16.90 671.55-16L671.55-16L671.55-16Q671.55-15.49 671.04-15.68L671.04-15.68L671.04-15.68Q670.34-16.90 667.94-16.90L667.94-16.90L667.94-16.90Q665.54-16.90 662.50-15.33L662.50-15.33L662.50-15.33Q659.46-13.76 657.02-11.62L657.02-11.62L657.02-11.62Q654.59-9.47 652.90-6.75L652.90-6.75L652.90-6.75Q651.20-4.03 651.20-2.75L651.20-2.75L651.20-2.75Q651.20-0.51 652.48-0.51L652.48-0.51L652.48-0.51Q654.27-0.51 657.98-3.46L657.98-3.46L657.98-3.46Q663.49-7.74 668.54-13.89L668.54-13.89L668.54-13.89Q669.38-15.10 672.00-13.82L672.00-13.82L672.00-13.82Q673.02-13.31 672.83-12.93L672.83-12.93L672.83-12.93Q672.00-11.07 669.79-6.50L669.79-6.50L669.79-6.50Q667.58-1.92 666.50 0.38L666.50 0.38L666.50 0.38Q667.97-0.38 671.52-3.49L671.52-3.49L671.52-3.49Q675.07-6.59 677.76-9.73L677.76-9.73L677.76-9.73Q679.17-11.39 679.17-10.24L679.17-10.24L679.17-10.24Q679.17-8.64 671.49-1.79L671.49-1.79L671.49-1.79Q667.07 2.18 665.22 3.20L665.22 3.20L665.22 3.20Q659.78 14.40 657.92 17.28L657.92 17.28L657.92 17.28Q653.12 24.38 648.45 24.38ZM660.22 5.63L660.22 5.63L660.22 5.63Q652.54 11.39 649.22 14.75L649.22 14.75L649.22 14.75Q645.89 18.11 645.89 21.06L645.89 21.06L645.89 21.06Q645.89 21.95 646.46 22.34L646.46 22.34L646.46 22.34Q647.04 22.72 647.68 22.72L647.68 22.72L647.68 22.72Q648.32 22.72 649.54 21.76L649.54 21.76L649.54 21.76Q650.75 20.80 651.62 19.87L651.62 19.87L651.62 19.87Q652.48 18.94 653.12 18.14L653.12 18.14L653.12 18.14Q653.76 17.34 654.56 16.10L654.56 16.10L654.56 16.10Q655.36 14.85 655.81 14.14L655.81 14.14L655.81 14.14Q656.26 13.44 657.06 11.94L657.06 11.94L657.06 11.94Q657.86 10.43 658.14 9.89L658.14 9.89L658.14 9.89Q658.43 9.34 659.23 7.68L659.23 7.68L659.23 7.68Q660.03 6.02 660.22 5.63Z" fill="url(#editing-sticker-gradient)" stroke="#000" stroke-width="2.5"></path></g></g><style>text {
  font-size: 64px;
  font-family: Arial Black;
  dominant-baseline: central;
  text-anchor: middle;
}</style></svg>