<svg height="512" viewBox="0 0 64 64" width="512" xmlns="http://www.w3.org/2000/svg"><g id="Filled_outline" data-name="Filled outline"><path d="m51 6h7v2h-7z" fill="#4e616d"/><path d="m11 50h12v2h-12z" fill="#195c85"/><path d="m8 62a1.014 1.014 0 0 1 -.331-.056 1 1 0 0 1 -.613-1.275l7-20a1 1 0 0 1 1.888.662l-7 20a1 1 0 0 1 -.944.669z" fill="#7fcac9"/><path d="m26 62a1 1 0 0 1 -.944-.669l-7-20a1 1 0 1 1 1.888-.662l7 20a1 1 0 0 1 -.613 1.275 1.014 1.014 0 0 1 -.331.056z" fill="#7fcac9"/><path d="m41 21h12v18h-12z" fill="#ad6327" transform="matrix(-1 0 0 -1 94 60)"/><path d="m44 39h6v18h-6z" fill="#8ccae0"/><path d="m42 57h8v4h-8z" fill="#394d5c"/><path d="m37 29h8v-4a2 2 0 0 1 4 0v8h-12z" fill="#ffd782"/><path d="m41 3h12v14h-12z" fill="#ffd782" transform="matrix(-1 0 0 -1 94 20)"/><path d="m41 3h12v4h-12z" fill="#394d5c" transform="matrix(-1 0 0 -1 94 10)"/><path d="m44 10h2v2h-2z" fill="#394d5c"/><circle cx="33" cy="31" fill="#f9bb4b" r="2"/><path d="m7 29h20a0 0 0 0 1 0 0v6a2 2 0 0 1 -2 2h-16a2 2 0 0 1 -2-2v-6a0 0 0 0 1 0 0z" fill="#cfdfe8"/><g fill="#aabece"><path d="m12 37h10a0 0 0 0 1 0 0v2a2 2 0 0 1 -2 2h-6a2 2 0 0 1 -2-2v-2a0 0 0 0 1 0 0z"/><path d="m7 32h9v2h-9z"/><path d="m22 32h5v2h-5z"/></g><path d="m16.293 14.707-3.707-3.707 4-4-2.293-2.293 1.414-1.414 3.707 3.707-4 4 2.293 2.293z" fill="#e97424"/><path d="m24.293 16.707-3.707-3.707 4-4-2.293-2.293 1.414-1.414 3.707 3.707-4 4 2.293 2.293z" fill="#e97424"/><path d="m8.293 16.707-3.707-3.707 4-4-2.293-2.293 1.414-1.414 3.707 3.707-4 4 2.293 2.293z" fill="#e97424"/><circle cx="17" cy="23" fill="#ceac9a" r="2"/><circle cx="21" cy="23" fill="#995f5b" r="2"/><circle cx="13" cy="23" fill="#995f5b" r="2"/><path d="m6 22h5v2h-5z" fill="#aabece"/><path d="m23 22h5v2h-5z" fill="#aabece"/><circle cx="33" cy="18" fill="#ceac9a" r="2"/><circle cx="33" cy="22" fill="#995f5b" r="2"/><circle cx="33" cy="14" fill="#995f5b" r="2"/><path d="m32 24h2v5h-2z" fill="#aabece"/><path d="m6 23h2v6h-2z" fill="#aabece"/><path d="m37 34h3v5a1 1 0 0 0 1 1h2v16h-1a1 1 0 0 0 -1 1v4a1 1 0 0 0 1 1h8a1 1 0 0 0 1-1v-21h2a1 1 0 0 0 1-1v-18a1 1 0 0 0 -1-1h-12a1 1 0 0 0 -1 1v7h-3a1 1 0 0 0 -1 1v4a1 1 0 0 0 1 1zm12 26h-6v-2h6zm0-4h-4v-16h4zm-7-34h10v16h-10v-4h7a1 1 0 0 0 1-1v-8a3 3 0 0 0 -6 0v3h-2zm-4 8h7a1 1 0 0 0 1-1v-4a1 1 0 0 1 2 0v7h-10z"/><path d="m41 18h12a1 1 0 0 0 1-1v-9h4v-2h-4v-3a1 1 0 0 0 -1-1h-12a1 1 0 0 0 -1 1v14a1 1 0 0 0 1 1zm1-14h10v2h-10zm0 4h10v8h-10z"/><path d="m44 10h2v2h-2z"/><path d="m30 31a3 3 0 1 0 4-2.816v-3.368a2.972 2.972 0 0 0 1.22-4.816 2.954 2.954 0 0 0 0-4 3 3 0 1 0 -4.44 0 2.954 2.954 0 0 0 0 4 2.972 2.972 0 0 0 1.22 4.816v3.368a3 3 0 0 0 -2 2.816zm3-18a1 1 0 1 1 -1 1 1 1 0 0 1 1-1zm0 4a1 1 0 1 1 -1 1 1 1 0 0 1 1-1zm0 4a1 1 0 1 1 -1 1 1 1 0 0 1 1-1zm0 9a1 1 0 1 1 -1 1 1 1 0 0 1 1-1z"/><path d="m16.293 14.707 1.414-1.414-2.293-2.293 4-4-3.707-3.707-1.414 1.414 2.293 2.293-4 4z"/><path d="m24.293 16.707 1.414-1.414-2.293-2.293 4-4-3.707-3.707-1.414 1.414 2.293 2.293-4 4z"/><path d="m8.293 16.707 1.414-1.414-2.293-2.293 4-4-3.707-3.707-1.414 1.414 2.293 2.293-4 4z"/><path d="m21 20a2.981 2.981 0 0 0 -2 .78 2.954 2.954 0 0 0 -4 0 2.972 2.972 0 0 0 -4.816 1.22h-4.184v13a3 3 0 0 0 3 3h2v1a2.994 2.994 0 0 0 2.6 2.96l-6.544 18.709a1 1 0 0 0 .613 1.275 1.014 1.014 0 0 0 .331.056 1 1 0 0 0 .944-.669l3.266-9.331h9.58l3.266 9.331a1 1 0 0 0 .944.669 1.014 1.014 0 0 0 .331-.056 1 1 0 0 0 .613-1.275l-6.544-18.709a2.994 2.994 0 0 0 2.6-2.96v-1h2a3 3 0 0 0 3-3v-7h-20v-4h2.184a2.972 2.972 0 0 0 4.816 1.22 2.954 2.954 0 0 0 4 0 2.972 2.972 0 0 0 4.816-1.22h4.184v-2h-4.184a3 3 0 0 0 -2.816-2zm.09 30h-8.18l2.8-8h2.58zm-.09-11a1 1 0 0 1 -1 1h-6a1 1 0 0 1 -1-1v-1h8zm5-9v2h-4v2h4v1a1 1 0 0 1 -1 1h-16a1 1 0 0 1 -1-1v-1h8v-2h-8v-2zm-13-6a1 1 0 1 1 1-1 1 1 0 0 1 -1 1zm4 0a1 1 0 1 1 1-1 1 1 0 0 1 -1 1zm4 0a1 1 0 1 1 1-1 1 1 0 0 1 -1 1z"/></g></svg>