<?xml version="1.0" encoding="iso-8859-1"?>
<!-- Generator: Adobe Illustrator 19.0.0, SVG Export Plug-In . SVG Version: 6.00 Build 0)  -->
<svg version="1.1" id="Layer_1" xmlns="http://www.w3.org/2000/svg" xmlns:xlink="http://www.w3.org/1999/xlink" x="0px" y="0px"
	 viewBox="0 0 512 512" style="enable-background:new 0 0 512 512;" xml:space="preserve">
<circle style="fill:#35CCFF;" cx="256" cy="256" r="256"/>
<path style="fill:#00BAFF;" d="M502.272,185.863l-36.873-33.995l-34.733,11.378L306.148,59l-53.241,81.157L46.6,174.625
	l92.846,82.179L133.39,262l227.562,227.562c0.001,0,0.003-0.001,0.004-0.002c0.529-0.238,1.052-0.484,1.579-0.726
	c1.409-0.646,2.816-1.295,4.211-1.966c0.132-0.063,0.263-0.126,0.394-0.189C452.86,445.304,512,357.56,512,256
	C512,231.68,508.608,208.152,502.272,185.863z"/>
<path style="fill:#333333;" d="M460.799,409.616l-8.525-17.542l-152.978-37.523v-30.788h-86.591v30.788L59.726,392.075
	l-8.525,17.542C97.907,471.784,172.255,512,256,512S414.093,471.785,460.799,409.616z"/>
<path style="fill:#1A1A1A;" d="M452.274,392.075l-152.978-37.523v-30.788h-43.629v188.234c0.111,0,0.222,0.002,0.333,0.002
	c83.745,0,158.093-40.215,204.799-102.384L452.274,392.075z"/>
<path style="fill:#F1333F;" d="M452.274,392.075l-140.48-34.457l0,0c-30.814,30.814-80.774,30.814-111.589,0l0,0l-140.48,34.457
	L51.2,409.617C97.907,471.784,172.255,512,256,512s158.093-40.215,204.799-102.384L452.274,392.075z"/>
<path style="fill:#AE283F;" d="M452.274,392.075l-140.479-34.458l0,0c-15.492,15.492-35.823,23.188-56.127,23.103v131.277
	c0.111,0,0.222,0.002,0.333,0.002c83.745,0,158.093-40.215,204.799-102.384L452.274,392.075z"/>
<path style="fill:#333333;" d="M179.546,500.381c8.173,2.555,16.522,4.709,25.024,6.444l172.424-126.331l-5.629-8.265l-12.669-3.108
	L179.546,500.381z"/>
<polygon style="fill:#1A1A1A;" points="371.365,372.229 358.697,369.122 255.667,444.609 255.667,469.388 376.994,380.494 "/>
<circle style="fill:#EFD48F;" cx="155.86" cy="243.98" r="28.808"/>
<circle style="fill:#E7C46B;" cx="356.14" cy="243.98" r="28.808"/>
<path style="fill:#D39746;" d="M364.171,252.096V177.51C364.171,126.97,315.741,86,256,86l0,0
	c-59.741,0-108.171,40.97-108.171,91.51v74.587c0,4.568,0.401,9.056,1.165,13.445h214.012
	C363.77,261.153,364.171,256.664,364.171,252.096z"/>
<path style="fill:#C4873D;" d="M256,86L256,86c-0.112,0-0.222,0.003-0.333,0.003v179.538h107.339
	c0.764-4.388,1.165-8.877,1.165-13.444V177.51C364.171,126.97,315.741,86,256,86z"/>
<path style="fill:#FFECB3;" d="M259.607,336.634h-7.215c-53.315,0-96.536-43.221-96.536-96.536v-68.895
	c0-53.315,43.221-96.536,96.536-96.536h7.215c53.315,0,96.536,43.221,96.536,96.536v68.895
	C356.143,293.413,312.923,336.634,259.607,336.634z"/>
<path style="fill:#E8D3A0;" d="M356.143,171.193c-0.001-9.665-1.428-18.994-4.073-27.798c-12.222-38.571-50.604-66.728-96.07-66.728
	c-0.112,0-0.222,0.004-0.333,0.004v259.963h3.94c53.312,0,96.531-43.215,96.536-96.526V171.193z"/>
<ellipse style="fill:#D39746;" cx="256" cy="156.99" rx="106.08" ry="55.13"/>
<path style="fill:#C4873D;" d="M256,101.859c-0.111,0-0.222,0.002-0.333,0.002V212.12c0.111,0,0.222,0.002,0.333,0.002
	c58.588,0,106.083-24.683,106.083-55.132C362.083,126.542,314.588,101.859,256,101.859z"/>
<circle style="fill:#1A1A1A;" cx="313.02" cy="238.23" r="10.803"/>
<circle style="fill:#333333;" cx="198.98" cy="238.23" r="10.803"/>
<path style="fill:#EFD48F;" d="M260.801,252.583h-9.603c-7.955,0-14.404-6.449-14.404-14.404v-2.81h38.411v2.81
	C275.206,246.134,268.757,252.583,260.801,252.583z"/>
<path style="fill:#E7C46B;" d="M255.667,235.369v17.214h5.135c7.955,0,14.404-6.449,14.404-14.404v-2.81H255.667z"/>
<rect x="288.5" y="211.34" style="fill:#93562A;" width="44.584" height="14.888"/>
<rect x="178.92" y="211.34" style="fill:#A06738;" width="44.584" height="14.888"/>
<rect x="127.061" y="308.078" transform="matrix(-0.2382 -0.9712 0.9712 -0.2382 -192.6583 595.0983)" style="fill:#1A1A1A;" width="19.999" height="130.058"/>
<rect x="309.928" y="363.098" transform="matrix(-0.9712 -0.2382 0.2382 -0.9712 650.2474 824.7706)" width="130.058" height="19.999"/>
<circle style="fill:#FFDC00;" cx="256" cy="398.57" r="8.7"/>
<g>
	<path style="fill:#FFC000;" d="M256,389.866c-0.113,0-0.222,0.012-0.333,0.017v17.367c0.112,0.004,0.221,0.017,0.333,0.017
		c4.805,0,8.7-3.895,8.7-8.7C264.7,393.761,260.805,389.866,256,389.866z"/>
	<circle style="fill:#FFC000;" cx="271.03" cy="357.62" r="8.7"/>
</g>
<g>
	<circle style="fill:#FFDC00;" cx="240.97" cy="357.62" r="8.7"/>
	<circle style="fill:#FFDC00;" cx="256" cy="427.85" r="8.7"/>
</g>
<path style="fill:#FFC000;" d="M256,419.147c-0.113,0-0.222,0.013-0.333,0.017v17.367c0.112,0.004,0.221,0.017,0.333,0.017
	c4.805,0,8.7-3.896,8.7-8.7C264.7,423.042,260.805,419.147,256,419.147z"/>
<circle style="fill:#FFDC00;" cx="256" cy="456.15" r="8.7"/>
<path style="fill:#FFC000;" d="M256,447.452c-0.113,0-0.222,0.013-0.333,0.017v17.366c0.112,0.004,0.221,0.017,0.333,0.017
	c4.805,0,8.7-3.895,8.7-8.7C264.7,451.348,260.805,447.452,256,447.452z"/>
<circle style="fill:#FFDC00;" cx="256" cy="485.43" r="8.7"/>
<path style="fill:#FFC000;" d="M255.667,494.118c0.112,0.004,0.221,0.017,0.333,0.017c4.805,0,8.7-3.895,8.7-8.7
	c0-4.805-3.895-8.7-8.7-8.7c-0.113,0-0.222,0.013-0.333,0.017"/>
<polygon style="fill:#A06738;" points="375.648,165.442 136.352,165.442 211.198,59 306.148,59 "/>
<g>
	<polygon style="fill:#93562A;" points="306.148,59 255.667,59 255.667,165.443 375.648,165.443 	"/>
	<polygon style="fill:#93562A;" points="157.223,135.761 136.352,165.443 375.648,165.443 356.268,135.761 	"/>
</g>
<polygon style="fill:#7F4620;" points="356.268,135.761 255.667,135.761 255.667,165.443 375.648,165.443 "/>
<path style="fill:#C17B48;" d="M256.738,130.029L256.738,130.029c-18.011,0-31.156-13.129-26.594-26.561l13.059-38.448h28.009
	l12.239,38.81C287.658,117.172,274.549,130.029,256.738,130.029z"/>
<path style="fill:#A5663A;" d="M283.45,103.83l-12.239-38.81h-15.545v64.984c0.356,0.011,0.711,0.024,1.071,0.024l0,0
	C274.549,130.029,287.658,117.172,283.45,103.83z"/>
<rect x="46.6" y="151.87" style="fill:#7F4620;" width="418.8" height="22.757"/>
<rect x="255.67" y="151.87" style="fill:#593014;" width="209.73" height="22.758"/>
<path style="fill:#FF9451;" d="M255.667,303c-16.818,0-30.5-13.682-30.5-30.5h12c0,10.201,8.299,18.5,18.5,18.5
	s18.5-8.299,18.5-18.5h12C286.167,289.318,272.485,303,255.667,303z"/>
<path style="fill:#F7674F;" d="M255.667,291c10.201,0,18.5-8.299,18.5-18.5h12c0,16.818-13.682,30.5-30.5,30.5L255.667,291
	L255.667,291z"/>
<g>
</g>
<g>
</g>
<g>
</g>
<g>
</g>
<g>
</g>
<g>
</g>
<g>
</g>
<g>
</g>
<g>
</g>
<g>
</g>
<g>
</g>
<g>
</g>
<g>
</g>
<g>
</g>
<g>
</g>
</svg>
