<svg id="Capa_1" enable-background="new 0 0 512 512" height="512" viewBox="0 0 512 512" width="512" xmlns="http://www.w3.org/2000/svg"><circle cx="256" cy="256" fill="#a3d4ff" r="256"/><path d="m512 256c0-12.275-.883-24.342-2.554-36.156l-161.864-161.865-196.198 210.723 217.24 217.24c84.914-41.669 143.376-128.972 143.376-229.942z" fill="#65b1fc"/><path d="m190.714 364.853 48.204 146.566c5.648.373 11.34.581 17.082.581 24.883 0 48.93-3.564 71.676-10.186z" fill="#65b1fc"/><path d="m256 512c61.313 0 117.584-21.565 161.664-57.511l-26.921-42.178-91.067-41.101c-8.4-3.791-13.99-13.686-13.99-24.764v-24.442h-59.226v24.442c0 11.078-5.59 20.973-13.99 24.764l-91.068 41.101-25.648 43.32c43.867 35.258 99.587 56.369 160.246 56.369z" fill="#faa68e"/><path d="m417.664 454.489-26.921-42.178-91.067-41.101c-8.4-3.791-13.99-13.686-13.99-24.764v-24.442h-29.686v189.992c-.27 0-.135.004 0 .004 61.313 0 117.583-21.565 161.664-57.511z" fill="#e09380"/><path d="m390.743 412.311-81.815-36.925c-12.902 15.253-32.171 24.949-53.713 24.949-21.278 0-40.333-9.462-53.231-24.392l-80.582 36.368-25.648 43.32c43.867 35.258 99.587 56.369 160.246 56.369 61.313 0 117.584-21.565 161.664-57.511z" fill="#fa5d0f"/><path d="m417.664 454.489-26.921-42.179-81.815-36.925c-12.825 15.163-31.944 24.83-52.927 24.943v111.667c-.27 0-.135.004 0 .004 61.312.001 117.582-21.564 161.663-57.51z" fill="#d13400"/><path d="m256 127.096c-46.281 0-83.8 37.519-83.8 83.8v38.775c0 31.675 17.715 60.691 45.89 75.165l19.013 9.767c11.861 6.093 25.932 6.093 37.792 0l19.013-9.767c28.175-14.474 45.89-43.489 45.89-75.165v-38.775c.002-46.282-37.517-83.8-83.798-83.8z" fill="#ffbeaa"/><path d="m256 127.096c-.136 0-.269.01 0 .01v212.054c6.213.065 12.842-1.448 18.896-4.558l19.013-9.767c28.175-14.474 45.89-43.489 45.89-75.165v-38.775c.001-46.281-37.518-83.799-83.799-83.799z" fill="#faa68e"/><path d="m360.616 268.702h-209.232v-180.152c0-23.419 18.985-42.404 42.404-42.404h124.424c23.419 0 42.404 18.985 42.404 42.404z" fill="#414952"/><path d="m360.616 88.55c0-23.419-18.985-42.404-42.404-42.404h-62.212v222.556h104.616z" fill="#23272b"/><path d="m256 372.667-54.016-33.12v42l54.016 33.12 54.016-33.12v-42z" fill="#414952"/><path d="m256 372.667v42l54.016-33.12v-42z" fill="#23272b"/><path d="m120.574 378.548h77.5v24h-77.5z" fill="#ffce00" transform="matrix(.927 -.376 .376 .927 -135.218 88.626)"/><path d="m313.926 378.548h77.5v24h-77.5z" fill="#ffa426" transform="matrix(-.927 -.376 .376 -.927 532.522 885.082)"/><g fill="#fff"><circle cx="272.333" cy="435" r="10.333"/><circle cx="272.333" cy="473.5" r="10.333"/></g></svg>