<?xml version="1.0" encoding="UTF-8"?>
<svg viewBox="0 0 640 480" xmlns="http://www.w3.org/2000/svg">
 <g fill-rule="evenodd" stroke="#000" stroke-width="2">
  <path d="m317 173.25l1-0.25 0.5 1.75c0.33334 1.1667 1.3333 1.75 3 1.75h2.5l0.5-0.75 0.5-0.75 0.5 1c0.33334 0.66667 1.25 1.5 2.75 2.5l2.25 1.5-0.25 2c-0.16666 1.3333-0.58331 2.1667-1.25 2.5l-1 0.5-1.25-0.5-1.25-0.5-2.25 1.25c-1.5 0.83334-2.25 1.5-2.25 2v0.75l-1 2-1 2-1 1.5-1 1.5h-1l-6-0.75-6-0.75-1.5 0.5c-1 0.33334-2 0.91667-3 1.75l-1.5 1.25-0.5-0.25-0.5-0.25-4 0.5c-2.6667 0.33334-4.6667 1-6 2s-2.6667 1.5833-4 1.75l-2 0.25 1.25-8.5c0.83334-5.6667 1.1667-9.6667 1-12l-0.25-3.5 7.5 0.5 7.5 0.5v-3h1v1c0 0.66667 2.8333 0.41667 8.5-0.75s8.8333-1.8333 9.5-2z"/>
  <path d="m343 122.25l-3-0.25 0.25-0.5 0.25-0.5v-3.5c0-2.3333-0.33331-4.6667-1-7-0.66666-2.3333-1.5833-4.6667-2.75-7l-1.75-3.5h-2v-1l8.5-1.75c5.6667-1.1667 10-2.4167 13-3.75s5-2.5 6-3.5 2.3333-2 4-3 3.3333-1.9167 5-2.75c1.6667-0.83333 5.6667-1.4167 12-1.75l9.5-0.5-0.5 1.75c-0.33331 1.1667-1.5 2-3.5 2.5s-2.9167 3.0833-2.75 7.75l0.25 7-2.25 1.75c-1.5 1.1667-5.0833 2.3333-10.75 3.5l-8.5 1.75-0.5 1.25c-0.33331 0.83334-2.1667 2.4167-5.5 4.75s-6 4.3333-8 6-4 2.4167-6 2.25z"/>
  <g fill="#f00">
   <path d="m332.5 102l0.5-2h2l1.75 3.5c1.1667 2.3333 2.0833 4.6667 2.75 7 0.66669 2.3333 1 4.6667 1 7v3.5l-0.25 0.5-0.25 0.5-1 0.25c-0.66666 0.16667-1.8333 0.75-3.5 1.75s-4.3333 2-8 3-8.8333 2.4167-15.5 4.25l-10 2.75-2-0.5-2-0.5 0.5-1.25c0.33334-0.83333-0.75-3.6667-3.25-8.5s-4.1667-8.0833-5-9.75c-0.83331-1.6667-1.5833-2.6667-2.25-3l-1-0.5v-2l1.5-0.25c1-0.16666 3.6667 0.083344 8 0.75 4.3333 0.66667 9.8333 0.33334 16.5-1s11.5-2.25 14.5-2.75 4.6667-1.4167 5-2.75z"/>
   <path d="m285 111.25l2-1.25 1 0.5c0.66669 0.33334 1.4167 1.3333 2.25 3 0.83334 1.6667 2.5 4.9167 5 9.75s3.5833 7.6667 3.25 8.5l-0.5 1.25 2 0.5 2 0.5 0.75 9c0.5 6 0.25 12.167-0.75 18.5-1 6.3333-1.75 10.167-2.25 11.5l-0.75 2h-1v3l-7.5-0.5-7.5-0.5v-1l-1.5 0.25c-1 0.16667-2.1667 0.083344-3.5-0.25l-2-0.5-1.25-2.75c-0.83331-1.8333-1.9167-4.75-3.25-8.75s-2.3333-9-3-15c-0.66666-6-1.0833-9.8333-1.25-11.5l-0.25-2.5 0.25-1.5c0.16669-1 0.66669-1.6667 1.5-2l1.25-0.5-1.5-7c-1-4.6667-1.8333-7.3333-2.5-8l-1-1 3.5 0.75c2.3333 0.5 4.1667 0.25 5.5-0.75s2.6667-1.4167 4-1.25l2 0.25v-1l0.5-0.5 0.5-0.5 1 0.25c0.66669 0.16667 1.6667-0.16666 3-1z"/>
   <path d="m249.75 107l4.25-3 1 0.5c0.66667 0.33334 1.3333 1.5 2 3.5 0.66669 2 1.4167 3.1667 2.25 3.5 0.83334 0.33334 1.5 1.1667 2 2.5l0.75 2-6 0.75c-4 0.5-7.3333 0-10-1.5l-4-2.25 1.75-1.5c1.1667-1 3.1667-2.5 6-4.5z"/>
   <path d="m241 113h1l4 2.25c2.6667 1.5 6 2 10 1.5l6-0.75 1.5-1 1.5-1v1l1 1c0.66669 0.66667 1.5 3.3333 2.5 8l1.5 7-1.25 0.5c-0.83331 0.33334-1.3333 1-1.5 2l-0.25 1.5-0.5 0.25c-0.33331 0.16667-0.83331 0-1.5-0.5-0.66666-0.5-3-0.83333-7-1-4-0.16666-9-0.16666-15 0l-9 0.25v-3l0.75-4c0.5-2.6667 1.5-5.6667 3-9l2.25-5h1z"/>
   <path d="m233.5 131h0.5v3l9-0.25c6-0.16666 11-0.16666 15 0 4 0.16667 6.3333 0.5 7 1 0.66669 0.5 1.1667 0.66667 1.5 0.5l0.5-0.25 0.25 2.5c0.16669 1.6667 0.58334 5.5 1.25 11.5 0.66669 6 1.6667 11 3 15s2.4167 6.9167 3.25 8.75l1.25 2.75 2 0.5c1.3333 0.33334 2.5 0.41667 3.5 0.25l1.5-0.25v1l0.25 3.5c0.16669 2.3333-0.16666 6.3333-1 12l-1.25 8.5v1l-5 1.5-5 1.5-5.5 1-5.5 1-3-1.75c-2-1.1667-4.5-2.1667-7.5-3-3-0.83333-4.5833-1.5833-4.75-2.25-0.16666-0.66666-0.83333-1.4167-2-2.25-1.1667-0.83333-2.0833-2-2.75-3.5-0.66666-1.5-1.1667-2.25-1.5-2.25h-0.5l0.25-0.5c0.16667-0.33333-0.58333-7-2.25-20s-2.5833-23-2.75-30l-0.25-10.5h0.5z"/>
  </g>
  <path d="m265.5 206l5.5-1 1 1.25c0.66669 0.83334 1.6667 1.6667 3 2.5 1.3333 0.83334 2.75 1.5833 4.25 2.25 1.5 0.66667 2.6667 1.75 3.5 3.25 0.83334 1.5 1.6667 2.6667 2.5 3.5 0.83334 0.83334 1.6667 2 2.5 3.5 0.83334 1.5 1.5833 2.8333 2.25 4l1 1.75h1l2.25 5c1.5 3.3333 3.0833 6.5 4.75 9.5s2.75 4.9167 3.25 5.75l0.75 1.25 0.5 0.25 0.5 0.25 1.75 3c1.1667 2 2.6667 5.5 4.5 10.5l2.75 7.5-1 0.5-1 0.5-6 0.75c-4 0.5-7.5 1.25-10.5 2.25s-4.8333 1.9167-5.5 2.75l-1 1.25-2.25-1.5c-1.5-1-3.5-2-6-3s-3.75-2-3.75-3-0.33331-1.5833-1-1.75c-0.66666-0.16666-2.9167-2.3333-6.75-6.5s-6.3333-7.25-7.5-9.25-3.4167-4-6.75-6l-5-3-0.25-4c-0.16666-2.6667-0.33333-4.0833-0.5-4.25l-0.25-0.25 0.5-1.25c0.33334-0.83333 1-3.25 2-7.25s1.3333-6 1-6h-0.5l1.75-3c1.1667-2 2.3333-4.1667 3.5-6.5l1.75-3.5 1-0.5 1-0.5 5.5-1z"/>
  <path d="m236.75 199l1.25-7h0.5c0.33334 0 0.83334 0.75 1.5 2.25 0.66667 1.5 1.5833 2.6667 2.75 3.5 1.1667 0.83334 1.8333 1.5833 2 2.25 0.16667 0.66667 1.75 1.4167 4.75 2.25 3 0.83334 5.5 1.8333 7.5 3l3 1.75-1 0.5-1 0.5-1.75 3.5c-1.1667 2.3333-2.3333 4.5-3.5 6.5l-1.75 3-1.25 2-1.25 2-3 8.5c-2 5.6667-3.8333 15.167-5.5 28.5s-2.6667 20.167-3 20.5l-0.5 0.5-0.75-0.75c-0.5-0.5-1.6667-3.1667-3.5-8s-3.1667-12.083-4-21.75l-1.25-14.5-0.25-3c-0.16666-2-0.16666-3.8333 0-5.5l0.25-2.5 2.75-8c1.8333-5.3333 3.25-8.8333 4.25-10.5s1.9167-4.8333 2.75-9.5z" fill="#f00"/>
  <path d="m249.75 223l1.25-2h0.5c0.33334 0 0 2-1 6s-1.6667 6.4167-2 7.25l-0.5 1.25 0.25 0.25c0.16667 0.16667 0.33334 1.5833 0.5 4.25l0.25 4h-1l-0.75 4.5c-0.5 3-0.41666 8.6667 0.25 17 0.66667 8.3333 0.91667 14.667 0.75 19l-0.25 6.5-4 0.25c-2.6667 0.16669-5.6667 0.083344-9-0.25-3.3333-0.33331-5.0833-0.58331-5.25-0.75-0.16666-0.16666-0.83333-0.58331-2-1.25l-1.75-1-1-19.5-1-19.5 0.75-2 0.75-2 0.25-3.5c0.16667-2.3333 0.41667-3.5 0.75-3.5h0.5l1.25 14.5c0.83334 9.6667 2.1667 16.917 4 21.75 1.8333 4.8333 3 7.5 3.5 8l0.75 0.75 0.5-0.5c0.33334-0.33331 1.3333-7.1667 3-20.5s3.5-22.833 5.5-28.5l3-8.5 1.25-2z" fill="#fff"/>
  <g fill="#00f">
   <path d="m214 227.25l13-0.25-0.25 2.5c-0.16666 1.6667-0.16666 3.5 0 5.5l0.25 3h-0.5c-0.33333 0-0.58333 1.1667-0.75 3.5l-0.25 3.5-0.75 2-0.75 2-1.25 0.5c-0.83333 0.33334-2.0833 3.8333-3.75 10.5s-2.1667 14.667-1.5 24c0.66667 9.3333 1.25 15 1.75 17l0.75 3 15.5 3.25c10.333 2.1667 19.667 3.5833 28 4.25 8.3333 0.66669 12.833 0.91669 13.5 0.75 0.66669-0.16666 1.3333-0.25 2-0.25h1v1h5v6c0 0.66669-1 1.3333-3 2-2 0.66669-3 1.3333-3 2 0 0.66669-2.8333 1.4167-8.5 2.25-5.6667 0.83334-11.333 1.0833-17 0.75-5.6667-0.33331-12.333-1.3333-20-3-7.6667-1.6667-13.5-3.1667-17.5-4.5s-7.25-2.9167-9.75-4.75l-3.75-2.75-0.5-3c-0.33333-2-0.83333-8.8333-1.5-20.5-0.66666-11.667 0.33334-22.333 3-32 2.6667-9.6667 3.6667-15.667 3-18l-1-3.5-0.75-0.75c-0.5-0.5-3.75-1.1667-9.75-2l-9-1.25v-0.5c0-0.33333 2.5-0.75 7.5-1.25s11.833-0.83333 20.5-1z"/>
   <path d="m327 291.5v-2.5l9.25 0.5 9.25 0.5 0.75 2 0.75 2-2.5 1.5-2.5 1.5 0.25 10.5c0.16669 7 0 11.083-0.5 12.25l-0.75 1.75-0.5 0.5c-0.33331 0.33334-4.1667 0.91669-11.5 1.75l-11 1.25h-5l-0.75-11.5c-0.5-7.6667-0.58331-12.167-0.25-13.5l0.5-2 0.25-1 0.25-1h2l-0.25 1c-0.16666 0.66669-0.33331 2.8333-0.5 6.5-0.16666 3.6667 0.25 5.5833 1.25 5.75l1.5 0.25 4 0.25c2.6667 0.16669 4.0833-0.083313 4.25-0.75 0.16669-0.66666 0.5-3.3333 1-8s0.75-7.8333 0.75-9.5z"/>
   <path d="m343.5 242h0.5l0.75 1c0.5 0.66667 2.4167 3 5.75 7s5.3333 7 6 9c0.66669 2 0.66669 5.8333 0 11.5-0.66666 5.6667-2 9.8333-4 12.5s-2.75 4.1667-2.25 4.5c0.5 0.33334 0.66669 1.1667 0.5 2.5-0.16666 1.3333-0.66666 2.25-1.5 2.75l-1.25 0.75-0.5 0.25-0.5 0.25-0.75-2-0.75-2-9.25-0.5-9.25-0.5-2.5-0.25c-1.6667-0.16666-2.6667-0.41666-3-0.75l-0.5-0.5-2-0.5c-1.3333-0.33331-2.3333 1.0833-3 4.25l-1 4.75h-2l1-11c0.66669-7.3333 1.3333-11 2-11h1l-3-1.5-3-1.5 1-0.5 1-0.5-2.75-7.5c-1.8333-5-3.3333-8.5-4.5-10.5l-1.75-3 0.25-0.5 0.25-0.5 1.75 1.25c1.1667 0.83334 2.75 1.4167 4.75 1.75 2 0.33334 3.3333 0.41667 4 0.25l1-0.25 1 1.75c0.66669 1.1667 1.3333 2 2 2.5l1 0.75h-4l1.25 4.5c0.83334 3 2.25 5.8333 4.25 8.5s4.0833 4.9167 6.25 6.75 5.0833 2.5833 8.75 2.25l5.5-0.5 1.75-1.75c1.1667-1.1667 2.0833-3.25 2.75-6.25l1-4.5-2.25-3.75c-1.5-2.5-2.9167-4.3333-4.25-5.5l-2-1.75 0.25-2c0.16669-1.3333 0.25-2.1667 0.25-2.5 0-0.33333 0.083344-0.91666 0.25-1.75 0.16669-0.83333 0.75-2 1.75-3.5l1.5-2.25h0.5z"/>
   <path d="m326 211.75l2 1.25h1l1.5 2.75 1.5 2.75 2.5 2.25 2.5 2.25 1 1c0.66669 0.66667 1.5833 2.1667 2.75 4.5s1.9167 4.5 2.25 6.5c0.33334 2 0.5 3.5 0.5 4.5v1.5l0.25 0.5 0.25 0.5-0.75 1c-0.5 0.66667-1.1667 1.4167-2 2.25-0.83331 0.83334-1.3333 1.6667-1.5 2.5-0.16666 0.83334-0.25 1.4167-0.25 1.75 0 0.33334-0.083313 1.1667-0.25 2.5l-0.25 2-0.5 0.75-0.5 0.75-1 0.5c-0.66666 0.33334-3.1667 0.66669-7.5 1l-6.5 0.5-1.5-0.75-1.5-0.75-1-0.75c-0.66666-0.5-1.3333-1.3333-2-2.5l-1-1.75-2.5 0.25c-1.6667 0.16667-3.5-0.25-5.5-1.25s-3.1667-1.4167-3.5-1.25l-0.5 0.25-0.5-0.25-0.5-0.25-0.75-1.25c-0.5-0.83333-1.5833-2.75-3.25-5.75s-3.25-6.1667-4.75-9.5l-2.25-5 1.75-4c1.1667-2.6667 2.3333-5.5 3.5-8.5s2.25-4.5 3.25-4.5h1.5l-1-2-1-2 5-0.75c3.3333-0.5 6.1667-0.41666 8.5 0.25 2.3333 0.66667 4.6667 1.6667 7 3s4.1667 2.4167 5.5 3.25zm-15 2.75c2 0 3.6667 0.66667 5 2s4.4167 4.25 9.25 8.75l7.25 6.75-1 5c-0.66666 3.3333-1.25 5.4167-1.75 6.25l-0.75 1.25-2 0.5c-1.3333 0.33334-3.1667 0-5.5-1s-4.8333-2-7.5-3-4.0833-1.5833-4.25-1.75l-0.25-0.25-1.5-2.5c-1-1.6667-1.8333-4.8333-2.5-9.5-0.66666-4.6667-0.75-7.75-0.25-9.25l0.75-2.25 1-0.5c0.66669-0.33333 2-0.5 4-0.5z"/>
  </g>
  <g fill="#fff">
   <path d="m248.5 244h0.5l5 3c3.3333 2 5.5833 4 6.75 6s3.6667 5.0833 7.5 9.25 6.0833 6.3333 6.75 6.5c0.66669 0.16669 1 0.75 1 1.75s1.25 2 3.75 3 4.5 2 6 3l2.25 1.5h1l-0.5 1c-0.33331 0.66669-1.1667 1.25-2.5 1.75l-2 0.75 1.75 2.75c1.1667 1.8333 1.9167 3.75 2.25 5.75 0.33334 2 0.083344 6.0833-0.75 12.25l-1.25 9.25-3 0.25-3 0.25h-1c-0.66666 0-1.3333 0.083344-2 0.25-0.66666 0.16669-5.1667-0.083313-13.5-0.75-8.3333-0.66666-17.667-2.0833-28-4.25l-15.5-3.25-0.75-3c-0.5-2-1.0833-7.6667-1.75-17-0.66666-9.3333-0.16666-17.333 1.5-24 1.6667-6.6667 2.9167-10.167 3.75-10.5l1.25-0.5 1 19.5 1 19.5 1.75 1c1.1667 0.66669 1.8333 1.0833 2 1.25 0.16667 0.16669 1.9167 0.41669 5.25 0.75 3.3333 0.33334 6.3333 0.41669 9 0.25l4-0.25 0.25-6.5c0.16667-4.3333-0.083328-10.667-0.75-19-0.66666-8.3333-0.75-14-0.25-17l0.75-4.5h0.5z"/>
   <path d="m311 214.5c2 0 3.6667 0.66667 5 2s4.4167 4.25 9.25 8.75l7.25 6.75-1 5c-0.66666 3.3333-1.25 5.4167-1.75 6.25l-0.75 1.25-2 0.5c-1.3333 0.33334-3.1667 0-5.5-1s-4.8333-2-7.5-3-4.0833-1.5833-4.25-1.75l-0.25-0.25-1.5-2.5c-1-1.6667-1.8333-4.8333-2.5-9.5-0.66666-4.6667-0.75-7.75-0.25-9.25l0.75-2.25 1-0.5c0.66669-0.33333 2-0.5 4-0.5z"/>
   <path d="m324.5 288.75l2.5 0.25v2.5c0 1.6667-0.25 4.8333-0.75 9.5s-0.83331 7.3333-1 8c-0.16666 0.66669-1.5833 0.91669-4.25 0.75l-4-0.25-1.5-0.25c-1-0.16666-1.4167-2.0833-1.25-5.75 0.16669-3.6667 0.33334-5.8333 0.5-6.5l0.25-1 1-4.75c0.66669-3.1667 1.6667-4.5833 3-4.25l2 0.5 0.5 0.5c0.33334 0.33334 1.3333 0.58334 3 0.75z"/>
   <path d="m338.5 254.75l0.5-0.75 2 1.75c1.3333 1.1667 2.75 3 4.25 5.5l2.25 3.75-1 4.5c-0.66666 3-1.5833 5.0833-2.75 6.25l-1.75 1.75-5.5 0.5c-3.6667 0.33334-6.5833-0.41666-8.75-2.25s-4.25-4.0833-6.25-6.75-3.4167-5.5-4.25-8.5l-1.25-4.5h4l1.5 0.75 1.5 0.75 6.5-0.5c4.3333-0.33331 6.8333-0.66666 7.5-1l1-0.5 0.5-0.75z"/>
  </g>
  <g fill="#f00">
   <path d="m297.5 196.75l0.5 0.25 1 4.5 1 4.5 1 2 1 2h-1.5c-1 0-2.0833 1.5-3.25 4.5s-2.3333 5.8333-3.5 8.5l-1.75 4h-1l-1-1.75c-0.66666-1.1667-1.4167-2.5-2.25-4-0.83331-1.5-1.6667-2.6667-2.5-3.5-0.83331-0.83333-1.6667-2-2.5-3.5-0.83331-1.5-2-2.5833-3.5-3.25-1.5-0.66666-2.9167-1.4167-4.25-2.25-1.3333-0.83333-2.3333-1.6667-3-2.5l-1-1.25 5-1.5 5-1.5v-1l2-0.25c1.3333-0.16666 2.6667-0.75 4-1.75s3.3333-1.6667 6-2l4-0.5 0.5 0.25z"/>
   <path d="m254.5 101h0.5l0.5 0.75c0.33334 0.5 3.8333 1 10.5 1.5s10.167 2.0833 10.5 4.75c0.33334 2.6667 1 4.1667 2 4.5l1.5 0.5v1l-2-0.25c-1.3333-0.16666-2.6667 0.25-4 1.25s-3.1667 1.25-5.5 0.75l-3.5-0.75v-1l-1.5 1-1.5 1-0.75-2c-0.5-1.3333-1.1667-2.1667-2-2.5-0.83331-0.33333-1.5833-1.5-2.25-3.5-0.66666-2-1.3333-3.1667-2-3.5l-1-0.5v-3h0.5z"/>
   <path d="m284.5 98.25l1.5-0.25 0.25 4.5 0.25 4.5 0.25 0.5 0.25 0.5v2l-2 1.25c-1.3333 0.83334-2.3333 1.1667-3 1l-1-0.25-0.25-5.5c-0.16666-3.6667 0.16669-5.9167 1-6.75l1.25-1.25 1.5-0.25z"/>
  </g>
  <path d="m286 92.5v5.5l-1.5 0.25-1.5 0.25-1.25 1.25c-0.83331 0.83334-1.1667 3.0833-1 6.75l0.25 5.5-0.5 0.5-0.5 0.5-1.5-0.5c-1-0.33333-1.6667-1.8333-2-4.5-0.33331-2.6667-3.8333-4.25-10.5-4.75s-10.167-1-10.5-1.5l-0.5-0.75v-2l9-0.25c6-0.16666 9.6667-0.41666 11-0.75l2-0.5 2.25-1.75c1.5-1.1667 2.3333-2.0833 2.5-2.75 0.16669-0.66666 0.91669-1 2.25-1h2v0.5z" fill="#fff"/>
  <path d="m292.75 84l-0.75 3-1 0.25c-0.66666 0.16667-1.4167 1-2.25 2.5-0.83331 1.5-1.5 2.4167-2 2.75l-0.75 0.5v-1h-2c-1.3333 0-2.0833 0.33334-2.25 1-0.16666 0.66667-1 1.5833-2.5 2.75l-2.25 1.75-2 0.5c-1.3333 0.33334-5 0.58334-11 0.75l-9 0.25-0.5-17-0.5-17 1.25-1c0.83334-0.66666 1.5-1.4167 2-2.25l0.75-1.25 5.5 1c3.6667 0.66667 5.6667 1.1667 6 1.5 0.33334 0.33334 2 1.1667 5 2.5s6.5833 3.75 10.75 7.25 6.5833 5.75 7.25 6.75l1 1.5-0.75 3z" fill="#ffd4aa"/>
  <path d="m307 13.5v2c0 1-0.66666 1.9167-2 2.75-1.3333 0.83333-2.5 1.9167-3.5 3.25l-1.5 2-0.75 1.75c-0.5 1.1667-1.4167 3.75-2.75 7.75s-2.0833 6.0833-2.25 6.25l-0.25 0.25 1.5 2c1 1.3333 2.0833 2.9167 3.25 4.75s1.9167 3.25 2.25 4.25c0.33334 1 0.75 2.5 1.25 4.5l0.75 3 0.5 0.75 0.5 0.75-0.75 1.25c-0.5 0.83334-1.0833 3.25-1.75 7.25-0.66666 4-0.66666 7.3333 0 10 0.66669 2.6667 1.8333 5.1667 3.5 7.5s3.25 4 4.75 5 2.3333 2.3333 2.5 4l0.25 2.5-0.25 0.25c-0.16666 0.16667-1.75 0.083344-4.75-0.25-3-0.33333-4.9167-0.75-5.75-1.25-0.83331-0.5-2.6667-1.25-5.5-2.25l-4.25-1.5v-5l0.75-3 0.75-3-1-1.5c-0.66666-1-3.0833-3.25-7.25-6.75s-7.75-5.9167-10.75-7.25-4.6667-2.1667-5-2.5c-0.33331-0.33333-2.3333-0.83333-6-1.5l-5.5-1-0.75 1.25c-0.5 0.83334-1.1667 1.5833-2 2.25l-1.25 1-1-0.75c-0.66666-0.5-3.5-1.9167-8.5-4.25s-8.1667-3.8333-9.5-4.5c-1.3333-0.66666-2.5-1.5833-3.5-2.75l-1.5-1.75 4 0.5c2.6667 0.33334 4.1667 0.25 4.5-0.25 0.33334-0.5 2.3333-1.0833 6-1.75 3.6667-0.66666 5.8333-1.1667 6.5-1.5l1-0.5 7.5-8.5c5-5.6667 8.8333-9.1667 11.5-10.5l4-2 0.25-0.25c0.16669-0.16667 0.91669-1.5833 2.25-4.25s2.8333-5 4.5-7 2.5833-3.0833 2.75-3.25l0.25-0.25 2.5-0.5c1.6667-0.33333 4.1667-0.83333 7.5-1.5s6-1.0833 8-1.25c2-0.16667 2.9167 0.41667 2.75 1.75l-0.25 2 0.75 0.5c0.5 0.33333 0.75 0.66667 0.75 1z"/>
  <path d="m307 15.5v-1.5h0.5c0.33334 0 0.83334 0.5 1.5 1.5 0.66669 1 1.5 2.4167 2.5 4.25s1.9167 3.1667 2.75 4c0.83334 0.83333 1.4167 1.4167 1.75 1.75l0.5 0.5 0.75 5.5c0.5 3.6667 1.3333 5.6667 2.5 6 1.1667 0.33334 1.9167 0.83334 2.25 1.5l0.5 1 1.25 5.25c0.83334 3.5 1.5 5.5 2 6s0.75 1.4167 0.75 2.75v2l-3.5 7.5c-2.3333 5-3.8333 8.1667-4.5 9.5l-1 2-1.25-1.5c-0.83331-1-1.5833-3.1667-2.25-6.5-0.66666-3.3333-1.6667-5.0833-3-5.25-1.3333-0.16666-2.3333-0.91666-3-2.25-0.66666-1.3333-1.6667-1.9167-3-1.75l-2 0.25h-1l-0.25-3c-0.16666-2-0.41666-3.5-0.75-4.5-0.33331-1-1.0833-2.4167-2.25-4.25s-2.25-3.4167-3.25-4.75l-1.5-2 0.25-0.25c0.16669-0.16666 0.91669-2.25 2.25-6.25s2.25-6.5833 2.75-7.75l0.75-1.75 1.5-2c1-1.3333 2.1667-2.4167 3.5-3.25 1.3333-0.83333 2-1.75 2-2.75z"/>
  <path d="m326.25 171.5l-1.25 3.5-0.5 0.75-0.5 0.75h-2.5c-1.6667 0-2.6667-0.58333-3-1.75l-0.5-1.75 1.75-1.5c1.1667-1 2.3333-2.9167 3.5-5.75s2.4167-4.25 3.75-4.25h2l2 1.5c1.3333 1 2 1.8333 2 2.5 0 0.66667-0.91666 1.25-2.75 1.75s-3.1667 1.9167-4 4.25z" fill="#636363"/>
  <path d="m326.75 184.5l1.25 0.5 1.75 5c1.1667 3.3333 2.1667 6.75 3 10.25 0.83334 3.5 1.5833 5.3333 2.25 5.5l1 0.25 1 0.75c0.66669 0.5 1.0833 0.83334 1.25 1 0.16669 0.16667 0.91669 1.75 2.25 4.75s3.75 6.25 7.25 9.75 7.3333 7.1667 11.5 11 6.6667 6.1667 7.5 7c0.83334 0.83334 2.0833 2.4167 3.75 4.75s3.6667 4.25 6 5.75 3.9167 3.0833 4.75 4.75c0.83334 1.6667 1.8333 2.6667 3 3 1.1667 0.33334 2.6667 0.83334 4.5 1.5 1.8333 0.66669 3.1667 1.25 4 1.75l1.25 0.75 1.5 1.75c1 1.1667 1.3333 2.75 1 4.75-0.33331 2 0.16669 3.4167 1.5 4.25l2 1.25 2 0.5c1.3333 0.33334 3.25 0.41669 5.75 0.25 2.5-0.16666 4-0.25 4.5-0.25h2.75l0.75-5c0.5-3.3333 0.83334-6.1667 1-8.5l0.25-3.5h1l1 1c0.66669 0.66669 1.1667 1.5833 1.5 2.75 0.33334 1.1667 1.3333 2.25 3 3.25s4.5 1.5 8.5 1.5 6.5 0.083344 7.5 0.25c1 0.16669 2.25 0.083344 3.75-0.25 1.5-0.33331 2.3333-0.83331 2.5-1.5 0.16669-0.66666 1.0833-1.0833 2.75-1.25l2.5-0.25 5.5 0.5c3.6667 0.33334 6.5-0.33331 8.5-2s3.1667-3.0833 3.5-4.25l0.5-1.75h2l0.25 2.5 0.25 2.5 0.25 1.5 0.25 1.5h-1.75c-1.1667 0-2.6667 0.58334-4.5 1.75s-5.5833 3.0833-11.25 5.75-9.8333 4.4167-12.5 5.25c-2.6667 0.83334-3.9167 1.5833-3.75 2.25l0.25 1 0.25-0.25c0.16669-0.16666 2.9167-0.91666 8.25-2.25s10.833-2.9167 16.5-4.75c5.6667-1.8333 8.5-3.0833 8.5-3.75v-1l0.75 1c0.5 0.66669 1.0833 2.1667 1.75 4.5l1 3.5 1.25-1.75c0.83334-1.1667 1.5-1.6667 2-1.5 0.5 0.16669 0.75 0.41669 0.75 0.75 0 0.33334 0.33334 1.1667 1 2.5 0.66669 1.3333 1.0833 1.6667 1.25 1 0.16669-0.66666 1.0833-0.58331 2.75 0.25 1.6667 0.83334 2.5833 1.3333 2.75 1.5l0.25 0.25 0.25 0.5 0.25 0.5-3 1.5c-2 1-2.75 2.5-2.25 4.5s0.58334 3.8333 0.25 5.5l-0.5 2.5-1.25 1.25c-0.83331 0.83334-4.4167 1.75-10.75 2.75s-12.333 1.3333-18 1c-5.6667-0.33331-9.8333-0.83331-12.5-1.5-2.6667-0.66666-5.5-1.3333-8.5-2-3-0.66666-4.6667-0.083313-5 1.75l-0.5 2.75h-1v-2.5c0-1.6667-0.41666-2.8333-1.25-3.5l-1.25-1-0.5-1.5c-0.33331-1-1.25-1.6667-2.75-2-1.5-0.33331-2.3333 0.16669-2.5 1.5-0.16666 1.3333-0.75 1.1667-1.75-0.5s-2.0833-2.4167-3.25-2.25l-1.75 0.25-1.5-4.25c-1-2.8333-2.3333-4.6667-4-5.5-1.6667-0.83331-3.8333-1.3333-6.5-1.5-2.6667-0.16666-5.1667-1.1667-7.5-3l-3.5-2.75-0.5-0.5c-0.33331-0.33331-0.41666-1.25-0.25-2.75 0.16669-1.5-0.91666-3.4167-3.25-5.75s-5.3333-5.6667-9-10-6.3333-7.5-8-9.5-4.75-5.0833-9.25-9.25-7.3333-6.8333-8.5-8l-3-3c-0.83331-0.83333-1.5833-1.6667-2.25-2.5l-1-1.25h-5v3l-2.5-2.25-2.5-2.25-1.5-2.75-1.5-2.75h-1l-0.25-3.5c-0.16666-2.3333-0.83331-4.0833-2-5.25s-2.75-2.5833-4.75-4.25-3.3333-2.9167-4-3.75l-1-1.25h1l1-1.5 1-1.5 1.5 1.25c1 0.83334 1.75 0.33334 2.25-1.5s0.33334-2.9167-0.5-3.25l-1.25-0.5v-0.75c0-0.5 0.75-1.1667 2.25-2l2.25-1.25 1.25 0.5zm140.25 90.5c2-0.66666 2.8333 1.0833 2.5 5.25-0.33331 4.1667-1.8333 6.5833-4.5 7.25-2.6667 0.66669-6.4167 1.25-11.25 1.75s-7.3333 1.0833-7.5 1.75l-0.25 1 11.5 0.5c7.6667 0.33334 11.667 0.083344 12-0.75 0.33334-0.83331 0.91669-1.5 1.75-2 0.83334-0.5 1.3333-2.5 1.5-6l0.25-5.25 1.25 0.25c0.83334 0.16669 1.6667 2.5 2.5 7 0.83334 4.5 0.41669 7.25-1.25 8.25s-3.5 1.6667-5.5 2c-2 0.33334-7.5 0.16669-16.5-0.5-9-0.66666-15.167-1.4167-18.5-2.25-3.3333-0.83331-5-1.5833-5-2.25v-1l-2-1.5c-1.3333-1 1.1667-0.83331 7.5 0.5s9.1667 1.6667 8.5 1c-0.66666-0.66666-1.3333-2-2-4-0.66666-2 1.6667-3.5833 7-4.75s9.1667-2.3333 11.5-3.5 4.5-2.0833 6.5-2.75z" fill="#00f"/>
  <g fill="#3f3f3f">
   <path d="m177.5 232.25l8.5-2.25 9 1.25c6 0.83334 9.25 1.5 9.75 2l0.75 0.75 1 3.5c0.66667 2.3333-0.33333 8.3333-3 18s-3.6667 20.333-3 32c0.66667 11.667 1.1667 18.5 1.5 20.5l0.5 3 3.75 2.75c2.5 1.8333 5.75 3.4167 9.75 4.75s9.8333 2.8333 17.5 4.5 14.333 2.6667 20 3c5.6667 0.33334 11.333 0.083344 17-0.75 5.6667-0.83331 8.5-1.5833 8.5-2.25 0-0.66666 1-1.3333 3-2 2-0.66666 3-1.3333 3-2v-1h2l0.25 1.5c0.16669 1 0.083344 2.5-0.25 4.5-0.33331 2-0.16666 5.5 0.5 10.5 0.66669 5 0.91669 10.833 0.75 17.5l-0.25 10-7 0.25c-4.6667 0.16669-10-0.25-16-1.25s-10.833-2.1667-14.5-3.5c-3.6667-1.3333-7-2.8333-10-4.5l-4.5-2.5-4.5 0.25c-3 0.16669-5 0.33334-6 0.5-1 0.16669-2.6667 0.41669-5 0.75l-3.5 0.5-1.25 0.75c-0.83333 0.5-1.4167 2.4167-1.75 5.75-0.33333 3.3333-0.91666 5.5833-1.75 6.75-0.83333 1.1667-1.8333 3.8333-3 8s-2.5833 8.25-4.25 12.25-3.3333 7.5-5 10.5-3.3333 6.8333-5 11.5-2.8333 15.333-3.5 32c-0.66666 16.667 0 28.5 2 35.5s4 12.167 6 15.5c2 3.3333 3.4167 5.3333 4.25 6l1.25 1 0.25 3c0.16667 2 0.33334 3.0833 0.5 3.25 0.16667 0.16669 0.33334 0.5 0.5 1 0.16667 0.5 0.58334 1.4167 1.25 2.75 0.66667 1.3333 1.8333 3 3.5 5s3.25 2.9167 4.75 2.75l2.25-0.25-0.5 0.5c-0.33333 0.33337-0.33333 1 0 2 0.33334 1 0.5 1.8334 0.5 2.5 0 0.66669 0.83334 2.1667 2.5 4.5l2.5 3.5-0.5 0.5c-0.33333 0.33337-2.5 1-6.5 2s-7.1667 1.3334-9.5 1c-2.3333-0.33331-5.1667-0.91663-8.5-1.75l-5-1.25-0.25-1c-0.16666-0.66663 0-1.6666 0.5-3 0.5-1.3333 0.25-2-0.75-2s-1.6667-0.58331-2-1.75l-0.5-1.75 0.75-1.25c0.5-0.83331 1.0833-2.25 1.75-4.25l1-3-0.25-0.25c-0.16666-0.16666-1.0833-0.66666-2.75-1.5-1.6667-0.83331-3.25-5.25-4.75-13.25s-3.0833-15.333-4.75-22c-1.6667-6.6667-4.3333-14.333-8-23-3.6667-8.6667-6.1667-14-7.5-16l-2-3v-5.5c0-3.6667 0.58334-7.3333 1.75-11l1.75-5.5h1l0.25-1.5c0.16667-1 0.58334-5.6667 1.25-14 0.66667-8.3333 0.5-14-0.5-17s-2.25-5.5833-3.75-7.75-3.0833-4-4.75-5.5l-2.5-2.25-1.25-1.5c-0.83333-1-3.4167-4-7.75-9s-7.5-8.8333-9.5-11.5-4-5.3333-6-8-4.1667-6.5-6.5-11.5-4.1667-12.333-5.5-22c-1.3333-9.6667-2.4167-14.917-3.25-15.75l-1.25-1.25h-15l-2 1.5c-1.3333 1-2.4167 1.9167-3.25 2.75-0.83333 0.83334-2.25 2.5833-4.25 5.25s-3.5833 4.3333-4.75 5c-1.1667 0.66669-2.3333 1.5-3.5 2.5l-1.75 1.5-1.5 6.5c-1 4.3333-1.8333 10.5-2.5 18.5-0.66666 8-0.33333 14.5 1 19.5s2.8333 11.833 4.5 20.5c1.6667 8.6667 2.6667 13.333 3 14 0.33334 0.66669 1.5833 1.25 3.75 1.75l3.25 0.75-1.5 2c-1 1.3333-1.3333 2.3333-1 3 0.33334 0.66669 1.1667 1.6667 2.5 3l2 2-0.25 0.25c-0.16666 0.16669-0.91666 1.25-2.25 3.25s-3.25 3.25-5.75 3.75l-3.75 0.75-0.75-1.75c-0.5-1.1667-1.1667-4.4167-2-9.75-0.83333-5.3333-1.75-8-2.75-8s-1.5833-0.33331-1.75-1l-0.25-1-0.5 11c-0.33333 7.3333-0.91666 12.833-1.75 16.5-0.83333 3.6667-1.5833 5.5-2.25 5.5h-1l-0.25-5.5c-0.16666-3.6667-0.33333-6-0.5-7-0.16666-1-0.5-2.3333-1-4s-1.3333-2.5833-2.5-2.75c-1.1667-0.16666-2-0.66666-2.5-1.5l-0.75-1.25-1.5 3.5c-1 2.3333-1.1667 6.5-0.5 12.5 0.66667 6 0.83334 10.833 0.5 14.5-0.33333 3.6667-0.75 6.0833-1.25 7.25s-1.75 1.8333-3.75 2c-2 0.16669-3.0833 0.58334-3.25 1.25-0.16666 0.66669-0.66666 1.0833-1.5 1.25-0.83333 0.16669-2-0.16666-3.5-1l-2.25-1.25 0.5-1.5c0.33334-1 0.41667-1.9167 0.25-2.75-0.16666-0.83331 0.16667-2 1-3.5 0.83334-1.5 1.0833-2.9167 0.75-4.25l-0.5-2-0.25-0.25c-0.16666-0.16666-1.25-0.66666-3.25-1.5-2-0.83331-2.9167-1.9167-2.75-3.25 0.16667-1.3333-0.66666-3.0833-2.5-5.25l-2.75-3.25-2-8.75c-1.3333-5.8333-2.3333-8.8333-3-9-0.66667-0.16666-1.4167-1.6667-2.25-4.5-0.83333-2.8333-1.25-4.4167-1.25-4.75 0-0.33331-0.08333-0.91666-0.25-1.75-0.16667-0.83331-1-3.3333-2.5-7.5s-2.5-6.6667-3-7.5c-0.5-0.83331-1.5-4.8333-3-12s-2.25-11.083-2.25-11.75c0-0.66666 0.5-6.5 1.5-17.5s2.3333-18.333 4-22c1.6667-3.6667 5.1667-8.5 10.5-14.5s9.0833-9.5 11.25-10.5 3.5-2.3333 4-4l0.75-2.5 1.75 0.5c1.1667 0.33334 1.9167 0.66669 2.25 1 0.33334 0.33334 3.1667 0.25 8.5-0.25s11.333-0.58331 18-0.25c6.6667 0.33334 11.167 0.83334 13.5 1.5 2.3333 0.66669 7 1.3333 14 2 7 0.66669 11.333 0.83334 13 0.5l2.5-0.5 1-0.5c0.66667-0.33331 2.5-1.6667 5.5-4s4.9167-3.9167 5.75-4.75c0.83334-0.83331 1.5-1.3333 2-1.5 0.5-0.16666 2.75-1.9167 6.75-5.25s8.3333-6.5 13-9.5 7.8333-5 9.5-6 5.3333-2.25 11-3.75z"/>
   <path d="m425.5 301h0.5l-1.25 13.5c-0.83331 9-2.25 16.167-4.25 21.5-2 5.3333-3.4167 9.1667-4.25 11.5l-1.25 3.5-4.5 2c-3 1.3333-4.8333 2.4167-5.5 3.25-0.66666 0.83334-2.5 2.1667-5.5 4s-4.8333 3.5-5.5 5c-0.66666 1.5-2.4167 2.6667-5.25 3.5l-4.25 1.25 0.75 11.5 0.75 11.5-0.25 2-0.25 2-1.25 0.25c-0.83331 0.16669-2.1667 2.5-4 7s-3.4167 12.583-4.75 24.25-2.3333 19-3 22c-0.66666 3-2 7.5-4 13.5s-3.3333 13.333-4 22c-0.66666 8.6667-0.33331 15 1 19l2 6 0.25 0.25 2.25 2.25c1.3333 1.3334 2.5833 2.9167 3.75 4.75 1.1667 1.8334 2.25 3.5834 3.25 5.25 1 1.6667 1.8333 3.3334 2.5 5l1 2.5-3.75-0.25c-2.5-0.16663-4.0833-0.083313-4.75 0.25-0.66666 0.33337-2.8333 0.33337-6.5 0-3.6667-0.33331-6.6667-1-9-2l-3.5-1.5 1-0.5c0.66669-0.33331 0.58334-1.25-0.25-2.75-0.83331-1.5-1.0833-2.75-0.75-3.75 0.33334-1 0.83334-2.3333 1.5-4l1-2.5-1.75-0.75c-1.1667-0.5-2.3333-1.6667-3.5-3.5l-1.75-2.75 2-9c1.3333-6 2-21 2-45s-0.33331-40.333-1-49c-0.66666-8.6667-1.3333-14.167-2-16.5-0.66666-2.3333-1.6667-4.5-3-6.5s-2.25-3.3333-2.75-4l-0.75-1-1.25-2-1.25-2-0.25-0.25c-0.16666-0.16666-1.4167-0.66666-3.75-1.5-2.3333-0.83331-3.5833-1.5833-3.75-2.25-0.16666-0.66666-1.5-1.75-4-3.25s-3.9167-2.25-4.25-2.25c-0.33331 0-1.6667-0.33331-4-1l-3.5-1-0.75-14.75c-0.5-9.8333-0.33331-15.75 0.5-17.75l1.25-3 11-1.25c7.3333-0.83331 11.167-1.4167 11.5-1.75l0.5-0.5 0.75-1.75c0.5-1.1667 0.66669-5.25 0.5-12.25l-0.25-10.5 2.5-1.5 2.5-1.5 1.5-0.75 1.5-0.75 0.25-0.25c0.16669-0.16666 0.33334-0.91666 0.5-2.25 0.16669-1.3333 0-2.1667-0.5-2.5-0.5-0.33331 0.25-1.8333 2.25-4.5s3.3333-6.8333 4-12.5c0.66669-5.6667 0.66669-9.5 0-11.5-0.66666-2-2.6667-5-6-9s-5.25-6.3333-5.75-7l-0.75-1-0.25-0.5-0.25-0.5v-1.5c0-1-0.16666-2.5-0.5-4.5-0.33331-2-1.0833-4.1667-2.25-6.5s-2.0833-3.8333-2.75-4.5l-1-1v-3h5l1 1.25c0.66669 0.83334 1.4167 1.6667 2.25 2.5l3 3c1.1667 1.1667 4 3.8333 8.5 8s7.5833 7.25 9.25 9.25 4.3333 5.1667 8 9.5 6.6667 7.6667 9 10 3.4167 4.25 3.25 5.75c-0.16666 1.5-0.083313 2.4167 0.25 2.75l0.5 0.5 3.5 2.75c2.3333 1.8333 4.8333 2.8333 7.5 3 2.6667 0.16669 4.8333 0.66669 6.5 1.5 1.6667 0.83334 3 2.6667 4 5.5l1.5 4.25 1.75-0.25c1.1667-0.16666 2.25 0.58334 3.25 2.25s1.5833 1.8333 1.75 0.5c0.16669-1.3333 1-1.8333 2.5-1.5 1.5 0.33334 2.4167 1 2.75 2l0.5 1.5 1.25 1c0.83334 0.66669 1.25 1.8333 1.25 3.5v2.5h0.5z"/>
   <path d="m488.25 281.5l-0.25-0.5-0.25-0.5-0.25-0.5-0.25-0.25c-0.16666-0.16666-1.0833-0.66666-2.75-1.5-1.6667-0.83331-2.5833-0.91666-2.75-0.25-0.16666 0.66669-0.58331 0.33334-1.25-1-0.66666-1.3333-1-2.1667-1-2.5 0-0.33331-0.25-0.58331-0.75-0.75-0.5-0.16666-1.1667 0.33334-2 1.5l-1.25 1.75-1-3.5c-0.66666-2.3333-1.25-3.8333-1.75-4.5l-0.75-1v-4l-0.25-1.5-0.25-1.5-0.25-2.5-0.25-2.5h-2l-2.75-9-2.75-9-4-3.5-4-3.5-2-7.5c-1.3333-5-2.25-8.0833-2.75-9.25l-0.75-1.75h-3.5c-2.3333 0-4 0.16667-5 0.5-1 0.33334-2.75 1.4167-5.25 3.25s-4.5833 3.75-6.25 5.75-3.5 5-5.5 9-3.5833 9.5-4.75 16.5l-1.75 10.5h-1l-0.25 3.5c-0.16666 2.3333-0.5 5.1667-1 8.5l-0.75 5h-2.75c-0.5 0-2 0.083344-4.5 0.25-2.5 0.16669-4.4167 0.083344-5.75-0.25l-2-0.5-2-1.25c-1.3333-0.83331-1.8333-2.25-1.5-4.25 0.33334-2 0-3.5833-1-4.75l-1.5-1.75-1.25-0.75c-0.83331-0.5-2.1667-1.0833-4-1.75-1.8333-0.66666-3.3333-1.1667-4.5-1.5-1.1667-0.33331-2.1667-1.3333-3-3-0.83331-1.6667-2.4167-3.25-4.75-4.75s-4.3333-3.4167-6-5.75-2.9167-3.9167-3.75-4.75c-0.83331-0.83333-3.3333-3.1667-7.5-7s-8-7.5-11.5-11-5.9167-6.75-7.25-9.75-2.0833-4.5833-2.25-4.75c-0.16666-0.16666-0.58331-0.5-1.25-1l-1-0.75 0.75-1c0.5-0.66666 2.0833-2.6667 4.75-6s4.4167-5.5833 5.25-6.75c0.83334-1.1667 2.25-2.5833 4.25-4.25s5-4.1667 9-7.5 9-6.8333 15-10.5 12.333-6.8333 19-9.5c6.6667-2.6667 13.917-5.0833 21.75-7.25 7.8333-2.1667 12.167-2.9167 13-2.25 0.83334 0.66667 1.5833 0.75 2.25 0.25 0.66669-0.5 1.1667-0.75 1.5-0.75 0.33334 0 5.5 0.33334 15.5 1 10 0.66667 17.667 1.8333 23 3.5 5.3333 1.6667 11.833 4.5 19.5 8.5 7.6667 4 11.833 6.1667 12.5 6.5l1 0.5 7 1c4.6667 0.66667 6.8334 1.1667 6.5 1.5-0.33331 0.33334 1.1667 0.41667 4.5 0.25l5-0.25-1 1.75c-0.66663 1.1667-1.4166 2.1667-2.25 3-0.83331 0.83334-2.0833 2.0833-3.75 3.75-1.6666 1.6667-2.8333 5.8333-3.5 12.5-0.66663 6.6667-1.3333 10.5-2 11.5-0.66663 1-1 3.5-1 7.5v6l-4 4.5-4 4.5-1 3c-0.66666 2-1 10.167-1 24.5s-0.91666 22.417-2.75 24.25c-1.8333 1.8333-2.9167 2.75-3.25 2.75-0.33331 0-1.3333 0.16669-3 0.5l-2.5 0.5-1.75-0.75c-1.1667-0.5-1.8333-0.91666-2-1.25z"/>
  </g>
  <path d="m305 271.75l6-0.75 3 0.5 3 0.5-1 1c-0.66666 0.66669-1.3333 4.6667-2 12l-1 11-0.25 1-0.25 1-0.5 2c-0.33331 1.3333-0.25 5.8333 0.25 13.5l0.75 11.5h5l-1.25 3c-0.83331 2-1 7.9167-0.5 17.75l0.75 14.75 3.5 1c2.3333 0.66669 3.6667 1 4 1 0.33334 0 1.75 0.75 4.25 2.25s3.8333 2.5833 4 3.25c0.16669 0.66669 1.4167 1.4167 3.75 2.25 2.3333 0.83334 3.9167 1.6667 4.75 2.5l1.25 1.25 0.25 1 0.25 1-2 0.75c-1.3333 0.5-2.8333 1.25-4.5 2.25s-6.6667 1.6667-15 2c-8.3333 0.33334-12.667 0.33334-13 0-0.33331-0.33331-2.6667-0.33331-7 0l-6.5 0.5-0.25-0.25c-0.16666-0.16666-0.83331-3.25-2-9.25s-2.25-9.1667-3.25-9.5l-1.5-0.5 0.25-10c0.16669-6.6667-0.083313-12.5-0.75-17.5-0.66666-5-0.83331-8.5-0.5-10.5 0.33334-2 0.41669-3.5 0.25-4.5l-0.25-1.5h-2v-5h-5v-1l3-0.25 3-0.25 1.25-9.25c0.83334-6.1667 1.0833-10.25 0.75-12.25-0.33331-2-1.0833-3.9167-2.25-5.75l-1.75-2.75 2-0.75c1.3333-0.5 2.1667-1.0833 2.5-1.75l0.5-1h-1l1-1.25c0.66669-0.83331 2.5-1.75 5.5-2.75s6.5-1.75 10.5-2.25z" fill="#212121"/>
  <g fill="#3f3f3f">
   <path d="m155.25 369.5l2.75-7.5 2.5 2.25c1.6667 1.5 3.25 3.3333 4.75 5.5s2.75 4.75 3.75 7.75 1.1667 8.6667 0.5 17c-0.66666 8.3333-1.0833 13-1.25 14l-0.25 1.5h-1l-1.5-0.25c-1-0.16666-1.75-0.16666-2.25 0-0.5 0.16669-1.5833 1.25-3.25 3.25s-3.8333 6-6.5 12-4.3333 15.833-5 29.5c-0.66666 13.667-0.5 23 0.5 28s1.8333 8 2.5 9c0.66667 1 2 3.5 4 7.5s3.25 6.4167 3.75 7.25l0.75 1.25-1 0.25c-0.66666 0.16669-1.6667 0.66669-3 1.5-1.3333 0.83334-3.8333 1.25-7.5 1.25s-6.5-0.33331-8.5-1l-3-1-0.75-3.25c-0.5-2.1667-1-3.8333-1.5-5l-0.75-1.75 1.5-1c1-0.66666 1.8333-1.9167 2.5-3.75l1-2.75-1-0.25c-0.66666-0.16666-1.4167-0.83331-2.25-2-0.83333-1.1667-1.0833-9.9167-0.75-26.25 0.33334-16.333 0.16667-26.333-0.5-30-0.66666-3.6667-1.3333-8.8333-2-15.5l-1-10 0.5-1c0.33334-0.66666 2.1667-3 5.5-7s6.6667-8.6667 10-14 5.9167-10.5 7.75-15.5z"/>
   <path d="m410.5 353l4.5-2-0.25 12c-0.16666 8-0.41666 19.667-0.75 35-0.33331 15.333-0.33331 26.833 0 34.5 0.33334 7.6667 0.66669 12.833 1 15.5 0.33334 2.6667 0.83334 7.6667 1.5 15 0.66669 7.3333 2 13 4 17s3.1667 6.1667 3.5 6.5c0.33334 0.33334 0.83334 1.8333 1.5 4.5l1 4 1.75 0.75c1.1667 0.5 2.0833 0.83334 2.75 1 0.66669 0.16669 1.1667 1 1.5 2.5 0.33334 1.5 0.91669 2.6667 1.75 3.5 0.83334 0.83334 1.75 2.0833 2.75 3.75s1.75 3.6667 2.25 6l0.75 3.5h-2c-1.3333 0-2.1667 0.58337-2.5 1.75-0.33331 1.1667-1.3333 1.8334-3 2-1.6667 0.16669-2.8333 0.083374-3.5-0.25-0.66666-0.33331-2.8333-0.91663-6.5-1.75-3.6667-0.83331-6.8333-1.6666-9.5-2.5l-4-1.25v-1c0-0.66663 0.75-1.3333 2.25-2 1.5-0.66666 2.75-2.3333 3.75-5l1.5-4-1.75-1.75c-1.1667-1.1667-2.6667-2.1667-4.5-3-1.8333-0.83331-2.9167-2.75-3.25-5.75-0.33331-3-0.83331-7.8333-1.5-14.5-0.66666-6.6667-1.9167-13.417-3.75-20.25-1.8333-6.8333-3.3333-11.167-4.5-13-1.1667-1.8333-1.9167-3.0833-2.25-3.75-0.33331-0.66666-1.1667-5.8333-2.5-15.5s-2.75-17.333-4.25-23l-2.25-8.5-0.75-11.5-0.75-11.5 4.25-1.25c2.8333-0.83331 4.5833-2 5.25-3.5 0.66669-1.5 2.5-3.1667 5.5-5s4.8333-3.1667 5.5-4c0.66669-0.83331 2.5-1.9167 5.5-3.25z"/>
  </g>
 </g>
</svg>
