<?xml version="1.0" encoding="iso-8859-1"?>
<!-- Generator: Adobe Illustrator 19.0.0, SVG Export Plug-In . SVG Version: 6.00 Build 0)  -->
<svg version="1.1" id="Layer_1" xmlns="http://www.w3.org/2000/svg" xmlns:xlink="http://www.w3.org/1999/xlink" x="0px" y="0px"
	 viewBox="0 0 512 512" style="enable-background:new 0 0 512 512;" xml:space="preserve">
<circle style="fill:#005C83;" cx="256" cy="256" r="256"/>
<path style="fill:#00263F;" d="M370.204,110.25l-54.553-54.747L137.49,266.169l223.414,223.414c0.221-0.099,0.443-0.198,0.665-0.297
	C450.286,449.075,512,359.745,512,256c0-1.35-0.03-2.692-0.051-4.037L382.754,110.762L370.204,110.25z"/>
<path style="fill:#EFD48F;" d="M460.799,409.616l-8.525-17.542l-152.978-37.523v-30.788h-86.591v30.788L59.726,392.075
	l-8.525,17.542C97.907,471.784,172.255,512,256,512S414.093,471.785,460.799,409.616z"/>
<path style="fill:#E7C46B;" d="M452.274,392.075l-152.978-37.523v-30.788h-43.629v188.234c0.111,0,0.222,0.002,0.333,0.002
	c83.745,0,158.093-40.215,204.799-102.384L452.274,392.075z"/>
<circle style="fill:#EFD48F;" cx="155.86" cy="243.98" r="28.808"/>
<circle style="fill:#E7C46B;" cx="356.14" cy="243.98" r="28.808"/>
<path d="M370.204,244.622V164.86C370.204,110.813,319.073,67,256,67l0,0c-63.073,0-114.204,43.813-114.204,97.86v79.763
	c0,4.885,0.424,9.685,1.23,14.378h225.949C369.781,254.307,370.204,249.507,370.204,244.622z"/>
<path style="fill:#050403;" d="M256,67L256,67c-0.112,0-0.222,0.003-0.333,0.004V259h113.307c0.807-4.693,1.23-9.493,1.23-14.378
	V164.86C370.204,110.813,319.073,67,256,67z"/>
<path style="fill:#FFECB3;" d="M257.722,336.634h-3.443c-54.357,0-98.421-44.065-98.421-98.421v-75.457
	c0-54.357,44.065-98.421,98.421-98.421h3.443c54.357,0,98.421,44.065,98.421,98.421v75.457
	C356.143,292.569,312.078,336.634,257.722,336.634z"/>
<path style="fill:#E8D3A0;" d="M256,69.833L256,69.833c-0.112,0-0.222,0.004-0.333,0.004v266.796h2.055
	c54.357,0,98.421-44.065,98.421-98.422v-71.649C356.143,113.141,311.308,69.833,256,69.833z"/>
<path style="fill:#FF9451;" d="M255.667,303c-16.818,0-30.5-13.682-30.5-30.5h12c0,10.201,8.299,18.5,18.5,18.5
	s18.5-8.299,18.5-18.5h12C286.167,289.318,272.485,303,255.667,303z"/>
<path style="fill:#F7674F;" d="M255.667,291c10.201,0,18.5-8.299,18.5-18.5h12c0,16.818-13.682,30.5-30.5,30.5L255.667,291
	L255.667,291z"/>
<circle style="fill:#1A1A1A;" cx="313.02" cy="238.23" r="10.803"/>
<circle style="fill:#333333;" cx="198.98" cy="238.23" r="10.803"/>
<path style="fill:#EFD48F;" d="M260.801,252.583h-9.603c-7.955,0-14.404-6.449-14.404-14.404v-2.81h38.411v2.81
	C275.206,246.134,268.757,252.583,260.801,252.583z"/>
<path style="fill:#E7C46B;" d="M255.667,235.369v17.214h5.135c7.955,0,14.404-6.449,14.404-14.404v-2.81H255.667z"/>
<rect x="288.5" y="211.34" style="fill:#333333;" width="44.584" height="14.888"/>
<rect x="178.92" y="211.34" style="fill:#4D4D4D;" width="44.584" height="14.888"/>
<path style="fill:#E0E0E0;" d="M452.274,392.075l-140.48-34.457L256,413.412l-55.794-55.794l-140.48,34.457l-8.525,17.542
	C97.907,471.784,172.255,512,256,512s158.093-40.215,204.799-102.384L452.274,392.075z"/>
<path style="fill:#C0C0C0;" d="M452.274,392.075l-140.48-34.457L256,413.412l-0.333-0.333v98.919c0.111,0,0.222,0.002,0.333,0.002
	c83.745,0,158.093-40.215,204.799-102.384L452.274,392.075z"/>
<path d="M256,192.333c-61.856,0-112-30.805-112-68.805s50.144-68.805,112-68.805V192.333z"/>
<path style="fill:#F1333F;" d="M399.917,158.999c-10.34,36.664-78.347,51.878-151.896,33.982S123.23,130.854,133.571,94.19
	s78.347-51.878,151.896-33.982S410.258,122.334,399.917,158.999z"/>
<path style="fill:#AE283F;" d="M285.467,60.208c-10.083-2.453-20.06-4.281-29.8-5.52v140.035
	c70.561,15.067,134.269-0.334,144.25-35.724C410.258,122.334,359.016,78.104,285.467,60.208z"/>
<path style="fill:#333333;" d="M201.667,298.204c-3.197,0-6.56-0.221-10.095-0.702l2.695-19.817
	c29.122,3.958,40.8-17.302,41.283-18.209l17.778,9.161C252.661,269.944,237.796,298.204,201.667,298.204z"/>
<path style="fill:#1A1A1A;" d="M310.334,298.204c-36.135,0-50.994-28.26-51.661-29.567l8.91-4.544l8.868-4.617
	c0.482,0.907,12.14,22.171,41.282,18.209l2.695,19.817C316.896,297.983,313.529,298.204,310.334,298.204z"/>
<path style="fill:#7F182E;" d="M307.337,95.95l-19.025-5.728c7.782-22.302,26.545-34.222,27.34-34.719l5.58,7.708l5.622,7.681
	C326.715,70.981,312.927,79.931,307.337,95.95z"/>
<path style="fill:#F1333F;" d="M202.186,359.598c-1.281-0.483-2.561-0.992-3.839-1.524l-29.107,7.139L201.213,479l110.582-121.383
	C311.794,357.617,255.864,379.819,202.186,359.598z"/>
<g>
	<path style="fill:#AE283F;" d="M255.667,368.044v51.184l56.128-61.61C311.794,357.617,287.55,367.239,255.667,368.044z"/>
	<path style="fill:#AE283F;" d="M344.835,354.372c-9.972-5.361-22.401-1.624-27.761,8.348s-1.622,22.402,8.349,27.763
		c9.972,5.361,44.833,0.831,44.833,0.831S354.807,359.734,344.835,354.372z"/>
</g>
<circle style="fill:#7F182E;" cx="312.32" cy="361.71" r="16.417"/>
<g>
</g>
<g>
</g>
<g>
</g>
<g>
</g>
<g>
</g>
<g>
</g>
<g>
</g>
<g>
</g>
<g>
</g>
<g>
</g>
<g>
</g>
<g>
</g>
<g>
</g>
<g>
</g>
<g>
</g>
</svg>
